<svg width="98" height="98" xmlns="http://www.w3.org/2000/svg" xmlns:xlink="http://www.w3.org/1999/xlink" xml:space="preserve" overflow="hidden"><g transform="translate(-1014 -254)"><g><g><g><g><path d="M1075 282C1075 290.837 1067.84 298 1059 298 1050.16 298 1043 290.837 1043 282 1043 273.163 1050.16 266 1059 266 1067.84 266 1075 273.163 1075 282Z" fill="#FFFFFF" fill-rule="nonzero" fill-opacity="1"/><path d="M1065 326C1065.02 316.713 1071.74 308.797 1080.9 307.276 1078.1 305.935 1075.19 304.839 1072.2 304 1067.92 302.69 1063.47 302.017 1059 302 1054.53 302.077 1050.09 302.75 1045.8 304 1040.21 305.632 1034.93 308.202 1030.2 311.6 1028.23 313.145 1027.05 315.495 1027 318L1027 334 1066.79 334C1065.61 331.497 1065 328.766 1065 326Z" fill="#FFFFFF" fill-rule="nonzero" fill-opacity="1"/><path d="M1084 311C1075.72 311 1069 317.716 1069 326 1069 334.284 1075.72 341 1084 341 1092.28 341 1099 334.284 1099 326 1099 317.716 1092.28 311 1084 311ZM1091 327 1085.5 327 1085.5 332.5 1082.5 332.5 1082.5 327 1077 327 1077 324 1082.5 324 1082.5 318.5 1085.5 318.5 1085.5 324 1091 324Z" fill="#FFFFFF" fill-rule="nonzero" fill-opacity="1"/></g></g></g></g></g></svg>