<svg width="96" height="97" xmlns="http://www.w3.org/2000/svg" xmlns:xlink="http://www.w3.org/1999/xlink" xml:space="preserve" overflow="hidden"><g transform="translate(-640 -560)"><g><g><g><g><path d="M718 581 701 581 701 576C701 572.1 697.9 569 694 569L682 569C678.1 569 675 572.1 675 576L675 581 658 581C655.8 581 654 582.8 654 585L654 589 722 589 722 585C722 582.8 720.2 581 718 581ZM681 576C681 575.4 681.4 575 682 575L694 575C694.6 575 695 575.4 695 576L695 581 681 581 681 576Z" fill="#052E47" fill-rule="nonzero" fill-opacity="1"/><path d="M660 645C660 647.2 661.8 649 664 649L712 649C714.2 649 716 647.2 716 645L716 593 660 593 660 645ZM701 599 707 599 707 643 701 643 701 599ZM685 599 691 599 691 643 685 643 685 599ZM669 599 675 599 675 643 669 643 669 599Z" fill="#052E47" fill-rule="nonzero" fill-opacity="1"/></g></g></g></g></g></svg>