<svg width="97" height="97" xmlns="http://www.w3.org/2000/svg" xmlns:xlink="http://www.w3.org/1999/xlink" xml:space="preserve" overflow="hidden"><g transform="translate(-360 -380)"><g><g><g><g><path d="M439 401 422 401 422 396C422 392.1 418.9 389 415 389L403 389C399.1 389 396 392.1 396 396L396 401 379 401C376.8 401 375 402.8 375 405L375 409 443 409 443 405C443 402.8 441.2 401 439 401ZM402 396C402 395.4 402.4 395 403 395L415 395C415.6 395 416 395.4 416 396L416 401 402 401 402 396Z" fill="#FFFFFF" fill-rule="nonzero" fill-opacity="1"/><path d="M381 465C381 467.2 382.8 469 385 469L433 469C435.2 469 437 467.2 437 465L437 413 381 413 381 465ZM422 419 428 419 428 463 422 463 422 419ZM406 419 412 419 412 463 406 463 406 419ZM390 419 396 419 396 463 390 463 390 419Z" fill="#FFFFFF" fill-rule="nonzero" fill-opacity="1"/></g></g></g></g></g></svg>