<svg width="97" height="97" xmlns="http://www.w3.org/2000/svg" xmlns:xlink="http://www.w3.org/1999/xlink" xml:space="preserve" overflow="hidden"><g transform="translate(-804 -321)"><g><g><g><g><path d="M860.5 357 844.5 357 844.5 381 832 381 852.5 405 873 381 860.5 381Z" fill="#FFFFFF" fill-rule="nonzero" fill-opacity="1"/><path d="M885.6 359.9C884.8 355 882.1 350.6 878.1 347.7 874 344.8 868.8 343.7 863.8 344.7 858.9 337.2 849.8 333.5 841.1 335.6 832.6 337.8 826.2 344.9 824.9 353.6 819.3 353.8 814 356.5 810.6 361 806.6 366.6 805.9 373.9 808.7 380.2 811.6 386.4 817.6 390.5 824.4 390.9L831.7 390.9 829 387.6 826.5 384.7 824.7 384.7C820.2 384.4 816.2 381.7 814.2 377.6 812.3 373.4 812.8 368.6 815.5 364.8 818.2 361.1 822.7 359.3 827.3 360L830.8 360.6 830.8 356.7C830.8 349.6 835.6 343.4 842.5 341.7 849.4 340 856.5 343.4 859.7 349.7L860.9 352.1 863.4 351.2C867.2 349.9 871.3 350.5 874.6 352.8 877.8 355.2 879.7 358.9 879.8 362.9L879.8 366 883.9 366C889 366.2 893 370.4 892.9 375.4 892.9 380.5 888.8 384.6 883.8 384.7L878.6 384.7 876 387.6 873.2 391 883.8 391C891.9 390.8 898.5 384.4 899 376.3 899.5 368.2 893.6 361.1 885.6 359.9Z" fill="#FFFFFF" fill-rule="nonzero" fill-opacity="1"/></g></g></g></g></g></svg>