<svg width="98" height="97" xmlns="http://www.w3.org/2000/svg" xmlns:xlink="http://www.w3.org/1999/xlink" xml:space="preserve" overflow="hidden"><g transform="translate(-658 -417)"><g><g><g><g><path d="M707 507C703.907 507 702.3 505.237 700.861 503.225 699.744 501.664 699.023 500.772 697.215 500.606 694.988 500.406 692.879 501.617 690.437 503.022 686.386 505.355 681.344 508.256 674.144 504.858 673.152 504.372 672.742 503.174 673.228 502.182 673.704 501.211 674.866 500.794 675.851 501.241 681.161 503.747 684.535 501.804 688.441 499.556 691.219 497.956 694.088 496.302 697.581 496.623 701.299 496.964 702.925 499.237 704.114 500.897 705.53 502.875 706.241 503.868 710.655 502.097 711.681 501.687 712.845 502.185 713.255 503.211 713.665 504.237 713.167 505.401 712.141 505.811 710.518 506.528 708.773 506.931 707 507Z" fill="#FFFFFF" fill-rule="nonzero" fill-opacity="1"/><path d="M683.3 481.918C681.05 485.554 676.255 493.8 674.266 500.977 674.258 501.014 674.282 501.05 674.319 501.057 674.344 501.063 674.37 501.053 674.386 501.033 676.159 498.906 678.191 497.009 680.434 495.386L680.434 495.386C680.462 495.303 682.174 490.425 687.247 482.713 687.257 482.698 687.274 482.69 687.292 482.693 689.112 482.853 690.945 482.621 692.668 482.011 699.685 480.063 704.768 473.394 705.268 472.711 705.288 472.684 705.268 472.654 705.232 472.654 702.524 472.622 699.857 471.989 697.423 470.8 697.361 470.77 697.319 470.71 697.312 470.642 697.308 470.614 697.311 470.586 697.32 470.559 697.349 470.464 697.444 470.404 697.543 470.42L697.549 470.42C702.903 471.268 708.308 469.244 711.788 465.088 713.949 462.49 716.324 460.077 718.888 457.875 722.105 455.112 726.176 452.369 729.938 449.533 730.134 449.377 730.166 449.092 730.01 448.896 729.942 448.811 729.846 448.753 729.738 448.733 727.263 448.271 724.91 447.302 722.828 445.886 722.779 445.853 722.747 445.801 722.741 445.742 722.736 445.704 722.742 445.666 722.759 445.632 722.802 445.542 722.905 445.497 723 445.527 726.141 446.487 729.483 446.585 732.675 445.811 734.554 445.347 736.24 444.303 737.492 442.827 740.823 438.936 742.192 434.753 739.153 430.041 737.081 426.828 732.462 425.441 726.475 426.132 722.969 426.501 719.967 428.808 718.707 432.1 718.277 433.253 717.965 434.448 717.776 435.664 717.776 435.775 717.687 435.864 717.576 435.864 717.466 435.864 717.376 435.775 717.376 435.664 717.347 435.464 717.322 435.264 717.299 435.064 717.077 433.077 717.182 431.066 717.612 429.113 717.671 428.875 717.526 428.635 717.289 428.576 717.202 428.555 717.111 428.56 717.028 428.591 712.337 430.472 707.902 432.937 703.828 435.929 699.11 439.324 694.784 443.233 690.928 447.582 688.453 450.362 687.13 453.981 687.228 457.702 687.29 459.263 687.553 460.809 688.012 462.302 688.05 462.406 687.996 462.521 687.892 462.558 687.803 462.591 687.703 462.556 687.653 462.474 686.373 460.59 685.458 458.483 684.953 456.262L684.871 456.249C682.483 460.828 679.9 468 679.492 472.749 679.235 475.761 680.079 478.463 681.63 479.935 681.647 479.953 681.675 479.953 681.692 479.936 681.695 479.933 681.698 479.93 681.7 479.926 685.449 473.314 693.034 462.053 698.435 456.644 702.552 452.419 707.147 448.688 712.127 445.525 712.828 445.083 713.591 444.746 714.39 444.525 714.494 444.489 714.608 444.545 714.644 444.649 714.675 444.738 714.639 444.836 714.559 444.885 710.464 447.735 706.631 450.943 703.105 454.473 696.873 460.711 688.173 472.726 683.983 480.7 683.764 481.12 683.543 481.519 683.3 481.918Z" fill="#FFFFFF" fill-rule="nonzero" fill-opacity="1"/></g></g></g></g></g></svg>