<svg width="97" height="97" xmlns="http://www.w3.org/2000/svg" xmlns:xlink="http://www.w3.org/1999/xlink" xml:space="preserve" overflow="hidden"><g transform="translate(-456 -509)"><g><g><g><g><path d="M510.963 585.63C512.037 583.748 513.792 584.673 514.063 579.83 514.274 576.002 507.772 574.377 507.813 570.33 507.848 566.877 513.651 567.074 514.298 563.817 514.725 561.671 510.345 558.509 511.166 556.579 511.987 554.649 515.841 554.429 518.206 552.579 520.606 550.707 516.6 548.538 516.592 546.579 516.584 544.62 523.731 543.713 524.536 540.26 525.341 536.807 523.077 536.753 522.496 533.914 521.915 531.075 527.521 527.578 528.384 523.881 528.967 521.381 525.176 520.82 524.445 518.797 523.602 516.466 528.545 512.14 528.545 512.14 522.719 511.45 518.37 513.377 517.083 514.94 515.046 517.421 517.023 521.114 515.374 522.459 513.156 524.267 509.574 524.433 508.242 527.632 507.115 530.332 512.402 535.396 509.728 538.338 507.2 541.124 500.7 539.792 499.1 543.739 497.409 547.9 503.933 551.018 501.673 555.1 499.684 558.691 496.08 558.888 495.432 562.748 494.899 565.927 499.884 569.23 498.75 572.266 497.643 575.23 493.257 576.141 495.155 579.016 497.434 582.467 501.04 582.034 499.873 585.343 498.891 588.124 500.189 589.897 501.888 591.591 505.166 594.858 503.858 598.48 504.95 602.983 505.224 603.774 506.087 604.194 506.878 603.92 507.161 603.822 507.409 603.642 507.59 603.404 508.592 601.876 509.82 600.51 511.232 599.351 513.532 597.643 515.632 595.951 514.357 592.951 512.878 589.467 508.93 589.192 510.963 585.63Z" fill="#FFFFFF" fill-rule="nonzero" fill-opacity="1"/><path d="M492.685 585.328C492.298 582.496 493.51 579.18 493.069 577.816 491.847 574.036 489.439 576.053 488.144 573.855 486.551 571.155 489.368 568.929 488.375 565.562 487.56 562.799 485.962 563.132 482.129 561.333 479.541 560.118 478.938 556.983 477.31 554.442 476.035 552.452 471.546 552.242 471.546 552.242 466.63 552.688 469.22 558.669 470.727 560.467 472.444 562.518 475.257 561.886 475.685 565.598 476.179 569.898 474.952 571.316 476.503 574.898 478.213 578.85 481.722 574.675 482.685 577.715 483.593 580.584 480.717 585.383 482.5 588.849 484.754 593.228 489.685 593.995 492.28 600.93 492.668 601.686 493.596 601.985 494.352 601.596 494.584 601.477 494.782 601.301 494.927 601.085 496.669 598.875 497.908 596.311 498.557 593.573 499.339 588.91 493.062 588.088 492.685 585.328Z" fill="#FFFFFF" fill-rule="nonzero" fill-opacity="1"/><path d="M538.044 559.016C540.592 556.579 541.747 553.027 541.121 549.557 540.366 545.595 534.091 545.487 533.394 549.444 532.86 552.478 533.773 555.906 527.956 558.27 523.922 559.91 528.625 563.645 527.523 565.42 526.421 567.195 523.454 566.399 522.234 567.946 520.077 570.679 523.281 572.797 522.355 574.892 521.214 577.471 518.785 577.011 516.874 579.565 515.306 581.665 515.297 582.413 516.796 587.706 517.471 590.647 517.745 593.665 517.61 596.679 517.601 597.263 518.067 597.744 518.651 597.753 519.042 597.76 519.405 597.549 519.594 597.207 521.206 594.264 523.514 590.807 526.03 589.454 529.426 587.629 527.5 585 527.621 581.8 527.765 578.132 532.121 579.745 534.175 577.5 536.511 574.955 532.591 573.013 533.421 570.153 534.409 566.748 538.593 568.729 539.79 566.553 541.829 562.839 534.524 562.473 538.044 559.016Z" fill="#FFFFFF" fill-rule="nonzero" fill-opacity="1"/><path d="M479.213 527.546C481.749 527.546 483.805 525.49 483.805 522.954 483.805 520.418 481.749 518.362 479.213 518.362 476.677 518.362 474.621 520.418 474.621 522.954 474.621 525.49 476.677 527.546 479.213 527.546Z" fill="#FFFFFF" fill-rule="nonzero" fill-opacity="1"/><path d="M491.123 534.743C492.814 534.744 494.185 533.373 494.186 531.682 494.187 529.991 492.816 528.62 491.125 528.619 489.434 528.618 488.063 529.989 488.062 531.68 488.062 531.68 488.062 531.681 488.062 531.681 488.062 533.372 489.432 534.742 491.123 534.743Z" fill="#FFFFFF" fill-rule="nonzero" fill-opacity="1"/><path d="M480.687 543.27C480.686 544.755 481.89 545.959 483.375 545.96 484.86 545.961 486.064 544.757 486.065 543.272 486.066 541.787 484.862 540.583 483.377 540.582 483.377 540.582 483.376 540.582 483.376 540.582 481.891 540.582 480.688 541.785 480.687 543.27Z" fill="#FFFFFF" fill-rule="nonzero" fill-opacity="1"/></g></g></g></g></g></svg>