<svg width="550" height="550" xmlns="http://www.w3.org/2000/svg" xmlns:xlink="http://www.w3.org/1999/xlink" xml:space="preserve" overflow="hidden"><g transform="translate(-1989 -1219)"><g><path d="M1995.5 1494.5C1995.5 1345.94 2115.71 1225.5 2264 1225.5 2412.29 1225.5 2532.5 1345.94 2532.5 1494.5 2532.5 1643.06 2412.29 1763.5 2264 1763.5 2115.71 1763.5 1995.5 1643.06 1995.5 1494.5Z" stroke="#D1D1D1" stroke-width="6.875" stroke-linecap="butt" stroke-linejoin="miter" stroke-miterlimit="8" stroke-opacity="1" fill="#CDCECE" fill-rule="evenodd" fill-opacity="1"/><g><g><g><path d="M2424.49 1483.73C2413.7 1461.95 2388.5 1443.57 2353.39 1431.85 2344.84 1405.17 2319.76 1387.29 2291.75 1387.9 2278.83 1387.96 2269.38 1391.56 2263.65 1398.62 2258.29 1405.22 2256.49 1414.49 2258.23 1426.22 2252.2 1427.37 2246.38 1428.76 2240.86 1430.36 2230.99 1422.52 2218.79 1418.19 2206.18 1418.06 2197.22 1417.75 2188.42 1420.56 2181.31 1426.02 2169.59 1435.92 2167.66 1453.25 2176.91 1465.49L2175.37 1466.64C2174.46 1467.32 2173.61 1467.95 2172.78 1468.6 2170.72 1470.24 2168.16 1471.13 2165.53 1471.14 2163.86 1471.14 2162.21 1470.77 2160.7 1470.06L2139.85 1460.22C2125.57 1453.45 2108.51 1459.54 2101.74 1473.82 2100.84 1475.7 2100.16 1477.69 2099.69 1479.72 2098.61 1484.7 2098.08 1489.78 2098.1 1494.87L2098.1 1496.79C2098.08 1501.88 2098.61 1506.96 2099.69 1511.93 2102.57 1525.02 2114.21 1534.3 2127.6 1534.19 2131.84 1534.19 2136.02 1533.25 2139.85 1531.43L2160.74 1521.57C2164.58 1519.74 2169.13 1520.22 2172.51 1522.8 2173.13 1523.27 2173.76 1523.73 2174.42 1524.21 2175.22 1524.81 2176.12 1525.45 2177.13 1526.24 2166.08 1547.72 2172.39 1560.36 2179.86 1567.22 2186.33 1572.63 2194.58 1575.44 2203.01 1575.1 2215.9 1574.81 2228.33 1570.23 2238.33 1562.08 2245.07 1564.4 2251.94 1566.29 2258.92 1567.73 2258.15 1584.8 2264.04 1596.15 2275.34 1599.1 2278.2 1599.83 2281.15 1600.2 2284.1 1600.18 2302.31 1600.18 2322.49 1587.45 2333.75 1569.04 2378.32 1560.79 2411.37 1540.31 2424.55 1512.7 2429.01 1503.55 2428.98 1492.86 2424.49 1483.73ZM2376.14 1472.81C2381.44 1472.81 2385.73 1477.1 2385.73 1482.4 2385.73 1487.7 2381.44 1491.99 2376.14 1491.99 2370.85 1491.99 2366.55 1487.7 2366.55 1482.4 2366.55 1477.11 2370.84 1472.81 2376.14 1472.81 2376.14 1472.81 2376.14 1472.81 2376.14 1472.81ZM2358.95 1446.57C2337.8 1477.79 2338.93 1519.03 2361.76 1549.05 2356.71 1550.93 2351.41 1552.63 2345.84 1554.11 2323.69 1521.54 2321.94 1479.22 2341.34 1444.94 2342.69 1442.55 2345.61 1441.53 2348.16 1442.56ZM2165.62 1508.53C2162.93 1508.54 2160.27 1509.01 2157.74 1509.92 2156.98 1504.61 2156.59 1499.27 2156.58 1493.91 2156.59 1489.79 2156.83 1485.67 2157.31 1481.57 2159.93 1482.58 2162.72 1483.1 2165.53 1483.11 2168.16 1483.1 2170.78 1482.65 2173.27 1481.78 2172.05 1491.21 2172.27 1500.77 2173.9 1510.14 2171.26 1509.1 2168.45 1508.56 2165.62 1508.53ZM2240.18 1550.75C2237.62 1550.02 2235.71 1547.88 2235.3 1545.25 2232.78 1528.9 2231.64 1512.36 2231.89 1495.82 2232.02 1479.52 2233.84 1463.28 2237.33 1447.35 2237.9 1444.52 2240.13 1442.33 2242.97 1441.81L2246.7 1441.12C2251.62 1440.03 2254.81 1439.03 2260.46 1437.93 2261.75 1437.69 2262.57 1437.54 2263.88 1437.18L2263.67 1438.2C2259.08 1460.23 2255.76 1476.15 2255.76 1495.81 2255.52 1516.02 2257.38 1536.21 2261.33 1556.03 2254.88 1554.7 2251.83 1554.04 2246.25 1552.45Z" fill="#404040" fill-rule="nonzero" fill-opacity="1"/></g></g></g></g></g></svg>