<svg width="98" height="97" xmlns="http://www.w3.org/2000/svg" xmlns:xlink="http://www.w3.org/1999/xlink" xml:space="preserve" overflow="hidden"><g transform="translate(-74 -97)"><g><g><g><g><path d="M159 183.06C157.087 182.299 155.058 181.87 153 181.79L153 181.79C150.942 181.87 148.913 182.299 147 183.06 145.726 183.587 144.375 183.905 143 184 141.625 183.905 140.274 183.587 139 183.06 137.087 182.299 135.058 181.87 133 181.79 130.942 181.87 128.913 182.299 127 183.06 125.726 183.587 124.375 183.905 123 184 121.625 183.905 120.274 183.587 119 183.06 117.087 182.299 115.058 181.87 113 181.79 110.942 181.87 108.913 182.299 107 183.06 105.726 183.587 104.375 183.905 103 184 101.625 183.905 100.274 183.587 99 183.06 97.0866 182.299 95.0576 181.87 93 181.79 90.9424 181.87 88.9134 182.299 87 183.06 85.7261 183.587 84.3753 183.905 83 184L83 190C85.0576 189.92 87.0866 189.491 89 188.73 90.2704 188.182 91.6213 187.845 93 187.73 94.3787 187.845 95.7296 188.182 97 188.73 98.9134 189.491 100.942 189.92 103 190 105.058 189.92 107.087 189.491 109 188.73 110.27 188.182 111.621 187.845 113 187.73 114.375 187.825 115.726 188.143 117 188.67 118.908 189.456 120.938 189.906 123 190 125.058 189.92 127.087 189.491 129 188.73 130.27 188.182 131.621 187.845 133 187.73 134.379 187.845 135.73 188.182 137 188.73 138.913 189.491 140.942 189.92 143 190 145.058 189.92 147.087 189.491 149 188.73 150.27 188.182 151.621 187.845 153 187.73 154.375 187.825 155.726 188.143 157 188.67 158.908 189.456 160.938 189.906 163 190L163 184C161.625 183.905 160.274 183.587 159 183.06Z" fill="#000000" fill-rule="nonzero" fill-opacity="1"/><path d="M124.31 121.48C124.045 122.925 125.001 124.311 126.446 124.576 127.553 124.779 128.667 124.264 129.23 123.29L129.23 123.29C131.48 134.02 130.61 144.99 129.31 152.89 123.746 153.169 118.274 154.418 113.14 156.58 113.14 156.58 112.48 156.58 111.41 156.58 109.63 151.056 108.848 145.258 109.1 139.46 109.637 140.148 110.63 140.27 111.318 139.732 111.762 139.385 111.987 138.828 111.91 138.27 111.901 138.178 111.881 138.087 111.85 138 113.91 140.23 114.44 142.45 115.12 143.49 115.235 143.659 115.465 143.703 115.634 143.588 115.704 143.541 115.755 143.471 115.78 143.39 116.537 141.013 116.328 138.434 115.2 136.21 114.528 135.103 113.452 134.3 112.2 133.97 115.22 134.531 118.128 135.582 120.81 137.08 120.996 137.188 121.235 137.124 121.343 136.938 121.41 136.821 121.413 136.679 121.35 136.56 120.41 134.63 118.21 130.87 115.21 130.23 112.21 129.59 109.66 132.41 108.91 133.23 108.884 133.258 108.839 133.26 108.811 133.233 108.794 133.217 108.786 133.193 108.79 133.17 109.532 131.134 108.722 128.859 106.86 127.75 105.04 126.69 101.54 127.5 99.59 128.1 99.3801 128.148 99.2493 128.358 99.2978 128.568 99.3313 128.713 99.4447 128.827 99.59 128.86 101.681 129.383 103.671 130.248 105.48 131.42 103.549 130.383 101.186 130.604 99.48 131.98 97.88 133.21 96.74 136.06 96.16 137.82 96.0786 138.019 96.1742 138.247 96.3736 138.328 96.5205 138.389 96.6891 138.354 96.8 138.24 98.5069 136.688 100.51 135.497 102.69 134.74 101.767 135.397 101.069 136.322 100.69 137.39 99.98 139.2 100.43 141.8 100.85 143.39 100.91 143.603 101.131 143.726 101.343 143.667 101.478 143.629 101.582 143.524 101.62 143.39 102.107 141.576 102.951 139.876 104.1 138.39 104.023 138.584 103.989 138.792 104 139 104.118 139.865 104.915 140.47 105.779 140.352 105.783 140.351 105.786 140.35 105.79 140.35 106.137 140.297 106.456 140.132 106.7 139.88 106.488 145.516 106.756 151.16 107.5 156.75 102 157.16 94.07 158.62 92 163.35L93 163.27C95.0576 163.35 97.0866 163.779 99 164.54 100.272 165.072 101.624 165.39 103 165.48 104.376 165.39 105.728 165.072 107 164.54 108.913 163.779 110.942 163.35 113 163.27 115.058 163.35 117.087 163.779 119 164.54 120.272 165.072 121.624 165.39 123 165.48 124.376 165.39 125.728 165.072 127 164.54 128.913 163.779 130.942 163.35 133 163.27 135.058 163.35 137.087 163.779 139 164.54 140.272 165.072 141.624 165.39 143 165.48 144.376 165.39 145.728 165.072 147 164.54 148.849 163.812 150.805 163.389 152.79 163.29 148.599 157.992 142.598 154.431 135.94 153.29 135.85 147.2 135.45 133.59 133.27 123.36 133.834 123.808 134.556 124.006 135.27 123.91 136.096 123.768 136.809 123.251 137.2 122.51 137.581 121.86 137.644 121.072 137.37 120.37 139.655 122.595 141.474 125.254 142.72 128.19 142.867 128.529 143.262 128.685 143.602 128.537 143.821 128.442 143.973 128.237 144 128 144.31 125.2 144.46 120.78 142.84 117.94 141.959 116.323 140.624 114.998 139 114.13 138.95 114.13 139 114.04 139 114.05 142.733 114.812 146.279 116.308 149.43 118.45 149.722 118.678 150.143 118.626 150.37 118.334 150.535 118.124 150.559 117.835 150.43 117.6 149.05 114.81 146.48 110.34 143.53 108.67 139.36 106.31 135.71 107.53 133.02 109.46 133.02 109.46 133.02 109.46 133.02 109.46 135.837 106.949 139.064 104.94 142.56 103.52 142.901 103.39 143.072 103.009 142.942 102.668 142.857 102.445 142.657 102.284 142.42 102.25 139 101.69 133 101.15 130.25 103.35 126.19 106.56 127.49 111 128.38 113 128.399 113.028 128.393 113.066 128.365 113.085 128.337 113.104 128.299 113.098 128.28 113.07 126.65 111.41 122.1 107.5 116.94 109.38 112.11 111.14 109.34 117.91 108.22 121.38 108.114 121.729 108.31 122.098 108.659 122.204 108.849 122.262 109.055 122.231 109.22 122.12 113.3 119.018 117.856 116.597 122.71 114.95L122.71 115.01C120.712 115.849 119.109 117.419 118.23 119.4 116.23 124.15 117.94 129.14 118.94 131.4 119.083 131.723 119.462 131.869 119.785 131.725 119.93 131.661 120.046 131.545 120.11 131.4 120.98 129.49 121.38 125.69 124.26 121.53Z" fill="#000000" fill-rule="nonzero" fill-opacity="1"/><path d="M159 171.06C157.087 170.299 155.058 169.87 153 169.79L153 169.79C150.942 169.87 148.913 170.299 147 171.06 145.726 171.587 144.375 171.905 143 172 141.625 171.905 140.274 171.587 139 171.06 137.087 170.299 135.058 169.87 133 169.79 130.942 169.87 128.913 170.299 127 171.06 125.726 171.587 124.375 171.905 123 172 121.625 171.905 120.274 171.587 119 171.06 117.087 170.299 115.058 169.87 113 169.79 110.942 169.87 108.913 170.299 107 171.06 105.726 171.587 104.375 171.905 103 172 101.625 171.905 100.274 171.587 99 171.06 97.0866 170.299 95.0576 169.87 93 169.79 90.9424 169.87 88.9134 170.299 87 171.06 85.7261 171.587 84.3753 171.905 83 172L83 178C85.0576 177.92 87.0866 177.491 89 176.73 90.2704 176.182 91.6213 175.845 93 175.73 94.3787 175.845 95.7296 176.182 97 176.73 98.9134 177.491 100.942 177.92 103 178 105.058 177.92 107.087 177.491 109 176.73 110.27 176.182 111.621 175.845 113 175.73 114.375 175.825 115.726 176.143 117 176.67 118.908 177.456 120.938 177.906 123 178 125.058 177.92 127.087 177.491 129 176.73 130.27 176.182 131.621 175.845 133 175.73 134.379 175.845 135.73 176.182 137 176.73 138.913 177.491 140.942 177.92 143 178 145.058 177.92 147.087 177.491 149 176.73 150.27 176.182 151.621 175.845 153 175.73 154.375 175.825 155.726 176.143 157 176.67 158.908 177.456 160.938 177.906 163 178L163 172C161.625 171.905 160.274 171.587 159 171.06Z" fill="#000000" fill-rule="nonzero" fill-opacity="1"/></g></g></g></g></g></svg>