<svg width="96" height="97" xmlns="http://www.w3.org/2000/svg" xmlns:xlink="http://www.w3.org/1999/xlink" xml:space="preserve" overflow="hidden"><g transform="translate(-192 -540)"><g><g><g><g><path d="M280 628.678C279.017 628.529 278.057 628.26 277.14 627.876 273.559 626.454 269.571 626.454 265.99 627.876 262.871 629.121 259.393 629.121 256.273 627.876 254.512 627.129 252.612 626.765 250.699 626.81 248.786 626.765 246.885 627.129 245.124 627.876 243.589 628.533 241.932 628.851 240.264 628.81 238.595 628.851 236.937 628.533 235.402 627.876 233.64 627.129 231.738 626.765 229.825 626.81 227.911 626.765 226.011 627.129 224.249 627.876 222.715 628.533 221.057 628.851 219.389 628.81 217.72 628.851 216.061 628.533 214.526 627.876 212.762 627.129 210.86 626.765 208.946 626.81 207.032 626.765 205.13 627.129 203.367 627.876 202.294 628.331 201.159 628.622 200 628.74L200 630.745C201.405 630.628 202.783 630.29 204.083 629.743 205.618 629.087 207.277 628.768 208.946 628.81 210.615 628.768 212.274 629.087 213.81 629.744 215.573 630.491 217.474 630.854 219.389 630.81 221.302 630.855 223.203 630.491 224.965 629.744 226.499 629.087 228.157 628.769 229.825 628.81 231.494 628.769 233.152 629.087 234.687 629.744 236.449 630.491 238.35 630.855 240.264 630.81 242.177 630.855 244.078 630.491 245.839 629.744 248.959 628.499 252.438 628.499 255.558 629.744 259.138 631.166 263.126 631.166 266.706 629.744 269.826 628.499 273.305 628.499 276.424 629.744 277.567 630.223 278.77 630.544 280 630.698Z" fill="#000000" fill-rule="nonzero" fill-opacity="1"/><path d="M280 621.178C279.017 621.029 278.057 620.76 277.14 620.376 273.559 618.954 269.571 618.954 265.99 620.376 262.871 621.621 259.393 621.621 256.273 620.376 254.512 619.629 252.612 619.265 250.699 619.31 248.786 619.265 246.885 619.629 245.124 620.376 243.589 621.033 241.932 621.351 240.264 621.31 238.595 621.351 236.937 621.033 235.402 620.376 233.64 619.629 231.738 619.265 229.825 619.31 227.911 619.265 226.011 619.629 224.249 620.376 222.715 621.033 221.057 621.351 219.389 621.31 217.72 621.351 216.061 621.033 214.526 620.376 212.762 619.629 210.86 619.265 208.946 619.31 207.032 619.265 205.13 619.629 203.367 620.376 202.294 620.831 201.159 621.122 200 621.24L200 623.245C201.405 623.128 202.783 622.79 204.083 622.243 205.618 621.587 207.277 621.268 208.946 621.31 210.615 621.268 212.274 621.587 213.81 622.244 215.573 622.991 217.474 623.354 219.389 623.31 221.302 623.355 223.203 622.991 224.965 622.244 226.499 621.587 228.157 621.269 229.825 621.31 231.494 621.269 233.152 621.587 234.687 622.244 236.449 622.991 238.35 623.355 240.264 623.31 242.177 623.355 244.078 622.991 245.839 622.244 248.959 620.999 252.438 620.999 255.558 622.244 259.138 623.666 263.126 623.666 266.706 622.244 269.826 620.999 273.305 620.999 276.424 622.244 277.567 622.723 278.77 623.044 280 623.198Z" fill="#000000" fill-rule="nonzero" fill-opacity="1"/><path d="M280 613.74C278.842 613.622 277.708 613.331 276.637 612.877 273.057 611.455 269.068 611.455 265.487 612.877 262.368 614.121 258.89 614.121 255.77 612.877 254.009 612.129 252.109 611.765 250.196 611.81 248.283 611.765 246.382 612.129 244.621 612.876 243.086 613.533 241.429 613.851 239.761 613.81 238.092 613.851 236.434 613.533 234.899 612.876 233.137 612.129 231.235 611.765 229.322 611.81 227.409 611.765 225.508 612.129 223.746 612.876 222.212 613.533 220.554 613.851 218.886 613.81 217.217 613.851 215.558 613.533 214.023 612.876 212.26 612.129 210.357 611.765 208.443 611.81 206.529 611.765 204.627 612.129 202.864 612.876 201.946 613.26 200.984 613.53 200 613.678L200 615.698C201.231 615.545 202.436 615.224 203.58 614.744 205.115 614.087 206.774 613.769 208.443 613.81 210.113 613.769 211.772 614.087 213.307 614.744 215.07 615.491 216.972 615.854 218.886 615.81 220.799 615.855 222.7 615.491 224.462 614.744 225.996 614.087 227.654 613.769 229.322 613.81 230.991 613.769 232.648 614.087 234.183 614.744 235.945 615.491 237.847 615.855 239.761 615.81 241.674 615.855 243.575 615.491 245.336 614.744 248.456 613.499 251.935 613.499 255.055 614.744 258.635 616.166 262.623 616.166 266.203 614.744 269.323 613.499 272.802 613.499 275.921 614.744 277.22 615.29 278.596 615.628 280 615.745Z" fill="#000000" fill-rule="nonzero" fill-opacity="1"/><path d="M268.133 604.383C266.099 602.253 263.736 600.463 261.134 599.082 258.726 597.796 256.138 596.879 253.457 596.362 253.377 592.016 252.935 576.206 250.641 565.44 250.286 563.934 249.845 562.449 249.322 560.993 249.318 560.983 249.324 560.979 249.334 560.982 250.36 561.27 251.324 561.744 252.177 562.382 253.068 563.127 253.899 563.94 254.663 564.814 256.683 567.312 258.444 570.009 259.919 572.864 260.172 573.355 260.776 573.547 261.267 573.294 261.577 573.134 261.781 572.824 261.806 572.476 262.027 569.205 261.89 565.92 261.396 562.68 261.205 561.659 260.852 560.674 260.351 559.765 260.343 559.751 260.349 559.745 260.363 559.751 262.988 560.869 265.541 562.15 268.008 563.584 268.482 563.866 269.096 563.71 269.378 563.235 269.555 562.938 269.565 562.57 269.406 562.264 267.583 558.778 265.377 555.506 262.828 552.51 261.232 550.657 259.008 549.459 256.582 549.147 256.564 549.145 256.563 549.137 256.579 549.128 259.343 547.695 262.052 546.648 262.092 546.633 262.607 546.435 262.865 545.857 262.667 545.341 262.545 545.025 262.271 544.791 261.939 544.721 258.55 544.019 255.091 543.711 251.631 543.802 247.981 543.894 244.801 546.316 243.743 549.811 243.477 550.753 243.397 551.738 243.508 552.711 243.509 552.724 243.502 552.727 243.492 552.719 242.442 551.822 241.218 551.151 239.897 550.749 235.895 549.551 231.579 551.099 229.252 554.569 227.145 557.848 225.45 561.375 224.208 565.069 224.034 565.593 224.317 566.159 224.841 566.334 225.15 566.437 225.489 566.383 225.751 566.189 228.536 564.159 231.492 562.375 234.586 560.855 234.601 560.848 234.607 560.854 234.598 560.869 233.709 562.479 233.317 564.317 233.47 566.15 233.828 569.7 234.588 573.198 235.736 576.577 235.874 576.982 236.254 577.253 236.681 577.253L236.729 577.252C237.173 577.231 237.55 576.919 237.654 576.486 238.486 573.038 239.675 569.687 241.203 566.486 241.699 565.529 242.252 564.602 242.859 563.71 243.347 563.063 243.914 562.481 244.547 561.976 244.553 561.971 244.559 561.971 244.562 561.979 245.032 563.258 245.408 564.57 245.688 565.904 247.474 574.502 247.517 584.583 245.839 595.863 243.412 596.026 240.999 596.356 238.617 596.85 235.69 597.548 232.821 598.467 230.033 599.6 228.95 599.3 227.831 599.147 226.708 599.146 225.101 593.114 224.434 586.87 224.728 580.635 225.065 580.81 225.372 581.037 225.638 581.308 226.031 581.761 226.398 582.237 226.736 582.733 227.779 584.383 228.648 586.136 229.329 587.965 229.452 588.299 229.77 588.52 230.125 588.52 230.145 588.52 230.167 588.519 230.187 588.518 230.564 588.49 230.878 588.217 230.957 587.847 231.373 585.867 231.562 583.846 231.522 581.823 231.481 581.025 231.277 580.244 230.924 579.527 230.918 579.515 230.923 579.509 230.936 579.513 232.464 580.105 233.95 580.802 235.382 581.598 235.791 581.83 236.309 581.687 236.541 581.278 236.678 581.038 236.689 580.746 236.57 580.495 235.62 578.5 234.426 576.63 233.016 574.928 231.41 573.063 228.777 572.461 226.521 573.444 225.967 573.681 225.456 574.008 225.01 574.412 225.003 574.418 224.995 574.416 224.994 574.406 224.944 574.036 224.844 573.675 224.697 573.332 223.829 571.349 221.786 570.146 219.631 570.349 217.676 570.532 215.748 570.94 213.886 571.565 213.442 571.715 213.203 572.198 213.354 572.643 213.447 572.916 213.672 573.124 213.952 573.194 213.971 573.199 215.051 573.473 216.341 573.912 216.354 573.917 216.356 573.925 216.342 573.931 215.304 574.387 214.414 575.123 213.771 576.057 212.541 577.914 211.522 579.903 210.733 581.986 210.568 582.425 210.79 582.915 211.23 583.08 211.505 583.184 211.814 583.138 212.047 582.958 212.069 582.942 213.607 581.764 215.34 580.724 215.351 580.717 215.358 580.722 215.355 580.734 215.272 581.072 215.218 581.415 215.194 581.762 215.135 583.621 215.28 585.481 215.627 587.309 215.699 587.683 216.011 587.963 216.391 587.995 216.772 588.032 217.13 587.805 217.258 587.444 217.877 585.782 218.664 584.187 219.605 582.684 219.962 582.161 220.359 581.665 220.793 581.203 220.96 581.04 221.148 580.899 221.353 580.786 221.094 587.013 221.263 593.25 221.859 599.454 221.059 599.568 220.221 599.705 219.3 599.9 213.928 601.039 211.134 603.184 209.633 605.217 209.121 605.894 208.758 606.672 208.569 607.5L210.687 607.5C210.824 607.131 211 606.777 211.212 606.445 212.133 605.06 214.575 602.946 219.715 601.857 221.775 601.399 223.876 601.156 225.986 601.131 226.884 601.123 227.781 601.19 228.667 601.333 228.922 601.377 229.28 601.446 229.602 601.525 229.871 601.59 230.114 601.664 230.249 601.706 231.83 602.257 233.255 603.182 234.402 604.402 234.753 604.828 235.383 604.889 235.81 604.537 236.236 604.186 236.297 603.556 235.945 603.13 235.935 603.117 235.924 603.105 235.914 603.093 235.023 602.12 233.975 601.303 232.813 600.677 234.841 599.917 236.918 599.292 239.029 598.807 242.036 598.173 245.097 597.829 248.17 597.78 248.841 597.78 249.432 597.806 249.929 597.857 253.516 598.151 257.006 599.168 260.189 600.846 262.599 602.12 264.788 603.775 266.67 605.747 267.071 606.177 267.622 606.818 268.193 607.5L270.789 607.5C269.886 606.398 268.815 605.115 268.133 604.383ZM219.583 580.009 219.583 580.01C219.083 580.538 218.627 581.104 218.217 581.704 217.732 582.417 217.301 583.165 216.928 583.942 216.919 583.96 216.91 583.958 216.909 583.938 216.855 583.255 216.849 582.568 216.89 581.884 216.896 580.828 217.425 579.845 218.301 579.257 218.697 579.005 218.812 578.479 218.56 578.083 218.342 577.744 217.916 577.603 217.54 577.747 217.328 577.829 217.114 577.913 216.897 578.003 215.732 578.518 214.612 579.131 213.55 579.835 213.534 579.845 213.527 579.84 213.536 579.822 213.998 578.857 214.537 577.931 215.149 577.054 216.034 575.61 217.756 574.91 219.397 575.327 219.608 575.386 219.811 575.471 220.001 575.581 220.411 575.808 220.929 575.66 221.156 575.249 221.376 574.852 221.245 574.353 220.859 574.114 220.615 573.965 220.364 573.816 220.102 573.669 219.187 573.177 218.232 572.761 217.249 572.427 217.231 572.42 217.231 572.412 217.25 572.408 218.061 572.222 218.887 572.102 219.717 572.047 221.168 571.874 222.56 572.674 223.14 574.015 223.426 574.959 223.404 575.969 223.079 576.899 222.944 577.349 223.2 577.823 223.65 577.957 224.026 578.069 224.43 577.91 224.627 577.571 225.21 576.493 226.091 575.607 227.165 575.017 228.761 574.314 230.629 574.743 231.758 576.071 232.501 576.927 233.163 577.85 233.734 578.829 233.743 578.844 233.737 578.85 233.721 578.843 232.465 578.236 231.154 577.746 229.808 577.38 229.171 577.224 228.493 577.084 227.792 576.964 227.354 576.89 226.935 577.173 226.84 577.607 226.743 578.047 226.999 578.489 227.43 578.622 228.868 579.078 229.84 580.419 229.826 581.928 229.866 582.807 229.837 583.687 229.739 584.562 229.737 584.581 229.729 584.582 229.72 584.565 229.262 583.578 228.723 582.63 228.109 581.731 227.737 581.185 227.332 580.663 226.897 580.166 225.964 579.219 224.732 578.624 223.41 578.481 223.365 578.481 223.32 578.482 223.276 578.485 221.912 578.578 220.615 579.113 219.583 580.009ZM222.934 583.112C222.99 583.112 222.973 586.087 223.216 589.142 223.537 592.521 224.121 595.871 224.963 599.159 224.521 599.177 224.048 599.21 223.548 599.255 223.332 596.805 222.905 591.291 222.894 586.02 222.891 585.035 222.874 583.112 222.934 583.112ZM241.227 562.554C240.567 563.521 239.966 564.527 239.427 565.567 238.286 567.815 237.36 570.166 236.659 572.589 236.654 572.607 236.645 572.607 236.641 572.589 236.046 570.445 235.653 568.251 235.468 566.035 235.101 563.162 236.642 560.385 239.272 559.175 239.297 559.166 239.352 559.144 239.375 559.134 239.879 558.908 240.105 558.316 239.879 557.812 239.674 557.354 239.161 557.119 238.68 557.263 237.477 557.621 236.316 558.01 235.229 558.42 232.432 559.581 229.76 561.022 227.254 562.722 227.239 562.732 227.233 562.727 227.24 562.711 228.204 560.261 229.426 557.92 230.883 555.727 232.725 552.947 236.175 551.706 239.366 552.677 241.908 553.377 244.084 556.051 244.691 556.854 245.023 557.295 245.65 557.383 246.091 557.05 246.461 556.771 246.591 556.275 246.405 555.85 246.073 555.089 245.036 552.447 245.658 550.391 246.464 547.682 248.944 545.818 251.77 545.797 253.9 545.704 256.033 545.813 258.142 546.122 258.161 546.124 258.162 546.131 258.145 546.14 255.915 547.121 253.782 548.311 251.776 549.693 251.349 550.006 250.939 550.322 250.542 550.636 250.109 550.979 250.036 551.607 250.379 552.041 250.713 552.462 251.32 552.544 251.753 552.227 252.101 551.965 252.481 551.749 252.883 551.583 254.283 551.029 257.913 550.143 261.361 553.868 263.057 555.802 264.569 557.891 265.875 560.108 265.885 560.125 265.88 560.131 265.862 560.122 263.333 558.76 260.68 557.64 257.94 556.778 257.542 556.666 257.15 556.563 256.761 556.464 256.226 556.326 255.681 556.648 255.543 557.183 255.423 557.646 255.65 558.13 256.082 558.335 257.913 559.259 259.168 561.029 259.433 563.062 259.753 564.933 259.91 566.828 259.901 568.726 259.901 568.746 259.893 568.748 259.883 568.731 258.797 566.87 257.547 565.11 256.147 563.473 255.31 562.518 254.399 561.63 253.423 560.818 251.528 559.413 249.24 558.638 246.882 558.602 245.074 558.694 242.325 561.004 241.227 562.554ZM248.17 595.78C248.073 595.78 247.967 595.784 247.867 595.785 249.524 584.422 249.46 574.23 247.646 565.497 247.308 563.907 246.86 562.343 246.305 560.815 246.529 560.694 246.776 560.62 247.03 560.598L247.123 560.825C247.759 562.47 248.283 564.157 248.689 565.875 250.881 576.164 251.353 591.251 251.45 596.024 251.002 595.963 250.562 595.911 250.134 595.867 249.481 595.805 248.826 595.776 248.17 595.78Z" fill="#000000" fill-rule="nonzero" fill-opacity="1"/></g></g></g></g></g></svg>