<svg width="1013" height="2072" xmlns="http://www.w3.org/2000/svg" xmlns:xlink="http://www.w3.org/1999/xlink" xml:space="preserve" overflow="hidden"><defs><clipPath id="clip0"><rect x="2988" y="403" width="1013" height="2072"/></clipPath><clipPath id="clip1"><rect x="2988" y="403" width="1013" height="2072"/></clipPath></defs><g clip-path="url(#clip0)" transform="translate(-2988 -403)"><g clip-path="url(#clip1)"><path d="M3577.43 2061.83C3592.37 2019.51 3616.78 2040.31 3620.55 1931.4 3623.49 1845.32 3533.05 1808.78 3533.62 1717.77 3534.1 1640.13 3614.82 1644.56 3623.82 1571.31 3629.76 1523.06 3568.84 1451.95 3580.26 1408.55 3591.68 1365.15 3645.29 1360.2 3678.18 1318.6 3711.57 1276.51 3655.84 1227.73 3655.73 1183.68 3655.62 1139.63 3755.04 1119.23 3766.23 1041.58 3777.43 963.935 3745.94 962.72 3737.86 898.879 3729.78 835.038 3807.76 756.4 3819.76 673.265 3827.87 617.047 3775.14 604.431 3764.97 558.94 3753.24 506.522 3822 409.242 3822 409.242 3740.96 393.726 3680.47 437.059 3662.56 472.207 3634.23 527.997 3661.73 611.042 3638.79 641.288 3607.94 681.945 3558.11 685.678 3539.58 757.614 3523.91 818.33 3597.45 932.205 3560.25 998.363 3525.09 1061.01 3434.67 1031.06 3412.42 1119.82 3388.9 1213.39 3479.65 1283.5 3448.21 1375.29 3420.54 1456.05 3370.41 1460.48 3361.4 1547.28 3353.98 1618.76 3423.32 1693.04 3407.55 1761.31 3392.15 1827.96 3331.14 1848.45 3357.54 1913.1 3389.24 1990.7 3439.4 1980.96 3423.17 2055.37 3409.51 2117.91 3427.57 2157.78 3451.2 2195.88 3496.8 2269.34 3478.6 2350.79 3493.79 2452.05 3497.6 2469.84 3509.61 2479.27 3520.62 2473.12 3524.55 2470.91 3528 2466.88 3530.51 2461.52 3544.45 2427.17 3561.53 2396.43 3581.18 2370.38 3613.17 2331.97 3642.38 2293.92 3624.64 2226.46 3604.07 2148.11 3549.15 2141.93 3577.43 2061.83Z" fill="#275317" fill-rule="evenodd" fill-opacity="1"/><path d="M3323.28 2055.23C3317.89 1991.53 3334.77 1916.94 3328.63 1886.26 3311.61 1801.23 3278.07 1846.6 3260.03 1797.16 3237.84 1736.43 3277.08 1686.36 3263.25 1610.62 3251.9 1548.47 3229.64 1555.96 3176.25 1515.49 3140.21 1488.16 3131.81 1417.64 3109.13 1360.49 3091.38 1315.72 3028.85 1311 3028.85 1311 2960.38 1321.03 2996.46 1455.57 3017.45 1496.01 3041.36 1542.15 3080.54 1527.93 3086.5 1611.43 3093.38 1708.15 3076.29 1740.05 3097.89 1820.62 3121.71 1909.52 3170.58 1815.6 3184 1883.99 3196.64 1948.52 3156.59 2056.47 3181.42 2134.43 3212.81 2232.93 3281.49 2250.19 3317.64 2406.18 3323.04 2423.19 3335.96 2429.9 3346.49 2421.17 3349.72 2418.49 3352.48 2414.54 3354.5 2409.67 3378.77 2359.96 3396.03 2302.29 3405.06 2240.69 3415.95 2135.81 3328.53 2117.32 3323.28 2055.23Z" fill="#275317" fill-rule="evenodd" fill-opacity="1"/><path d="M3953.89 1463.56C3989.31 1408.79 4005.38 1328.97 3996.67 1251.01 3986.18 1161.98 3898.93 1159.56 3889.24 1248.47 3881.81 1316.65 3894.51 1393.67 3813.62 1446.79 3757.53 1483.65 3822.93 1567.57 3807.6 1607.46 3792.28 1647.34 3751.03 1629.46 3734.06 1664.22 3704.07 1725.63 3748.62 1773.22 3735.75 1820.3 3719.88 1878.25 3686.11 1867.91 3659.54 1925.3 3637.74 1972.49 3637.61 1989.29 3658.45 2108.23 3667.83 2174.31 3671.64 2242.13 3669.77 2309.86 3669.64 2322.98 3676.13 2333.79 3684.25 2334 3689.69 2334.13 3694.73 2329.41 3697.36 2321.72 3719.77 2255.59 3751.86 2177.91 3786.84 2147.51 3834.06 2106.5 3807.28 2047.42 3808.97 1975.52 3810.97 1893.1 3871.54 1929.34 3900.1 1878.9 3932.58 1821.71 3878.07 1778.07 3889.61 1713.81 3903.35 1637.3 3961.52 1681.81 3978.17 1632.92 4006.52 1549.46 3904.95 1541.24 3953.89 1463.56Z" fill="#275317" fill-rule="evenodd" fill-opacity="1"/></g></g></svg>