<svg width="366" height="618" xmlns="http://www.w3.org/2000/svg" xmlns:xlink="http://www.w3.org/1999/xlink" xml:space="preserve" overflow="hidden"><defs><clipPath id="clip0"><rect x="78" y="72" width="366" height="618"/></clipPath><clipPath id="clip1"><rect x="78" y="72" width="366" height="618"/></clipPath><clipPath id="clip2"><rect x="79" y="72" width="364" height="618"/></clipPath><clipPath id="clip3"><rect x="79" y="72" width="364" height="618"/></clipPath></defs><g clip-path="url(#clip0)" transform="translate(-78 -72)"><g clip-path="url(#clip1)"><g clip-path="url(#clip2)"><g clip-path="url(#clip3)"><path d="M249.834 300.358C250.102 296.007 253.846 292.698 258.197 292.967 259.442 293.043 260.651 293.414 261.726 294.049 266.907 297.02 272.278 299.648 277.803 301.916 299.193 310.877 306.919 300.889 310.163 284.216 313.529 266.912 307.292 254.546 289.264 253.026 276.661 251.963 271.358 255.829 261.999 261.289 259.901 262.507 257.212 261.794 255.993 259.696 255.457 258.773 255.276 257.686 255.482 256.638 256.724 250.752 258.12 244.922 259.629 239.141 262.78 227.043 275.141 219.79 287.239 222.94 290.381 223.759 293.31 225.243 295.828 227.293 298.637 229.549 301.611 231.79 304.789 233.88 321.302 244.738 334.793 236.71 343.154 223.656 350.836 211.658 337.431 185.758 315.472 180.417 299.481 176.527 292.27 184.18 283.17 186.552 280.73 187.212 278.217 185.769 277.557 183.329 277.326 182.475 277.347 181.572 277.619 180.73 280.072 173.22 282.466 165.777 284.695 158.39 285.711 155.182 289.135 153.405 292.343 154.421 293.111 154.664 293.824 155.057 294.439 155.578 303.04 162.437 314.598 164.304 324.921 160.502 350.78 152.481 351.364 116.957 337.962 110.511 328.43 105.927 317.109 110.84 302.95 119.214 300.518 120.641 297.39 119.825 295.963 117.394 295.366 116.375 295.14 115.18 295.324 114.013 296.361 107.422 297.041 100.779 297.359 94.1137 297.499 90.0544 300.623 86.7258 304.666 86.3295 321.467 84.7817 327.646 83.1286 334.557 76.1183 342.994 67.5614 354.759 52.4282 344.304 40.6391 333.848 28.8474 304.736 29.582 291.425 55.8791 291.425 55.8791 291.313 56.2096 291.161 56.6673 287.351 46.7544 267.694-0.461886 243.826 13.5351 228.355 22.6066 245.894 63.0795 271.516 76.3283 273.926 77.5955 275.467 80.0609 275.551 82.7816 275.754 90.6409 275.318 98.5034 274.246 106.291 273.924 108.635 271.765 110.274 269.422 109.953 268.367 109.809 267.404 109.277 266.721 108.461 251.704 90.3838 239.335 73.8607 229.489 76.2817 217.381 79.2568 209.204 94.7084 209.076 110.87 208.156 124.236 216.314 136.558 228.978 140.93 233.765 142.841 238.697 144.366 243.727 145.492 254.291 148.035 260.793 158.662 258.249 169.226 258.133 169.703 258.001 170.177 257.85 170.644 256.697 174.193 255.53 177.759 254.349 181.342L253.749 183.168C252.322 187.498 247.655 189.85 243.325 188.422 241.749 187.903 240.366 186.919 239.356 185.601 233.626 176.564 226.061 168.832 217.152 162.906 200.514 151.518 183.259 158.878 178.792 165.405 172.091 175.197 177.868 193.529 190.346 202.07 198.46 207.623 215.404 207.82 228.551 208.845 236.003 209.457 241.549 215.994 240.937 223.446 240.867 224.307 240.714 225.16 240.481 225.992 237.564 236.493 234.952 247.189 232.859 258.143 232.284 261.22 229.324 263.248 226.247 262.673 224.691 262.382 223.328 261.454 222.486 260.114 218.251 253.4 213.043 247.351 207.034 242.163 189.536 226.046 169.131 230.638 163.304 236.964 154.562 246.454 158.944 268.033 172.068 280.121 181.301 288.627 202.046 293.296 216.585 298.124 223.111 300.235 227.627 306.194 227.896 313.049 227.969 315.404 228.079 317.762 228.226 320.121 228.321 322.077 226.811 323.74 224.855 323.835 223.819 323.884 222.814 323.479 222.103 322.725 210.082 310.194 206.956 309.544 193.577 306.94 176.191 303.559 155.665 316.317 153.571 327.077 150.431 343.217 166.77 351.979 178.36 354.236 186.641 355.846 204.85 353.704 220.535 355.543 227.974 356.407 234.1 361.79 235.913 369.056 237.589 375.925 239.466 382.709 241.542 389.406 242.177 391.571 240.937 393.842 238.772 394.477 237.624 394.813 236.386 394.63 235.385 393.976 226.959 387.82 217.19 383.757 206.884 382.12 188.761 379.019 171.201 390.025 166.089 407.686 162.949 423.826 177.066 443.324 194.323 446.681 203.545 448.475 217.543 443.231 230.335 438.3 244.438 432.904 260.329 439.158 266.972 452.718 276.151 471.598 286.82 489.716 298.877 506.901 302.403 511.796 309.229 512.905 314.124 509.38 314.366 509.206 314.6 509.022 314.826 508.829L314.856 508.805C319.214 505.075 319.968 498.619 316.585 493.987 310.127 484.861 304.149 475.405 298.677 465.657 297.273 463.156 298.163 459.99 300.664 458.586 301.765 457.968 303.053 457.772 304.288 458.036 313.597 459.546 323.119 457.206 330.668 451.555 356.376 434.222 347.562 393.419 331.423 390.28 318.286 387.724 305.929 400.126 290.26 417.641 286.699 421.652 280.56 422.017 276.549 418.455 275.454 417.483 274.594 416.277 274.031 414.925 272.084 410.156 270.205 405.29 268.392 400.324 266.145 394.079 269.386 387.195 275.631 384.947 276.26 384.721 276.908 384.547 277.566 384.428 292.908 381.745 307.7 376.545 321.345 369.036 334.199 360.368 342.718 345.275 335.099 327.04 330.373 315.732 310.292 311.047 291.011 324.047 280.419 331.188 276.319 339.59 271.034 345.912 267.305 350.372 260.667 350.964 256.208 347.236 254.258 345.606 252.964 343.326 252.564 340.816 249.889 327.949 248.943 314.783 249.75 301.666 249.778 301.265 249.805 300.827 249.834 300.358Z" fill="#196B24" fill-rule="nonzero" fill-opacity="1" transform="matrix(1 0 0 1.17451 -66.8463 72)"/><path d="M88.7403 103.522C88.7403 117.424 77.4712 128.693 63.5701 128.693 49.6689 128.693 38.3999 117.424 38.3999 103.522 38.3999 89.6213 49.6689 78.3522 63.5701 78.3522 77.4712 78.3522 88.7403 89.6213 88.7403 103.522Z" fill="#196B24" fill-rule="nonzero" fill-opacity="1" transform="matrix(1 0 0 1.17451 -66.8463 72)"/><path d="M145.629 151.358C145.629 160.625 138.116 168.138 128.849 168.138 119.581 168.138 112.068 160.625 112.068 151.358 112.068 142.09 119.581 134.577 128.849 134.577 138.116 134.577 145.629 142.09 145.629 151.358Z" fill="#196B24" fill-rule="nonzero" fill-opacity="1" transform="matrix(1 0 0 1.17451 -66.8463 72)"/><path d="M101.116 214.875C101.116 223.012 94.5199 229.609 86.3827 229.609 78.2454 229.609 71.6489 223.012 71.6489 214.875 71.6489 206.738 78.2454 200.141 86.3827 200.141 94.5199 200.141 101.116 206.738 101.116 214.875Z" fill="#196B24" fill-rule="nonzero" fill-opacity="1" transform="matrix(1 0 0 1.17451 -66.8463 72)"/><path d="M432.929 284.367C432.929 296.446 423.137 306.239 411.057 306.239 398.978 306.239 389.186 296.446 389.186 284.367 389.186 272.287 398.978 262.495 411.057 262.495 423.137 262.495 432.929 272.287 432.929 284.367Z" fill="#196B24" fill-rule="nonzero" fill-opacity="1" transform="matrix(1 0 0 1.17451 -66.8463 72)"/><path d="M482.363 325.933C482.363 333.986 475.835 340.514 467.782 340.514 459.729 340.514 453.201 333.986 453.201 325.933 453.201 317.88 459.729 311.351 467.782 311.351 475.835 311.351 482.363 317.88 482.363 325.933Z" fill="#196B24" fill-rule="nonzero" fill-opacity="1" transform="matrix(1 0 0 1.17451 -66.8463 72)"/><path d="M443.684 381.127C443.684 388.198 437.952 393.93 430.881 393.93 423.81 393.93 418.078 388.198 418.078 381.127 418.078 374.056 423.81 368.324 430.881 368.324 437.952 368.324 443.684 374.056 443.684 381.127Z" fill="#196B24" fill-rule="nonzero" fill-opacity="1" transform="matrix(1 0 0 1.17451 -66.8463 72)"/></g></g></g></g></svg>