<svg width="96" height="96" xmlns="http://www.w3.org/2000/svg" xmlns:xlink="http://www.w3.org/1999/xlink" xml:space="preserve" overflow="hidden"><g transform="translate(-528 -264)"><g><path d="M562 288 568 288 568 303 562 303Z" fill="#FFFFFF" fill-rule="nonzero" fill-opacity="1"/><path d="M594 307 558 307 558 284 594 284 594 307ZM576 333C570.5 333 566 328.5 566 323 566 317.5 570.5 313 576 313 581.5 313 586 317.5 586 323 586 328.5 581.5 333 576 333ZM606 278 594 278 558 278 552 278 542 288 542 342C542 344.2 543.8 346 546 346L606 346C608.2 346 610 344.2 610 342L610 282C610 279.8 608.2 278 606 278Z" fill="#FFFFFF" fill-rule="nonzero" fill-opacity="1"/><path d="M573 320 579 320 579 326 573 326Z" fill="#FFFFFF" fill-rule="nonzero" fill-opacity="1"/></g></g></svg>