<svg width="97" height="97" xmlns="http://www.w3.org/2000/svg" xmlns:xlink="http://www.w3.org/1999/xlink" xml:space="preserve" overflow="hidden"><g transform="translate(-605 -49)"><g><g><g><g><path d="M691.5 125.6 679 113.1C677.3 111.4 675 110.8 672.8 111.2L668.4 106.8C672.3 101.8 674.6 95.4 674.6 88.6 674.6 72.1 661.1 58.6 644.6 58.6 628.1 58.6 614.6 72.1 614.6 88.6 614.6 105.1 628.1 118.6 644.6 118.6 651.4 118.6 657.7 116.3 662.8 112.4L667.2 116.8C666.8 119 667.4 121.3 669.1 123L681.6 135.5C683 136.9 684.8 137.6 686.6 137.6 688.4 137.6 690.2 136.9 691.6 135.5 694.2 132.7 694.2 128.3 691.5 125.6ZM644.5 112.5C631.3 112.5 620.5 101.7 620.5 88.5 620.5 75.3 631.3 64.5 644.5 64.5 657.7 64.5 668.5 75.3 668.5 88.5 668.5 101.7 657.7 112.5 644.5 112.5Z" fill="#FFFFFF" fill-rule="nonzero" fill-opacity="1"/></g></g></g></g></g></svg>