<svg width="9469" height="3996" xmlns="http://www.w3.org/2000/svg" xmlns:xlink="http://www.w3.org/1999/xlink" xml:space="preserve" overflow="hidden"><defs><clipPath id="clip0"><path d="M585.122 4.58048-773.05 598.19 213.287 2854.92 1571.46 2261.31Z" fill-rule="nonzero" clip-rule="nonzero"/></clipPath><clipPath id="clip1"><path d="M585.122 4.58048-773.05 598.19 213.287 2854.92 1571.46 2261.31Z" fill-rule="evenodd" clip-rule="evenodd"/></clipPath><clipPath id="clip2"><path d="M585.122 4.58048-773.05 598.19 213.287 2854.92 1571.46 2261.31Z" fill-rule="evenodd" clip-rule="evenodd"/></clipPath><clipPath id="clip3"><path d="M788.824 895.241 1705.95 1125.29 1323.71 2649.18 406.586 2419.13Z" fill-rule="nonzero" clip-rule="nonzero"/></clipPath><clipPath id="clip4"><path d="M788.824 895.241 1705.95 1125.29 1323.71 2649.18 406.586 2419.13Z" fill-rule="evenodd" clip-rule="evenodd"/></clipPath><clipPath id="clip5"><path d="M788.824 895.241 1705.95 1125.29 1323.71 2649.18 406.586 2419.13Z" fill-rule="evenodd" clip-rule="evenodd"/></clipPath><clipPath id="clip6"><path d="M5881.65-116.092 7202.95 555.607 6086.86 2751.06 4765.56 2079.37Z" fill-rule="nonzero" clip-rule="nonzero"/></clipPath><clipPath id="clip7"><path d="M5881.65-116.092 7202.95 555.607 6086.86 2751.06 4765.56 2079.37Z" fill-rule="evenodd" clip-rule="evenodd"/></clipPath><clipPath id="clip8"><path d="M5881.65-116.092 7202.95 555.607 6086.86 2751.06 4765.56 2079.37Z" fill-rule="evenodd" clip-rule="evenodd"/></clipPath></defs><g transform="translate(2264 1141)"><g><g><g><g><path d="M862.284 1208.5C879.445 1178.43 907.489 1193.21 911.819 1115.83 915.191 1054.66 811.294 1028.69 811.949 964.023 812.509 908.847 905.236 911.995 915.574 859.951 922.397 825.66 852.409 775.133 865.528 744.294 878.646 713.454 940.23 709.938 978.021 680.377 1016.37 650.464 952.358 615.805 952.231 584.502 952.103 553.199 1066.31 538.706 1079.17 483.53 1092.03 428.354 1055.86 427.491 1046.57 382.126 1037.29 336.761 1126.87 280.882 1140.66 221.807 1149.97 181.859 1089.4 172.895 1077.71 140.569 1064.24 103.321 1143.23 34.1954 1143.23 34.1954 1050.14 23.1698 980.642 53.9617 960.076 78.9371 927.527 118.581 959.118 177.592 932.768 199.084 897.326 227.975 840.089 230.627 818.805 281.745 800.796 324.888 885.278 405.807 842.55 452.818 802.154 497.336 698.29 476.051 672.723 539.121 645.702 605.61 749.95 655.434 713.837 720.66 682.055 778.042 624.466 781.19 614.111 842.869 605.594 893.667 685.251 946.446 667.13 994.959 649.441 1042.32 579.357 1056.88 609.685 1102.82 646.102 1157.96 703.723 1151.04 685.075 1203.92 669.383 1248.36 690.124 1276.69 717.273 1303.76 769.653 1355.96 748.752 1413.84 766.201 1485.79 770.576 1498.43 784.373 1505.14 797.015 1500.76 801.537 1499.2 805.492 1496.33 808.386 1492.52 824.394 1468.11 844.016 1446.27 866.582 1427.75 903.334 1400.46 936.891 1373.43 916.517 1325.49 892.884 1269.82 829.798 1265.42 862.284 1208.5Z" fill="#467F5F" fill-rule="nonzero" fill-opacity="1" transform="matrix(-1 0 0 2.20209 2458 -804)"/><path d="M570.217 1203.68C564.033 1158.43 583.399 1105.44 576.353 1083.64 556.826 1023.24 518.348 1055.47 497.655 1020.35 472.2 977.206 517.214 941.636 501.346 887.835 488.323 843.684 462.789 849.005 401.54 820.259 360.186 800.844 350.551 750.749 324.537 710.146 304.163 678.348 232.433 674.992 232.433 674.992 153.879 682.119 195.265 777.69 219.346 806.421 246.782 839.194 291.732 829.095 298.571 888.41 306.464 957.12 286.858 979.779 311.642 1037.02 338.966 1100.17 395.037 1033.45 410.425 1082.03 424.934 1127.87 378.978 1204.56 407.469 1259.94 443.486 1329.91 522.279 1342.17 563.745 1452.99 569.947 1465.07 584.769 1469.84 596.852 1463.64 600.558 1461.73 603.72 1458.92 606.042 1455.46 633.886 1420.15 653.681 1379.18 664.046 1335.43 676.542 1260.92 576.241 1247.78 570.217 1203.68Z" fill="#467F5F" fill-rule="nonzero" fill-opacity="1" transform="matrix(-1 0 0 2.20209 2458 -804)"/><path d="M1295.02 783.235C1335.73 744.292 1354.19 687.529 1344.18 632.088 1332.12 568.779 1231.85 567.053 1220.71 630.282 1212.18 678.763 1226.77 733.54 1133.82 771.314 1069.36 797.52 1144.51 857.202 1126.9 885.565 1109.29 913.929 1061.88 901.209 1042.39 925.929 1007.92 969.6 1059.12 1003.44 1044.32 1036.92 1026.09 1078.13 987.273 1070.78 956.737 1111.59 931.681 1145.15 931.538 1157.1 955.49 1241.68 966.271 1288.67 970.647 1336.9 968.497 1385.06 968.352 1394.39 975.801 1402.08 985.138 1402.23 991.386 1402.32 997.178 1398.96 1000.2 1393.5 1025.96 1346.47 1062.84 1291.23 1103.04 1269.61 1157.31 1240.45 1126.53 1198.44 1128.46 1147.3 1130.77 1088.69 1200.37 1114.47 1233.19 1078.59 1270.52 1037.93 1207.88 1006.9 1221.14 961.195 1236.93 906.786 1303.79 938.441 1322.92 903.67 1355.5 844.323 1238.77 838.475 1295.02 783.235Z" fill="#467F5F" fill-rule="nonzero" fill-opacity="1" transform="matrix(-1 0 0 2.20209 2458 -804)"/><path d="M354.945 280.37C395.47 280.37 428.322 247.519 428.322 206.994 428.322 166.469 395.47 133.618 354.945 133.618 314.421 133.618 281.569 166.469 281.569 206.994 281.569 247.519 314.421 280.37 354.945 280.37Z" fill="#467F5F" fill-rule="nonzero" fill-opacity="1" transform="matrix(-1 0 0 2.20209 2458 -804)"/><path d="M545.257 395.373C572.279 395.382 594.192 373.483 594.201 346.46 594.211 319.438 572.312 297.526 545.289 297.516 518.267 297.507 496.354 319.406 496.345 346.428 496.345 346.433 496.345 346.44 496.345 346.444 496.345 373.46 518.241 395.363 545.257 395.373Z" fill="#467F5F" fill-rule="nonzero" fill-opacity="1" transform="matrix(-1 0 0 2.20209 2458 -804)"/><path d="M378.499 531.627C378.489 555.358 397.72 574.601 421.451 574.611 445.181 574.62 464.425 555.39 464.435 531.659 464.444 507.928 445.213 488.685 421.483 488.675 421.478 488.675 421.471 488.675 421.467 488.675 397.742 488.675 378.508 507.903 378.499 531.627Z" fill="#467F5F" fill-rule="nonzero" fill-opacity="1" transform="matrix(-1 0 0 2.20209 2458 -804)"/></g></g></g><g clip-path="url(#clip0)"><g clip-path="url(#clip1)"><g clip-path="url(#clip2)"><path d="M703.773 846.098C704.528 833.844 715.075 824.521 727.332 825.278 730.839 825.494 734.247 826.539 737.273 828.327 751.869 836.695 766.998 844.099 782.562 850.489 842.817 875.73 864.581 847.594 873.719 800.626 883.202 751.883 865.633 717.049 814.846 712.767 779.345 709.773 764.406 720.663 738.042 736.043 732.132 739.475 724.557 737.465 721.125 731.554 719.615 728.954 719.104 725.893 719.686 722.942 723.183 706.361 727.115 689.938 731.367 673.653 740.242 639.574 775.064 619.141 809.144 628.016 817.995 630.321 826.246 634.502 833.337 640.277 841.25 646.632 849.628 652.945 858.581 658.834 905.097 689.42 943.102 666.806 966.653 630.031 988.295 596.233 950.532 523.275 888.675 508.23 843.629 497.271 823.317 518.828 797.682 525.511 790.808 527.371 783.729 523.306 781.87 516.433 781.218 514.026 781.279 511.482 782.044 509.11 788.955 487.955 795.698 466.989 801.977 446.179 804.84 437.142 814.485 432.136 823.521 434.999 825.685 435.684 827.692 436.791 829.426 438.258 853.653 457.58 886.214 462.84 915.292 452.129 988.138 429.535 989.78 329.466 952.03 311.307 925.178 298.394 893.286 312.233 853.4 335.822 846.549 339.841 837.738 337.544 833.719 330.695 832.036 327.824 831.399 324.458 831.92 321.171 834.841 302.603 836.754 283.89 837.651 265.115 838.045 253.68 846.846 244.304 858.234 243.188 905.562 238.827 922.967 234.171 942.437 214.423 966.204 190.318 999.345 147.689 969.894 114.479 940.439 81.2623 858.432 83.3317 820.936 157.41 820.936 157.41 820.621 158.341 820.192 159.63 809.459 131.706 754.086-1.30112 686.85 38.1279 643.269 63.6821 692.675 177.693 764.854 215.014 771.641 218.584 775.981 225.529 776.217 233.193 776.792 255.333 775.563 277.481 772.541 299.42 771.636 306.02 765.553 310.638 758.952 309.735 755.982 309.327 753.269 307.83 751.344 305.532 709.043 254.608 674.2 208.063 646.462 214.883 612.357 223.264 589.321 266.79 588.961 312.318 586.368 349.968 609.349 384.679 645.023 396.997 658.508 402.379 672.403 406.676 686.572 409.846 716.331 417.011 734.645 446.945 727.478 476.704 727.154 478.048 726.78 479.382 726.356 480.699 723.109 490.695 719.82 500.74 716.493 510.835L714.804 515.979C710.783 528.175 697.636 534.802 685.44 530.78 681 529.316 677.102 526.545 674.258 522.832 658.116 497.376 636.806 475.595 611.71 458.9 564.841 426.82 516.236 447.553 503.652 465.94 484.774 493.525 501.048 545.164 536.198 569.225 559.055 584.868 606.786 585.424 643.822 588.311 664.814 590.034 680.436 608.448 678.713 629.441 678.514 631.867 678.083 634.268 677.427 636.611 669.211 666.193 661.853 696.325 655.956 727.18 654.336 735.848 645.997 741.561 637.331 739.941 632.948 739.123 629.108 736.509 626.738 732.732 614.806 713.819 600.136 696.779 583.208 682.167 533.916 636.764 476.438 649.7 460.022 667.519 435.397 694.253 447.741 755.04 484.711 789.093 510.719 813.052 569.156 826.206 610.113 839.806 628.498 845.754 641.219 862.54 641.975 881.849 642.182 888.484 642.491 895.125 642.905 901.771 643.172 907.282 638.92 911.965 633.409 912.232 630.493 912.372 627.659 911.23 625.657 909.105 591.794 873.807 582.989 871.975 545.3 864.642 496.325 855.115 438.502 891.055 432.606 921.365 423.759 966.832 469.786 991.514 502.436 997.871 525.761 1002.41 577.057 996.373 621.239 1001.55 642.196 1003.99 659.452 1019.15 664.561 1039.62 669.282 1058.97 674.567 1078.08 680.416 1096.94 682.205 1103.04 678.711 1109.44 672.613 1111.23 669.379 1112.18 665.893 1111.66 663.072 1109.82 639.336 1092.48 611.816 1081.03 582.785 1076.42 531.734 1067.69 482.267 1098.69 467.869 1148.44 459.023 1193.9 498.789 1248.83 547.401 1258.29 573.38 1263.34 612.812 1248.57 648.846 1234.68 688.574 1219.48 733.339 1237.09 752.052 1275.29 777.908 1328.48 807.962 1379.52 841.928 1427.92 851.86 1441.71 871.089 1444.84 884.879 1434.91 885.558 1434.42 886.217 1433.9 886.855 1433.36L886.938 1433.29C899.216 1422.78 901.339 1404.59 891.811 1391.54 873.618 1365.84 856.78 1339.2 841.364 1311.74 837.409 1304.7 839.915 1295.78 846.96 1291.82 850.062 1290.08 853.692 1289.53 857.17 1290.27 883.392 1294.53 910.217 1287.94 931.482 1272.02 1003.9 1223.19 979.073 1108.25 933.607 1099.41 896.602 1092.21 861.791 1127.14 817.653 1176.48 807.622 1187.78 790.329 1188.81 779.03 1178.78 775.946 1176.04 773.521 1172.64 771.936 1168.83 766.453 1155.4 761.159 1141.69 756.053 1127.7 749.722 1110.11 758.852 1090.72 776.443 1084.38 778.217 1083.75 780.04 1083.26 781.896 1082.92 825.112 1075.37 866.781 1060.71 905.218 1039.56 941.427 1015.15 965.427 972.63 943.964 921.263 930.65 889.407 874.081 876.209 819.769 912.831 789.933 932.946 778.382 956.615 763.493 974.422 752.991 986.986 734.292 988.655 721.73 978.153 716.238 973.561 712.591 967.138 711.466 960.068 703.931 923.823 701.264 886.733 703.539 849.784 703.616 848.655 703.693 847.42 703.773 846.098Z" fill="#467F5F" fill-rule="nonzero" fill-opacity="1" transform="matrix(-0.916304 0.400484 0.665442 1.52252 585.122 4.58048)"/><path d="M249.979 291.619C249.979 330.778 218.234 362.523 179.075 362.523 139.916 362.523 108.171 330.778 108.171 291.619 108.171 252.46 139.916 220.716 179.075 220.716 218.234 220.716 249.979 252.46 249.979 291.619Z" fill="#467F5F" fill-rule="nonzero" fill-opacity="1" transform="matrix(-0.916304 0.400484 0.665442 1.52252 585.122 4.58048)"/><path d="M410.232 426.369C410.232 452.475 389.068 473.639 362.962 473.639 336.856 473.639 315.693 452.475 315.693 426.369 315.693 400.263 336.857 379.1 362.962 379.1 389.068 379.1 410.232 400.263 410.232 426.369Z" fill="#467F5F" fill-rule="nonzero" fill-opacity="1" transform="matrix(-0.916304 0.400484 0.665442 1.52252 585.122 4.58048)"/><path d="M284.842 605.296C284.842 628.219 266.26 646.801 243.337 646.801 220.415 646.801 201.833 628.219 201.833 605.296 201.833 582.374 220.415 563.792 243.337 563.792 266.26 563.792 284.842 582.374 284.842 605.296Z" fill="#467F5F" fill-rule="nonzero" fill-opacity="1" transform="matrix(-0.916304 0.400484 0.665442 1.52252 585.122 4.58048)"/><path d="M1219.55 801.052C1219.55 835.08 1191.96 862.665 1157.94 862.665 1123.91 862.665 1096.32 835.08 1096.32 801.052 1096.32 767.025 1123.91 739.44 1157.94 739.44 1191.96 739.44 1219.55 767.025 1219.55 801.052Z" fill="#467F5F" fill-rule="nonzero" fill-opacity="1" transform="matrix(-0.916304 0.400484 0.665442 1.52252 585.122 4.58048)"/><path d="M1358.8 918.142C1358.8 940.827 1340.41 959.217 1317.73 959.217 1295.04 959.217 1276.65 940.827 1276.65 918.142 1276.65 895.457 1295.04 877.067 1317.73 877.067 1340.41 877.067 1358.8 895.457 1358.8 918.142Z" fill="#467F5F" fill-rule="nonzero" fill-opacity="1" transform="matrix(-0.916304 0.400484 0.665442 1.52252 585.122 4.58048)"/><path d="M1249.84 1073.62C1249.84 1093.54 1233.7 1109.69 1213.78 1109.69 1193.86 1109.69 1177.71 1093.54 1177.71 1073.62 1177.71 1053.7 1193.86 1037.56 1213.78 1037.56 1233.7 1037.56 1249.84 1053.7 1249.84 1073.62Z" fill="#467F5F" fill-rule="nonzero" fill-opacity="1" transform="matrix(-0.916304 0.400484 0.665442 1.52252 585.122 4.58048)"/></g></g></g><g><g><g><path d="M812.588 573.463C871.926 546.621 965.312 583.761 1024.11 576.712 1082.92 569.661 1097.19 555.355 1110.66 537.937 1124.12 520.513 1104.3 478.012 1086.12 484.518 1067.95 491.025 1032.13 494.416 1017.37 471.842 1002.6 449.27 1073.29 429.204 1096.81 414.018 1120.34 398.835 1103.51 375.448 1095.33 360.194 1087.15 344.944 1039.62 300.676 1032.67 340.266 1025.72 379.853 1003.05 406.253 981.349 405.343 959.648 404.429 979.754 349.203 996.317 330.504 1012.88 311.806 977.606 290.914 951.478 279.95 925.35 268.982 854.657 263.801 886.195 299.049 917.734 334.301 931.299 384.53 920.675 398.835 910.05 413.137 878.176 371.177 871.227 353.28 864.278 335.383 837.015 338.097 823.116 347.856 809.218 357.618 791.576 371.718 814.563 387.988 841.47 410.738 857.411 443.872 858.397 479.094 857.863 512.719 846.045 511.006 797.089 528.192 767.319 540.102 738.792 554.912 711.922 572.408 706.161 576.133 698.472 574.483 694.747 568.724 692.646 565.473 692.179 561.429 693.486 557.787 694.577 554.696 695.491 552.111 696.099 550.393 714.362 502.697 728.884 453.651 739.53 403.7 775.44 315.45 826.804 141.129 759.485 118.239 710.951 101.736 733.5 179.75 721.977 195.206 710.455 210.661 704.036 177.005 691.727 145.856 679.42 114.708 667.918 109.452 648.121 108.354 628.324 107.256 614.711 105.687 601.099 137.07 587.489 168.451 710.608 262.6 689.227 279.958 667.845 297.315 621.516 258.836 589.963 219.919 558.41 181.006 502.727 143.345 474.887 219.919 447.044 296.493 520.049 275.154 554.078 279.489 578.979 281.168 597.806 302.714 596.128 327.615 595.951 330.244 595.544 332.853 594.912 335.41 589.343 358.004 564.076 340.43 534.204 327.876 504.33 315.324 479.835 341.685 497.159 374.323 513.069 404.3 652.201 391.708 665.158 470.168 666.714 481.176 665.553 492.398 661.774 502.854 655.824 520.484 649.676 537.872 643.692 554.785 622.511 614.65 615.717 627.254 605.095 676.9 605.047 677.124 604.819 678.493 604.473 680.626 602.423 693.012 590.72 701.391 578.333 699.341 574.481 698.703 570.859 697.083 567.814 694.638 550.742 681.427 532.663 669.567 513.744 659.169 474.343 631.007 463.438 594.602 451.215 551.14 438.876 507.279 454.704 430.48 454.068 404.326 453.429 378.168 420.131 374.738 394.592 378.251 369.054 381.76 347.491 391.851 345.847 420.633 344.203 449.413 461.581 612.164 409.462 619.432 357.345 626.702 299.26 503.01 288.914 452.416 281.592 416.615 251.027 413.062 222.032 427.079 183.478 445.722 239.066 471.458 229.832 485.742 210.236 516.053 163.839 449.252 146.019 463.674 116.32 487.712 81.4427 524.884 130.417 533.179 208.777 546.454 267.454 626.582 259.721 641.346 251.988 656.113 193.224 645.74 158.728 613.711 124.232 581.682 96.0332 595.144 81.0755 623.303 66.1178 651.461 99.3423 665.349 125.181 661.35 151.018 657.352 196.916 687.042 185.346 712.314 173.777 737.587 103.565 698.176 74.3153 690.87 45.0653 683.563 35.4867 733.42 32.9372 758.242 30.3862 783.058 64.6674 844.716 90.0575 820.777 115.447 796.842 187.619 766.895 204.874 811.718 222.132 856.538 151.536 854.943 123.005 874.813 107.96 885.294 106.724 900.779 122.716 927.495 138.71 954.208 166.981 931.017 173.142 971.565 177.706 1001.63 231.71 993.678 227.941 962.831 225.759 928.234 231.017 893.571 243.361 861.177 249.189 845.689 266.47 837.859 281.958 843.687 285.598 845.056 288.937 847.122 291.788 849.768 308.687 864.262 288.409 923.115 345.504 922.612 402.601 922.103 363.693 816.86 380.588 777.388 397.484 737.915 425.719 730.012 459.068 724.661 478.864 720.43 499.371 720.852 518.975 725.895 531.425 729.225 542.88 735.529 552.354 744.266 578.64 766.62 596.465 797.312 602.856 831.221 608.323 868.087 616.278 904.54 626.668 940.331 626.891 941.406 627.188 942.462 627.557 943.495 638.232 981.388 652.13 1018.3 669.1 1053.82 675.03 1065.67 689.446 1070.47 701.297 1064.54 702.662 1063.86 703.958 1063.05 705.167 1062.12 714.336 1054.76 717.025 1041.95 711.586 1031.53 708.065 1024.45 704.417 1016.42 700.724 1007.62 676.878 952.592 685.09 888.923 722.118 841.747L722.98 840.685C748.711 807.961 792.96 796.164 831.568 811.732 885.502 834.643 930.941 894.068 946.45 916.287 970.359 950.546 1002.84 975.36 1028.91 957.416 1045.13 946.249 1058.53 930.124 1042.13 915.046 1029.69 903.61 1019.92 901.136 1015.5 873.299 1013.69 861.863 1049.04 868.422 1059.16 866.552 1083.23 862.103 1074.73 823.541 1069.18 809.25 1065.92 798.274 1054.38 792.014 1043.41 795.27 1041.68 795.782 1040.03 796.516 1038.5 797.454 1024.17 806.894 1021.44 830.033 992.277 832.316 963.12 834.6 958.989 806.938 965.049 790.362 974.612 764.196 1041.43 767.732 1052.3 760.967 1063.18 754.203 1073.7 741.616 1065.82 711.922 1056.12 681.065 1026.03 661.302 993.86 664.655 964.284 669.681 961.046 718.066 938.209 702.959 917.215 689.07 926.076 673.854 931.075 655.364 935.821 637.824 898.838 630.372 875.398 627.059 851.96 623.745 841.603 628.99 837.214 646.594 833.684 660.75 867.065 699.21 847.98 719.8L841.905 725.604C784.046 735.176 726.335 757.69 681.76 815.275 675.399 823.552 663.532 825.104 655.256 818.744 651.253 815.666 648.646 811.115 648.019 806.103 644.814 780.126 643.998 753.91 645.58 727.785 645.773 724.798 646.231 721.834 646.952 718.929 663.065 655.738 741.217 602.485 812.588 573.463Z" fill="#467F5F" fill-rule="nonzero" fill-opacity="1" transform="matrix(1 0 0 1.34318 2613 987)"/></g></g></g><g><g><g><path d="M936.483 1312.5C955.121 1279.84 985.578 1295.89 990.281 1211.84 993.943 1145.41 881.106 1117.21 881.817 1046.98 882.425 987.053 983.131 990.472 994.359 933.949 1001.77 896.707 925.758 841.833 940.006 808.34 954.254 774.846 1021.14 771.028 1062.18 738.923 1103.83 706.436 1034.31 668.795 1034.17 634.798 1034.03 600.801 1158.06 585.061 1172.03 525.137 1186 465.213 1146.71 464.276 1136.63 415.008 1126.55 365.739 1223.83 305.052 1238.81 240.893 1248.93 197.508 1183.14 187.772 1170.45 152.665 1155.82 112.212 1241.6 37.1379 1241.6 37.1379 1140.5 25.1635 1065.03 58.605 1042.69 85.7296 1007.34 128.785 1041.65 192.874 1013.03 216.216 974.541 247.592 912.378 250.473 889.262 305.989 869.704 352.845 961.456 440.726 915.051 491.782 871.179 540.131 758.377 517.015 730.61 585.512 701.265 657.723 814.483 711.833 775.263 782.673 740.745 844.992 678.201 848.411 666.955 915.398 657.706 970.567 744.216 1027.89 724.536 1080.57 705.326 1132.01 629.21 1147.82 662.148 1197.72 701.698 1257.6 764.278 1250.09 744.025 1307.52 726.983 1355.78 749.509 1386.55 778.994 1415.94 835.881 1472.64 813.182 1535.5 832.132 1613.64 836.884 1627.37 851.867 1634.65 865.598 1629.9 870.509 1628.2 874.805 1625.09 877.947 1620.95 895.333 1594.44 916.644 1570.72 941.151 1550.61 981.066 1520.97 1017.51 1491.61 995.383 1439.55 969.716 1379.08 901.202 1374.31 936.483 1312.5Z" fill="#467F5F" fill-rule="nonzero" fill-opacity="1" transform="matrix(1 0 0 2.20288 3032 -1096)"/><path d="M619.284 1307.25C612.567 1258.11 633.601 1200.56 625.948 1176.89 604.741 1111.29 562.952 1146.29 540.478 1108.15 512.833 1061.29 561.72 1022.66 544.487 964.232 530.343 916.283 502.611 922.062 436.093 890.841 391.18 869.756 380.716 815.351 352.463 771.254 330.337 736.719 252.434 733.075 252.434 733.075 167.121 740.815 212.068 844.61 238.221 875.813 268.018 911.406 316.835 900.438 324.263 964.857 332.836 1039.48 311.542 1064.09 338.458 1126.25 368.134 1194.83 429.03 1122.38 445.742 1175.14 461.499 1224.93 411.589 1308.21 442.531 1368.36 481.648 1444.35 567.221 1457.66 612.255 1578.01 618.99 1591.14 635.088 1596.32 648.211 1589.58 652.236 1587.51 655.67 1584.46 658.191 1580.7 688.431 1542.35 709.93 1497.86 721.187 1450.34 734.758 1369.42 625.826 1355.15 619.284 1307.25Z" fill="#467F5F" fill-rule="nonzero" fill-opacity="1" transform="matrix(1 0 0 2.20288 3032 -1096)"/><path d="M1406.45 850.632C1450.66 808.338 1470.72 746.691 1459.85 686.479 1446.75 617.722 1337.85 615.847 1325.75 684.518 1316.49 737.17 1332.33 796.66 1231.38 837.686 1161.38 866.147 1242.99 930.964 1223.87 961.768 1204.74 992.572 1153.25 978.758 1132.08 1005.6 1094.65 1053.03 1150.25 1089.79 1134.18 1126.15 1114.38 1170.9 1072.23 1162.92 1039.06 1207.24 1011.85 1243.69 1011.7 1256.67 1037.71 1348.52 1049.42 1399.55 1054.17 1451.94 1051.84 1504.24 1051.68 1514.38 1059.77 1522.73 1069.91 1522.89 1076.69 1522.99 1082.99 1519.35 1086.27 1513.4 1114.24 1462.33 1154.3 1402.34 1197.96 1378.86 1256.89 1347.19 1223.47 1301.56 1225.57 1246.03 1228.07 1182.37 1303.66 1210.37 1339.31 1171.41 1379.85 1127.24 1311.82 1093.54 1326.22 1043.91 1343.37 984.814 1415.98 1019.19 1436.75 981.43 1472.14 916.977 1345.36 910.625 1406.45 850.632Z" fill="#467F5F" fill-rule="nonzero" fill-opacity="1" transform="matrix(1 0 0 2.20288 3032 -1096)"/><path d="M385.488 304.496C429.5 304.496 465.178 268.818 465.178 224.806 465.178 180.794 429.5 145.116 385.488 145.116 341.476 145.116 305.798 180.794 305.798 224.806 305.798 268.818 341.476 304.496 385.488 304.496Z" fill="#467F5F" fill-rule="nonzero" fill-opacity="1" transform="matrix(1 0 0 2.20288 3032 -1096)"/><path d="M592.176 429.394C621.524 429.405 645.322 405.621 645.332 376.273 645.342 346.925 621.559 323.128 592.211 323.117 562.863 323.107 539.066 346.891 539.055 376.238 539.055 376.244 539.055 376.251 539.055 376.256 539.055 405.596 562.836 429.384 592.176 429.394Z" fill="#467F5F" fill-rule="nonzero" fill-opacity="1" transform="matrix(1 0 0 2.20288 3032 -1096)"/><path d="M411.068 577.373C411.058 603.146 431.944 624.045 457.716 624.056 483.489 624.066 504.388 603.181 504.399 577.408 504.409 551.635 483.524 530.736 457.751 530.725 457.746 530.725 457.739 530.725 457.734 530.725 431.968 530.725 411.079 551.607 411.068 577.373Z" fill="#467F5F" fill-rule="nonzero" fill-opacity="1" transform="matrix(1 0 0 2.20288 3032 -1096)"/></g></g></g><g><g><g><path d="M703.664 845.967C704.419 833.714 714.965 824.393 727.219 825.15 730.726 825.366 734.133 826.411 737.159 828.199 751.752 836.566 766.879 843.968 782.44 850.358 842.687 875.595 864.447 847.463 873.583 800.502 883.065 751.766 865.499 716.938 814.72 712.657 779.225 709.663 764.287 720.551 737.928 735.929 732.018 739.36 724.445 737.351 721.013 731.441 719.503 728.841 718.992 725.78 719.574 722.83 723.071 706.252 727.003 689.831 731.254 673.549 740.128 639.475 774.944 619.045 809.019 627.919 817.868 630.224 826.118 634.404 833.208 640.178 841.12 646.532 849.496 652.844 858.448 658.732 904.957 689.314 942.956 666.702 966.503 629.933 988.142 596.141 950.385 523.194 888.538 508.151 843.499 497.194 823.189 518.748 797.558 525.429 790.686 527.289 783.607 523.225 781.749 516.354 781.097 513.947 781.158 511.403 781.923 509.031 788.833 487.879 795.575 466.916 801.853 446.11 804.715 437.074 814.359 432.069 823.393 434.931 825.557 435.617 827.564 436.724 829.298 438.19 853.521 457.509 886.077 462.768 915.15 452.059 987.984 429.468 989.627 329.415 951.882 311.259 925.035 298.348 893.147 312.185 853.268 335.77 846.418 339.789 837.608 337.492 833.589 330.643 831.907 327.774 831.271 324.408 831.791 321.122 834.712 302.556 836.624 283.846 837.521 265.074 837.915 253.641 846.714 244.266 858.101 243.15 905.422 238.79 922.824 234.134 942.291 214.39 966.054 190.289 999.191 147.666 969.744 114.461 940.293 81.2497 858.299 83.3188 820.809 157.385 820.809 157.385 820.494 158.316 820.065 159.605 809.334 131.685 753.969-1.30092 686.743 38.122 643.169 63.6723 692.568 177.666 764.735 214.981 771.521 218.55 775.861 225.494 776.097 233.157 776.671 255.293 775.443 277.438 772.421 299.373 771.517 305.973 765.434 310.59 758.835 309.687 755.865 309.279 753.152 307.782 751.227 305.485 708.933 254.569 674.095 208.031 646.362 214.85 612.262 223.229 589.229 266.749 588.87 312.27 586.278 349.914 609.255 384.619 644.923 396.935 658.406 402.317 672.298 406.613 686.465 409.782 716.22 416.947 734.532 446.875 727.366 476.63 727.041 477.974 726.668 479.308 726.243 480.625 722.997 490.619 719.709 500.663 716.382 510.756L714.693 515.9C710.673 528.094 697.528 534.719 685.334 530.698 680.894 529.234 676.998 526.464 674.154 522.751 658.014 497.299 636.707 475.521 611.615 458.829 564.753 426.754 516.156 447.484 503.574 465.868 484.699 493.449 500.97 545.08 536.115 569.137 558.969 584.777 606.692 585.333 643.722 588.22 664.711 589.943 680.331 608.353 678.608 629.344 678.409 631.769 677.978 634.169 677.322 636.513 669.107 666.089 661.75 696.217 655.854 727.068 654.235 735.734 645.897 741.446 637.232 739.827 632.849 739.008 629.01 736.395 626.641 732.619 614.71 713.708 600.043 696.671 583.118 682.061 533.833 636.666 476.364 649.599 459.951 667.416 435.33 694.146 447.672 754.923 484.636 788.97 510.64 812.926 569.068 826.078 610.019 839.676 628.4 845.623 641.119 862.407 641.876 881.713 642.083 888.346 642.391 894.986 642.805 901.632 643.072 907.141 638.821 911.824 633.311 912.091 630.395 912.231 627.562 911.089 625.56 908.965 591.702 873.671 582.898 871.84 545.215 864.508 496.248 854.983 438.434 890.917 432.539 921.222 423.693 966.682 469.714 991.361 502.358 997.716 525.679 1002.25 576.967 996.219 621.143 1001.4 642.096 1003.83 659.349 1018.99 664.458 1039.46 669.179 1058.81 674.463 1077.91 680.31 1096.77 682.1 1102.87 678.606 1109.27 672.508 1111.06 669.276 1112 665.79 1111.49 662.97 1109.65 639.237 1092.31 611.722 1080.86 582.695 1076.25 531.652 1067.52 482.192 1098.52 467.796 1148.26 458.952 1193.72 498.711 1248.64 547.316 1258.09 573.292 1263.15 612.717 1248.38 648.745 1234.49 688.468 1219.29 733.226 1236.9 751.936 1275.1 777.787 1328.27 807.837 1379.3 841.798 1427.7 851.729 1441.49 870.954 1444.61 884.742 1434.69 885.421 1434.19 886.08 1433.68 886.718 1433.13L886.801 1433.06C899.077 1422.56 901.2 1404.38 891.673 1391.33 873.483 1365.63 856.647 1338.99 841.234 1311.54 837.279 1304.49 839.784 1295.58 846.829 1291.62 849.93 1289.88 853.559 1289.33 857.037 1290.07 883.255 1294.33 910.076 1287.74 931.338 1271.82 1003.74 1223 978.921 1108.08 933.462 1099.24 896.463 1092.04 861.658 1126.97 817.527 1176.3 807.497 1187.6 790.207 1188.62 778.91 1178.59 775.825 1175.86 773.402 1172.46 771.816 1168.65 766.334 1155.22 761.041 1141.51 755.936 1127.53 749.606 1109.94 758.735 1090.55 776.323 1084.22 778.096 1083.58 779.919 1083.09 781.775 1082.76 824.985 1075.2 866.647 1060.55 905.077 1039.4 941.281 1014.99 965.277 972.479 943.818 921.12 930.506 889.269 873.946 876.073 819.642 912.69 789.81 932.802 778.261 956.467 763.375 974.271 752.874 986.833 734.178 988.502 721.618 978.001 716.127 973.41 712.481 966.988 711.355 959.919 703.822 923.68 701.156 886.596 703.43 849.652 703.507 848.524 703.584 847.289 703.664 845.967Z" fill="#467F5F" fill-rule="nonzero" fill-opacity="1" transform="matrix(1 0 0 1.66194 1808 29.9999)"/><path d="M249.94 291.574C249.94 330.727 218.2 362.467 179.047 362.467 139.894 362.467 108.154 330.727 108.154 291.574 108.154 252.421 139.894 220.682 179.047 220.682 218.2 220.682 249.94 252.421 249.94 291.574Z" fill="#467F5F" fill-rule="nonzero" fill-opacity="1" transform="matrix(1 0 0 1.66194 1808 29.9999)"/><path d="M410.168 426.303C410.168 452.405 389.008 473.565 362.906 473.565 336.804 473.565 315.645 452.405 315.645 426.303 315.645 400.201 336.804 379.042 362.906 379.042 389.008 379.042 410.168 400.202 410.168 426.303Z" fill="#467F5F" fill-rule="nonzero" fill-opacity="1" transform="matrix(1 0 0 1.66194 1808 29.9999)"/><path d="M284.798 605.202C284.798 628.121 266.218 646.701 243.3 646.701 220.381 646.701 201.801 628.121 201.801 605.202 201.801 582.284 220.381 563.704 243.3 563.704 266.218 563.704 284.798 582.284 284.798 605.202Z" fill="#467F5F" fill-rule="nonzero" fill-opacity="1" transform="matrix(1 0 0 1.66194 1808 29.9999)"/><path d="M1219.36 800.928C1219.36 834.951 1191.78 862.531 1157.76 862.531 1123.73 862.531 1096.15 834.951 1096.15 800.928 1096.15 766.906 1123.73 739.326 1157.76 739.326 1191.78 739.326 1219.36 766.906 1219.36 800.928Z" fill="#467F5F" fill-rule="nonzero" fill-opacity="1" transform="matrix(1 0 0 1.66194 1808 29.9999)"/><path d="M1358.59 918C1358.59 940.682 1340.2 959.069 1317.52 959.069 1294.84 959.069 1276.45 940.682 1276.45 918 1276.45 895.319 1294.84 876.932 1317.52 876.932 1340.2 876.932 1358.59 895.319 1358.59 918Z" fill="#467F5F" fill-rule="nonzero" fill-opacity="1" transform="matrix(1 0 0 1.66194 1808 29.9999)"/><path d="M1249.65 1073.46C1249.65 1093.37 1233.51 1109.52 1213.59 1109.52 1193.67 1109.52 1177.53 1093.37 1177.53 1073.46 1177.53 1053.54 1193.67 1037.4 1213.59 1037.4 1233.51 1037.4 1249.65 1053.54 1249.65 1073.46Z" fill="#467F5F" fill-rule="nonzero" fill-opacity="1" transform="matrix(1 0 0 1.66194 1808 29.9999)"/></g></g></g><g><g><g><path d="M678.472 950.89C691.976 927.227 714.041 938.857 717.448 877.967 720.101 829.838 638.352 809.407 638.868 758.524 639.308 715.11 712.268 717.587 720.403 676.637 725.772 649.655 670.702 609.9 681.025 585.634 691.347 561.368 739.803 558.602 769.538 535.342 799.713 511.806 749.346 484.535 749.245 459.905 749.145 435.274 839.003 423.871 849.125 380.456 859.246 337.042 830.781 336.363 823.476 300.669 816.171 264.974 886.655 221.007 897.505 174.525 904.835 143.092 857.171 136.039 847.98 110.604 837.381 81.2965 899.529 26.906 899.529 26.906 826.279 18.2307 771.6 42.4587 755.419 62.1102 729.807 93.3036 754.664 139.735 733.931 156.646 706.045 179.378 661.008 181.465 644.261 221.686 630.092 255.633 696.565 319.302 662.945 356.291 631.16 391.319 549.436 374.572 529.32 424.198 508.059 476.514 590.085 515.716 561.67 567.039 536.662 612.188 491.35 614.665 483.202 663.196 476.501 703.165 539.177 744.694 524.919 782.865 511.001 820.131 455.856 831.585 479.72 867.732 508.373 911.122 553.711 905.677 539.039 947.281 526.692 982.247 543.012 1004.54 564.373 1025.84 605.587 1066.91 589.142 1112.45 602.871 1169.07 606.314 1179.02 617.169 1184.29 627.117 1180.85 630.675 1179.61 633.787 1177.36 636.064 1174.36 648.659 1155.15 664.099 1137.97 681.854 1123.4 710.772 1101.93 737.175 1080.65 721.145 1042.94 702.549 999.132 652.912 995.674 678.472 950.89Z" fill="#467F5F" fill-rule="nonzero" fill-opacity="1" transform="matrix(-1 0 0 2.20298 -1055 29.9999)"/><path d="M448.665 947.093C443.799 911.486 459.037 869.794 453.493 852.645 438.128 805.119 407.853 830.479 391.571 802.844 371.542 768.897 406.96 740.909 394.475 698.576 384.228 663.837 364.137 668.024 315.945 645.406 283.406 630.129 275.825 590.713 255.356 558.766 239.325 533.745 182.886 531.105 182.886 531.105 121.077 536.713 153.641 611.911 172.588 634.517 194.176 660.304 229.544 652.358 234.925 699.029 241.136 753.093 225.709 770.921 245.21 815.957 266.709 865.645 310.828 813.153 322.935 851.375 334.352 887.447 298.192 947.784 320.609 991.362 348.949 1046.42 410.946 1056.06 443.572 1143.26 448.452 1152.76 460.115 1156.51 469.622 1151.64 472.538 1150.14 475.026 1147.92 476.853 1145.2 498.761 1117.42 514.337 1085.19 522.493 1050.76 532.325 992.129 453.405 981.794 448.665 947.093Z" fill="#467F5F" fill-rule="nonzero" fill-opacity="1" transform="matrix(-1 0 0 2.20298 -1055 29.9999)"/><path d="M1018.96 616.274C1050.99 585.633 1065.52 540.97 1057.65 497.347 1048.15 447.533 969.259 446.175 960.495 495.926 953.781 534.072 965.26 577.172 892.124 606.895 841.405 627.514 900.535 674.474 886.68 696.791 872.824 719.108 835.521 709.1 820.182 728.55 793.062 762.912 833.345 789.541 821.703 815.882 807.357 848.307 776.818 842.524 752.791 874.635 733.076 901.038 732.963 910.443 751.81 976.991 760.293 1013.96 763.735 1051.91 762.044 1089.81 761.93 1097.15 767.792 1103.2 775.138 1103.32 780.054 1103.39 784.612 1100.75 786.989 1096.45 807.257 1059.44 836.275 1015.98 867.908 998.969 910.606 976.023 886.391 942.969 887.912 902.735 889.722 856.618 944.49 876.898 970.315 848.672 999.685 816.674 950.399 792.257 960.835 756.299 973.257 713.488 1025.86 738.395 1040.91 711.036 1066.55 664.34 974.703 659.739 1018.96 616.274Z" fill="#467F5F" fill-rule="nonzero" fill-opacity="1" transform="matrix(-1 0 0 2.20298 -1055 29.9999)"/><path d="M279.282 220.604C311.168 220.604 337.017 194.756 337.017 162.87 337.017 130.983 311.168 105.135 279.282 105.135 247.396 105.135 221.547 130.983 221.547 162.87 221.547 194.756 247.396 220.604 279.282 220.604Z" fill="#467F5F" fill-rule="nonzero" fill-opacity="1" transform="matrix(-1 0 0 2.20298 -1055 29.9999)"/><path d="M429.026 311.092C450.288 311.099 467.529 293.868 467.536 272.606 467.544 251.344 450.313 234.103 429.051 234.095 407.789 234.088 390.547 251.319 390.54 272.581 390.54 272.585 390.54 272.59 390.54 272.593 390.54 293.85 407.769 311.084 429.026 311.092Z" fill="#467F5F" fill-rule="nonzero" fill-opacity="1" transform="matrix(-1 0 0 2.20298 -1055 29.9999)"/><path d="M297.815 418.301C297.807 436.973 312.939 452.115 331.611 452.122 350.283 452.13 365.424 436.998 365.432 418.326 365.439 399.654 350.308 384.512 331.636 384.505 331.632 384.505 331.627 384.505 331.623 384.505 312.956 384.505 297.822 399.634 297.815 418.301Z" fill="#467F5F" fill-rule="nonzero" fill-opacity="1" transform="matrix(-1 0 0 2.20298 -1055 29.9999)"/></g></g></g><g><g><g><path d="M712.761 998.946C726.947 974.088 750.128 986.306 753.707 922.338 756.494 871.776 670.613 850.313 671.155 796.859 671.617 751.25 748.265 753.852 756.811 710.833 762.451 682.488 704.598 640.723 715.442 615.231 726.286 589.739 777.191 586.833 808.429 562.397 840.129 537.672 787.216 509.023 787.111 483.147 787.005 457.272 881.405 445.292 892.038 399.684 902.671 354.076 872.767 353.362 865.093 315.864 857.419 278.366 931.465 232.176 942.863 183.345 950.564 150.324 900.491 142.914 890.836 116.194 879.701 85.4051 944.99 28.2658 944.99 28.2658 868.038 19.1521 810.595 44.6045 793.596 65.2492 766.691 98.019 792.804 146.797 771.023 164.563 741.727 188.443 694.415 190.636 676.821 232.889 661.935 268.552 731.768 335.439 696.449 374.298 663.058 411.096 577.204 393.503 556.071 445.636 533.735 500.596 619.907 541.779 590.056 595.696 563.784 643.127 516.182 645.729 507.623 696.713 500.582 738.702 566.426 782.329 551.448 822.43 536.826 861.579 478.894 873.612 503.964 911.586 534.066 957.168 581.695 951.449 566.281 995.155 553.31 1031.89 570.455 1055.31 592.896 1077.68 636.192 1120.83 618.916 1168.67 633.339 1228.15 636.956 1238.6 648.36 1244.14 658.81 1240.52 662.548 1239.23 665.817 1236.86 668.209 1233.71 681.442 1213.53 697.661 1195.48 716.314 1180.18 746.693 1157.62 774.431 1135.27 757.59 1095.64 738.055 1049.63 685.909 1045.99 712.761 998.946Z" fill="#467F5F" fill-rule="nonzero" fill-opacity="1" transform="matrix(-1 0 0 2.20189 5606 -210)"/><path d="M471.339 994.957C466.228 957.551 482.236 913.752 476.411 895.736 460.271 845.809 428.465 872.45 411.36 843.418 390.319 807.755 427.527 778.354 414.411 733.881 403.647 697.387 382.54 701.785 331.912 678.023 297.729 661.975 289.764 620.567 268.261 587.005 251.421 560.72 192.128 557.946 192.128 557.946 127.196 563.837 161.406 642.836 181.311 666.585 203.989 693.675 241.144 685.327 246.798 734.357 253.323 791.153 237.116 809.882 257.602 857.194 280.188 909.393 326.536 854.249 339.256 894.402 351.249 932.297 313.262 995.684 336.812 1041.46 366.584 1099.3 431.714 1109.43 465.99 1201.03 471.116 1211.02 483.368 1214.96 493.356 1209.84 496.419 1208.26 499.033 1205.94 500.952 1203.08 523.968 1173.89 540.33 1140.03 548.899 1103.86 559.227 1042.27 476.319 1031.41 471.339 994.957Z" fill="#467F5F" fill-rule="nonzero" fill-opacity="1" transform="matrix(-1 0 0 2.20189 5606 -210)"/><path d="M1070.46 647.419C1104.11 615.229 1119.37 568.31 1111.1 522.482 1101.13 470.151 1018.24 468.724 1009.04 520.989 1001.98 561.063 1014.04 606.342 937.21 637.566 883.928 659.228 946.047 708.561 931.491 732.006 916.935 755.45 877.746 744.937 861.632 765.37 833.142 801.468 875.461 829.444 863.23 857.115 848.16 891.179 816.077 885.103 790.836 918.838 770.125 946.575 770.006 956.455 789.805 1026.37 798.717 1065.21 802.333 1105.07 800.557 1144.88 800.437 1152.6 806.594 1158.96 814.312 1159.08 819.477 1159.16 824.265 1156.38 826.762 1151.86 848.054 1112.99 878.539 1067.33 911.771 1049.45 956.627 1025.35 931.187 990.625 932.786 948.358 934.688 899.91 992.223 921.215 1019.35 891.562 1050.21 857.947 998.431 832.297 1009.39 794.521 1022.44 749.546 1077.71 775.712 1093.52 746.971 1120.45 697.915 1023.96 693.081 1070.46 647.419Z" fill="#467F5F" fill-rule="nonzero" fill-opacity="1" transform="matrix(-1 0 0 2.20189 5606 -210)"/><path d="M293.397 231.753C326.894 231.753 354.049 204.598 354.049 171.101 354.049 137.603 326.894 110.448 293.397 110.448 259.899 110.448 232.744 137.603 232.744 171.101 232.744 204.598 259.899 231.753 293.397 231.753Z" fill="#467F5F" fill-rule="nonzero" fill-opacity="1" transform="matrix(-1 0 0 2.20189 5606 -210)"/><path d="M450.708 326.814C473.044 326.822 491.157 308.72 491.165 286.383 491.173 264.046 473.071 245.934 450.734 245.926 428.398 245.918 410.285 264.02 410.277 286.357 410.277 286.361 410.277 286.366 410.277 286.37 410.277 308.701 428.377 326.806 450.708 326.814Z" fill="#467F5F" fill-rule="nonzero" fill-opacity="1" transform="matrix(-1 0 0 2.20189 5606 -210)"/><path d="M312.866 439.441C312.858 459.057 328.754 474.964 348.37 474.972 367.985 474.979 383.892 459.083 383.9 439.468 383.908 419.852 368.012 403.945 348.396 403.937 348.392 403.937 348.387 403.937 348.383 403.937 328.773 403.937 312.874 419.831 312.866 439.441Z" fill="#467F5F" fill-rule="nonzero" fill-opacity="1" transform="matrix(-1 0 0 2.20189 5606 -210)"/></g></g></g><g clip-path="url(#clip3)"><g clip-path="url(#clip4)"><g clip-path="url(#clip5)"><path d="M448.949 539.74C449.43 531.923 456.158 525.976 463.977 526.458 466.215 526.596 468.388 527.263 470.319 528.404 479.629 533.742 489.281 538.465 499.209 542.541 537.647 558.643 551.531 540.695 557.36 510.733 563.409 479.638 552.202 457.417 519.804 454.686 497.157 452.776 487.627 459.723 470.809 469.534 467.039 471.723 462.207 470.441 460.017 466.671 459.054 465.012 458.728 463.059 459.099 461.177 461.33 450.599 463.839 440.123 466.551 429.735 472.213 407.995 494.426 394.96 516.167 400.622 521.812 402.092 527.076 404.76 531.6 408.443 536.647 412.497 541.992 416.525 547.703 420.281 577.377 439.793 601.621 425.366 616.644 401.907 630.45 380.347 606.36 333.806 566.901 324.208 538.165 317.217 525.207 330.969 508.854 335.232 504.47 336.419 499.954 333.825 498.768 329.441 498.352 327.906 498.391 326.283 498.879 324.77 503.288 311.274 507.589 297.9 511.595 284.625 513.421 278.86 519.574 275.667 525.337 277.493 526.718 277.93 527.999 278.637 529.105 279.572 544.559 291.898 565.331 295.253 583.88 288.421 630.349 274.007 631.397 210.172 607.316 198.588 590.187 190.351 569.842 199.179 544.398 214.227 540.028 216.79 534.407 215.325 531.843 210.956 530.769 209.125 530.364 206.977 530.695 204.881 532.559 193.036 533.779 181.098 534.352 169.121 534.603 161.827 540.217 155.845 547.482 155.133 577.673 152.352 588.776 149.381 601.196 136.784 616.357 121.407 637.499 94.213 618.711 73.0282 599.922 51.8386 547.608 53.1587 523.689 100.414 523.689 100.414 523.488 101.008 523.214 101.831 516.368 84.0173 481.044-0.830006 438.153 24.3224 410.352 40.6239 441.869 113.353 487.913 137.161 492.243 139.438 495.011 143.869 495.162 148.758 495.528 162.881 494.744 177.01 492.817 191.005 492.24 195.215 488.359 198.161 484.148 197.585 482.253 197.325 480.523 196.37 479.295 194.904 452.31 162.419 430.083 132.727 412.389 137.078 390.633 142.424 375.937 170.19 375.708 199.233 374.054 223.251 388.714 245.393 411.471 253.251 420.073 256.684 428.937 259.425 437.976 261.447 456.959 266.018 468.643 285.113 464.07 304.097 463.864 304.955 463.625 305.806 463.354 306.646 461.283 313.023 459.185 319.431 457.063 325.87L455.985 329.152C453.42 336.932 445.034 341.159 437.254 338.594 434.421 337.66 431.935 335.892 430.121 333.523 419.823 317.284 406.229 303.39 390.22 292.74 360.321 272.276 329.315 285.501 321.288 297.231 309.245 314.828 319.627 347.769 342.05 363.118 356.631 373.097 387.079 373.451 410.705 375.293 424.096 376.392 434.061 388.139 432.962 401.531 432.835 403.078 432.56 404.61 432.142 406.105 426.901 424.975 422.207 444.197 418.445 463.88 417.412 469.41 412.092 473.054 406.564 472.021 403.768 471.499 401.318 469.831 399.806 467.422 392.195 455.357 382.837 444.487 372.038 435.165 340.594 406.202 303.928 414.454 293.456 425.821 277.747 442.876 285.622 481.653 309.205 503.375 325.796 518.66 363.074 527.05 389.202 535.727 400.929 539.521 409.044 550.229 409.527 562.546 409.659 566.779 409.856 571.015 410.12 575.255 410.29 578.77 407.577 581.758 404.062 581.928 402.202 582.018 400.394 581.289 399.117 579.933 377.515 557.416 371.898 556.248 347.856 551.569 316.614 545.492 279.728 568.419 275.966 587.754 270.323 616.758 299.685 632.503 320.512 636.558 335.391 639.452 368.114 635.603 396.299 638.907 409.667 640.461 420.675 650.134 423.934 663.191 426.946 675.534 430.318 687.724 434.049 699.759 435.19 703.649 432.961 707.73 429.071 708.871 427.008 709.476 424.784 709.147 422.985 707.971 407.843 696.909 390.288 689.607 371.768 686.666 339.202 681.094 307.646 700.871 298.461 732.608 292.819 761.611 318.186 796.649 349.196 802.682 365.769 805.906 390.923 796.482 413.91 787.622 439.253 777.924 467.809 789.162 479.747 813.531 496.24 847.458 515.412 880.016 537.08 910.897 543.416 919.692 555.682 921.687 564.479 915.351 564.912 915.038 565.333 914.708 565.74 914.362L565.793 914.317C573.625 907.616 574.979 896.014 568.901 887.69 557.296 871.291 546.554 854.298 536.72 836.781 534.197 832.287 535.795 826.598 540.29 824.075 542.268 822.964 544.584 822.613 546.803 823.087 563.53 825.8 580.643 821.595 594.208 811.44 640.405 780.293 624.567 706.97 595.563 701.33 571.957 696.737 549.751 719.023 521.595 750.498 515.195 757.706 504.164 758.361 496.956 751.96 494.989 750.214 493.442 748.045 492.431 745.616 488.933 737.047 485.556 728.302 482.299 719.379 478.26 708.157 484.084 695.786 495.306 691.746 496.437 691.34 497.601 691.027 498.785 690.815 526.353 685.993 552.934 676.647 577.453 663.154 600.552 647.579 615.862 620.457 602.17 587.689 593.677 567.368 557.591 558.948 522.944 582.31 503.911 595.142 496.543 610.241 487.045 621.6 480.346 629.615 468.417 630.679 460.404 623.98 456.9 621.051 454.574 616.953 453.856 612.443 449.049 589.322 447.348 565.662 448.799 542.091 448.848 541.371 448.898 540.583 448.949 539.74Z" fill="#467F5F" fill-rule="nonzero" fill-opacity="1" transform="matrix(0.969953 0.243294 -0.404255 1.61167 788.824 895.241)"/><path d="M159.465 186.029C159.465 211.009 139.215 231.259 114.235 231.259 89.2547 231.259 69.0042 211.009 69.0042 186.029 69.0042 161.049 89.2547 140.798 114.235 140.798 139.215 140.798 159.465 161.049 159.465 186.029Z" fill="#467F5F" fill-rule="nonzero" fill-opacity="1" transform="matrix(0.969953 0.243294 -0.404255 1.61167 788.824 895.241)"/><path d="M261.694 271.988C261.694 288.642 248.193 302.142 231.54 302.142 214.886 302.142 201.386 288.642 201.386 271.988 201.386 255.335 214.886 241.834 231.54 241.834 248.193 241.834 261.694 255.335 261.694 271.988Z" fill="#467F5F" fill-rule="nonzero" fill-opacity="1" transform="matrix(0.969953 0.243294 -0.404255 1.61167 788.824 895.241)"/><path d="M181.705 386.128C181.705 400.751 169.851 412.605 155.229 412.605 140.606 412.605 128.752 400.751 128.752 386.128 128.752 371.506 140.606 359.652 155.229 359.652 169.851 359.652 181.705 371.506 181.705 386.128Z" fill="#467F5F" fill-rule="nonzero" fill-opacity="1" transform="matrix(0.969953 0.243294 -0.404255 1.61167 788.824 895.241)"/><path d="M777.97 511.005C777.97 532.711 760.373 550.308 738.667 550.308 716.96 550.308 699.363 532.711 699.363 511.005 699.363 489.298 716.96 471.701 738.667 471.701 760.373 471.701 777.97 489.298 777.97 511.005Z" fill="#467F5F" fill-rule="nonzero" fill-opacity="1" transform="matrix(0.969953 0.243294 -0.404255 1.61167 788.824 895.241)"/><path d="M866.802 585.698C866.802 600.169 855.071 611.901 840.6 611.901 826.129 611.901 814.397 600.169 814.397 585.698 814.397 571.227 826.129 559.496 840.6 559.496 855.071 559.496 866.802 571.227 866.802 585.698Z" fill="#467F5F" fill-rule="nonzero" fill-opacity="1" transform="matrix(0.969953 0.243294 -0.404255 1.61167 788.824 895.241)"/><path d="M797.296 684.882C797.296 697.589 786.995 707.889 774.289 707.889 761.583 707.889 751.282 697.589 751.282 684.882 751.282 672.176 761.583 661.875 774.289 661.875 786.995 661.875 797.296 672.176 797.296 684.882Z" fill="#467F5F" fill-rule="nonzero" fill-opacity="1" transform="matrix(0.969953 0.243294 -0.404255 1.61167 788.824 895.241)"/></g></g></g><g><g><g><path d="M812.588 573.463C871.926 546.621 965.311 583.761 1024.11 576.712 1082.92 569.661 1097.19 555.355 1110.66 537.937 1124.12 520.513 1104.3 478.011 1086.12 484.518 1067.95 491.025 1032.13 494.416 1017.37 471.842 1002.6 449.27 1073.29 429.204 1096.81 414.018 1120.34 398.835 1103.51 375.448 1095.33 360.193 1087.15 344.944 1039.62 300.676 1032.67 340.266 1025.72 379.853 1003.05 406.253 981.348 405.343 959.647 404.429 979.754 349.203 996.316 330.504 1012.88 311.806 977.605 290.914 951.478 279.95 925.35 268.981 854.657 263.801 886.194 299.049 917.734 334.301 931.299 384.53 920.675 398.835 910.05 413.137 878.176 371.177 871.227 353.28 864.277 335.383 837.014 338.097 823.116 347.856 809.218 357.618 791.576 371.718 814.563 387.988 841.47 410.738 857.411 443.872 858.397 479.094 857.863 512.719 846.045 511.006 797.089 528.191 767.319 540.102 738.792 554.911 711.922 572.408 706.161 576.133 698.472 574.483 694.747 568.723 692.645 565.473 692.179 561.429 693.486 557.786 694.577 554.696 695.49 552.111 696.098 550.393 714.362 502.697 728.884 453.651 739.529 403.7 775.439 315.45 826.804 141.129 759.485 118.239 710.951 101.736 733.5 179.75 721.977 195.206 710.455 210.661 704.035 177.005 691.727 145.856 679.42 114.708 667.918 109.452 648.121 108.354 628.324 107.256 614.711 105.687 601.099 137.07 587.488 168.451 710.608 262.599 689.227 279.958 667.845 297.315 621.516 258.836 589.963 219.919 558.41 181.006 502.727 143.345 474.887 219.919 447.044 296.493 520.049 275.154 554.078 279.489 578.979 281.168 597.805 302.714 596.128 327.615 595.951 330.243 595.544 332.852 594.912 335.41 589.343 358.004 564.076 340.43 534.204 327.876 504.33 315.324 479.835 341.685 497.159 374.323 513.069 404.3 652.201 391.708 665.158 470.168 666.714 481.176 665.552 492.398 661.773 502.854 655.824 520.483 649.676 537.872 643.692 554.784 622.511 614.65 615.717 627.254 605.095 676.899 605.047 677.124 604.819 678.493 604.473 680.626 602.423 693.012 590.72 701.391 578.333 699.34 574.481 698.702 570.859 697.083 567.813 694.638 550.741 681.427 532.662 669.567 513.744 659.169 474.343 631.007 463.438 594.602 451.215 551.14 438.876 507.279 454.704 430.48 454.068 404.326 453.429 378.168 420.131 374.738 394.592 378.251 369.054 381.76 347.49 391.851 345.847 420.633 344.203 449.413 461.581 612.164 409.462 619.432 357.345 626.701 299.26 503.01 288.914 452.416 281.592 416.615 251.027 413.061 222.031 427.078 183.478 445.722 239.066 471.458 229.832 485.742 210.236 516.053 163.839 449.252 146.019 463.674 116.32 487.712 81.4427 524.884 130.417 533.179 208.777 546.454 267.454 626.582 259.721 641.346 251.987 656.113 193.224 645.74 158.728 613.711 124.232 581.682 96.0332 595.144 81.0755 623.302 66.1177 651.461 99.3423 665.349 125.181 661.35 151.018 657.352 196.916 687.041 185.346 712.314 173.777 737.587 103.565 698.176 74.3153 690.87 45.0652 683.563 35.4866 733.419 32.9372 758.242 30.3862 783.058 64.6674 844.715 90.0575 820.777 115.447 796.842 187.619 766.894 204.874 811.717 222.132 856.538 151.536 854.942 123.005 874.813 107.96 885.294 106.723 900.778 122.716 927.495 138.71 954.208 166.981 931.016 173.142 971.565 177.706 1001.63 231.709 993.677 227.941 962.831 225.759 928.233 231.016 893.57 243.361 861.177 249.189 845.689 266.47 837.858 281.958 843.687 285.598 845.056 288.937 847.122 291.788 849.768 308.687 864.262 288.409 923.115 345.504 922.612 402.601 922.103 363.693 816.86 380.588 777.388 397.483 737.914 425.719 730.012 459.068 724.661 478.864 720.43 499.371 720.852 518.975 725.895 531.425 729.224 542.88 735.529 552.354 744.265 578.64 766.62 596.465 797.312 602.855 831.221 608.323 868.086 616.278 904.54 626.668 940.331 626.891 941.405 627.188 942.461 627.556 943.495 638.232 981.388 652.13 1018.3 669.1 1053.82 675.03 1065.67 689.445 1070.47 701.297 1064.54 702.661 1063.86 703.958 1063.05 705.167 1062.12 714.336 1054.76 717.025 1041.95 711.585 1031.53 708.065 1024.45 704.417 1016.42 700.724 1007.62 676.878 952.591 685.09 888.923 722.118 841.747L722.98 840.684C748.711 807.961 792.96 796.163 831.567 811.732 885.501 834.643 930.941 894.068 946.449 916.287 970.359 950.546 1002.84 975.36 1028.91 957.416 1045.13 946.249 1058.53 930.124 1042.13 915.046 1029.69 903.609 1019.92 901.136 1015.5 873.298 1013.69 861.863 1049.04 868.422 1059.16 866.552 1083.23 862.102 1074.73 823.54 1069.18 809.25 1065.92 798.274 1054.38 792.014 1043.41 795.27 1041.68 795.782 1040.03 796.516 1038.5 797.453 1024.17 806.894 1021.44 830.033 992.277 832.316 963.12 834.6 958.989 806.937 965.049 790.362 974.612 764.196 1041.43 767.731 1052.3 760.967 1063.18 754.202 1073.7 741.616 1065.82 711.922 1056.12 681.065 1026.03 661.302 993.86 664.654 964.284 669.681 961.045 718.066 938.209 702.959 917.215 689.07 926.075 673.854 931.075 655.364 935.82 637.824 898.837 630.371 875.398 627.059 851.959 623.745 841.603 628.99 837.213 646.593 833.684 660.749 867.065 699.21 847.98 719.799L841.905 725.604C784.046 735.176 726.335 757.69 681.76 815.275 675.398 823.551 663.532 825.104 655.256 818.743 651.253 815.666 648.646 811.114 648.019 806.103 644.814 780.126 643.998 753.91 645.58 727.784 645.773 724.798 646.231 721.834 646.952 718.929 663.065 655.738 741.216 602.485 812.588 573.463Z" fill="#467F5F" fill-rule="nonzero" fill-opacity="1" transform="matrix(1 0 0 1.34405 -1603 946)"/></g></g></g><g><g><g><path d="M750.461 529.619C805.262 504.829 891.508 539.129 945.814 532.619 1000.12 526.107 1013.31 512.895 1025.74 496.809 1038.18 480.717 1019.87 441.465 1003.08 447.474 986.299 453.483 953.221 456.615 939.582 435.767 925.944 414.921 991.235 396.389 1012.96 382.364 1034.68 368.342 1019.14 346.743 1011.59 332.655 1004.03 318.571 960.131 277.688 953.714 314.25 947.294 350.811 926.36 375.192 906.319 374.352 886.277 373.508 904.847 322.504 920.143 305.235 935.438 287.967 902.862 268.672 878.732 258.546 854.602 248.416 789.314 243.632 818.44 276.185 847.568 308.742 860.096 355.131 850.285 368.342 840.472 381.551 811.035 342.799 804.617 326.27 798.199 309.742 773.02 312.247 760.184 321.261 747.349 330.276 731.056 343.298 752.285 358.324 777.135 379.335 791.857 409.936 792.768 442.465 792.275 473.519 781.36 471.936 736.147 487.808 708.653 498.808 682.307 512.485 657.492 528.644 652.171 532.085 645.07 530.561 641.63 525.242 639.689 522.24 639.258 518.505 640.465 515.141 641.473 512.286 642.317 509.899 642.878 508.312 659.745 464.263 673.157 418.967 682.988 372.835 716.153 291.332 763.59 130.339 701.418 109.199 656.595 93.9576 677.42 166.007 666.778 180.281 656.137 194.554 650.208 163.472 638.841 134.704 627.474 105.938 616.852 101.084 598.569 100.07 580.285 99.056 567.713 97.6071 555.142 126.59 542.572 155.572 656.278 242.522 636.532 258.554 616.785 274.584 573.998 239.047 544.857 203.105 515.717 167.167 464.291 132.386 438.579 203.105 412.865 273.824 480.289 254.117 511.716 258.121 534.713 259.671 552.1 279.57 550.551 302.567 550.387 304.995 550.012 307.404 549.428 309.766 544.285 330.633 520.95 314.402 493.361 302.808 465.771 291.215 443.149 315.561 459.148 345.704 473.842 373.389 602.337 361.76 614.303 434.221 615.74 444.387 614.667 454.751 611.177 464.408 605.683 480.69 600.005 496.749 594.478 512.368 574.917 567.656 568.642 579.297 558.832 625.147 558.788 625.354 558.578 626.618 558.258 628.588 556.364 640.028 545.556 647.766 534.116 645.872 530.559 645.283 527.214 643.787 524.401 641.529 508.634 629.328 491.938 618.375 474.466 608.772 438.077 582.763 428.006 549.141 416.717 509.002 405.322 468.495 419.939 397.567 419.352 373.413 418.762 349.255 388.009 346.087 364.423 349.332 340.838 352.573 320.923 361.892 319.405 388.473 317.887 415.053 426.291 565.361 378.157 572.073 330.024 578.787 276.38 464.552 266.825 417.826 260.063 384.763 231.835 381.481 205.056 394.426 169.45 411.644 220.788 435.412 212.26 448.605 194.162 476.598 151.312 414.904 134.855 428.224 107.427 450.424 75.216 484.753 120.446 492.415 192.815 504.675 247.006 578.676 239.864 592.311 232.722 605.95 178.451 596.369 146.592 566.789 114.734 537.209 88.6909 549.642 74.8768 575.648 61.0627 601.654 91.7471 614.479 115.61 610.786 139.472 607.094 181.86 634.513 171.175 657.854 160.491 681.195 95.6472 644.797 68.6335 638.049 41.6198 631.301 32.7735 677.346 30.419 700.27 28.063 723.189 59.7232 780.132 83.1721 758.024 106.621 735.919 173.275 708.261 189.211 749.657 205.149 791.051 139.951 789.577 113.6 807.929 99.7057 817.609 98.5639 831.909 113.333 856.583 128.105 881.253 154.215 859.835 159.904 897.284 164.119 925.048 213.994 917.706 210.514 889.217 208.499 857.265 213.354 825.252 224.755 795.335 230.137 781.031 246.097 773.8 260.401 779.182 263.762 780.447 266.846 782.355 269.479 784.798 285.087 798.184 266.359 852.538 319.088 852.073 371.82 851.604 335.887 754.407 351.49 717.952 367.094 681.497 393.17 674.199 423.97 669.257 442.252 665.349 461.191 665.739 479.297 670.396 490.795 673.471 501.374 679.293 510.124 687.362 534.4 708.008 550.862 736.353 556.764 767.67 561.813 801.717 569.16 835.383 578.756 868.438 578.962 869.43 579.236 870.405 579.576 871.36 589.436 906.356 602.271 940.445 617.944 973.252 623.421 984.197 636.734 988.63 647.679 983.152 648.939 982.521 650.136 981.772 651.253 980.914 659.721 974.122 662.205 962.291 657.181 952.668 653.93 946.121 650.56 938.711 647.15 930.582 625.127 879.761 632.711 820.96 666.908 777.391L667.705 776.41C691.468 746.188 732.334 735.293 767.99 749.671 817.8 770.83 859.765 825.712 874.088 846.232 896.17 877.872 926.165 900.788 950.242 884.216 965.224 873.903 977.602 859.011 962.457 845.086 950.969 834.524 941.938 832.239 937.86 806.53 936.185 795.969 968.837 802.027 978.181 800.299 1000.41 796.19 992.557 760.576 987.434 747.379 984.426 737.241 973.771 731.46 963.633 734.468 962.04 734.94 960.516 735.618 959.098 736.484 945.867 745.203 943.343 766.572 916.412 768.681 889.484 770.79 885.669 745.243 891.266 729.934 900.097 705.769 961.803 709.034 971.849 702.787 981.892 696.539 991.614 684.915 984.333 657.492 975.373 628.994 947.588 610.742 917.874 613.838 890.559 618.48 887.568 663.166 866.478 649.214 847.089 636.387 855.272 622.334 859.889 605.258 864.272 589.059 830.117 582.176 808.469 579.117 786.823 576.056 777.258 580.901 773.204 597.158 769.944 610.232 800.773 645.751 783.147 664.767L777.537 670.127C724.101 678.968 670.803 699.761 629.636 752.943 623.761 760.586 612.802 762.02 605.158 756.146 601.461 753.304 599.054 749.1 598.474 744.472 595.515 720.481 594.761 696.269 596.222 672.141 596.4 669.383 596.823 666.646 597.489 663.963 612.37 605.603 684.546 556.422 750.461 529.619Z" fill="#467F5F" fill-rule="nonzero" fill-opacity="1" transform="matrix(1 0 0 1.34243 4810 1066)"/></g></g></g><g><g><g><path d="M966.275 1354.25C985.506 1320.55 1016.93 1337.11 1021.78 1250.39 1025.56 1181.85 909.136 1152.75 909.87 1080.28 910.497 1018.45 1014.41 1021.98 1025.99 963.661 1033.64 925.234 955.209 868.614 969.91 834.055 984.611 799.496 1053.62 795.557 1095.97 762.43 1138.95 728.91 1067.21 690.071 1067.07 654.993 1066.93 619.914 1194.9 603.674 1209.32 541.843 1223.73 480.013 1183.19 479.046 1172.79 428.21 1162.38 377.374 1262.77 314.756 1278.22 248.557 1288.66 203.791 1220.78 193.746 1207.69 157.521 1192.59 115.782 1281.1 38.3194 1281.1 38.3194 1176.78 25.9641 1098.91 60.4694 1075.86 88.4569 1039.39 132.882 1074.79 199.01 1045.26 223.094 1005.54 255.469 941.403 258.441 917.552 315.723 897.372 364.07 992.042 454.747 944.161 507.427 898.894 557.314 782.503 533.463 753.853 604.139 723.574 678.647 840.394 734.479 799.926 807.572 764.31 871.873 699.776 875.401 688.173 944.519 678.629 1001.44 767.892 1060.59 747.586 1114.95 727.764 1168.02 649.227 1184.34 683.213 1235.82 724.021 1297.61 788.591 1289.86 767.695 1349.11 750.111 1398.91 773.353 1430.66 803.776 1460.99 862.473 1519.49 839.051 1584.35 858.605 1664.98 863.508 1679.14 878.968 1686.66 893.135 1681.75 898.203 1680 902.634 1676.78 905.877 1672.52 923.816 1645.16 945.805 1620.69 971.092 1599.94 1012.28 1569.36 1049.88 1539.06 1027.05 1485.34 1000.57 1422.96 929.872 1418.03 966.275 1354.25Z" fill="#467F5F" fill-rule="nonzero" fill-opacity="1" transform="matrix(1 0 0 2.20186 -1215 -1137)"/><path d="M638.985 1348.84C632.055 1298.13 653.757 1238.75 645.861 1214.33 623.979 1146.64 580.861 1182.76 557.672 1143.4 529.148 1095.06 579.59 1055.2 561.809 994.907 547.215 945.432 518.601 951.395 449.966 919.182 403.625 897.426 392.827 841.289 363.676 795.79 340.845 760.156 260.464 756.396 260.464 756.396 172.437 764.382 218.814 871.479 245.799 903.675 276.544 940.401 326.914 929.084 334.578 995.552 343.424 1072.55 321.453 1097.94 349.226 1162.08 379.845 1232.85 442.678 1158.09 459.922 1212.52 476.181 1263.89 424.683 1349.83 456.609 1411.89 496.97 1490.3 585.266 1504.04 631.733 1628.22 638.682 1641.76 655.292 1647.1 668.833 1640.15 672.985 1638.02 676.529 1634.87 679.13 1630.99 710.332 1591.42 732.514 1545.51 744.13 1496.48 758.133 1412.98 645.735 1398.26 638.985 1348.84Z" fill="#467F5F" fill-rule="nonzero" fill-opacity="1" transform="matrix(1 0 0 2.20186 -1215 -1137)"/><path d="M1451.19 877.693C1496.81 834.054 1517.51 770.445 1506.29 708.318 1492.77 637.373 1380.41 635.439 1367.93 706.294 1358.37 760.622 1374.72 822.004 1270.56 864.335 1198.32 893.701 1282.54 960.581 1262.8 992.364 1243.07 1024.15 1189.94 1009.89 1168.1 1037.6 1129.47 1086.53 1186.84 1124.46 1170.26 1161.97 1149.83 1208.15 1106.34 1199.92 1072.12 1245.65 1044.04 1283.25 1043.88 1296.65 1070.72 1391.42 1082.8 1444.08 1087.71 1498.13 1085.3 1552.1 1085.14 1562.56 1093.48 1571.17 1103.95 1571.33 1110.95 1571.44 1117.44 1567.68 1120.82 1561.55 1149.69 1508.85 1191.02 1446.95 1236.07 1422.72 1296.88 1390.04 1262.39 1342.97 1264.56 1285.67 1267.14 1219.99 1345.14 1248.87 1381.92 1208.67 1423.74 1163.1 1353.55 1128.33 1368.41 1077.11 1386.1 1016.14 1461.02 1051.62 1482.46 1012.65 1518.97 946.148 1388.16 939.595 1451.19 877.693Z" fill="#467F5F" fill-rule="nonzero" fill-opacity="1" transform="matrix(1 0 0 2.20186 -1215 -1137)"/><path d="M397.752 314.183C443.164 314.183 479.977 277.37 479.977 231.958 479.977 186.546 443.164 149.732 397.752 149.732 352.34 149.732 315.526 186.546 315.526 231.958 315.526 277.37 352.34 314.183 397.752 314.183Z" fill="#467F5F" fill-rule="nonzero" fill-opacity="1" transform="matrix(1 0 0 2.20186 -1215 -1137)"/><path d="M611.015 443.054C641.296 443.065 665.851 418.525 665.862 388.243 665.873 357.962 641.332 333.407 611.051 333.396 580.77 333.386 556.215 357.926 556.204 388.208 556.204 388.213 556.204 388.22 556.204 388.225 556.204 418.5 580.741 443.044 611.015 443.054Z" fill="#467F5F" fill-rule="nonzero" fill-opacity="1" transform="matrix(1 0 0 2.20186 -1215 -1137)"/><path d="M424.145 595.741C424.135 622.334 445.685 643.898 472.277 643.909 498.87 643.92 520.434 622.369 520.445 595.777 520.456 569.184 498.906 547.62 472.313 547.609 472.308 547.609 472.301 547.609 472.295 547.609 445.71 547.609 424.156 569.156 424.145 595.741Z" fill="#467F5F" fill-rule="nonzero" fill-opacity="1" transform="matrix(1 0 0 2.20186 -1215 -1137)"/></g></g></g><g clip-path="url(#clip6)"><g clip-path="url(#clip7)"><g clip-path="url(#clip8)"><path d="M703.774 846.098C704.529 833.844 715.076 824.521 727.332 825.278 730.84 825.494 734.247 826.539 737.273 828.327 751.869 836.696 766.998 844.099 782.562 850.49 842.818 875.731 864.582 847.595 873.719 800.626 883.202 751.883 865.633 717.049 814.847 712.767 779.346 709.773 764.406 720.663 738.042 736.043 732.132 739.475 724.557 737.465 721.125 731.555 719.615 728.954 719.104 725.893 719.686 722.942 723.183 706.361 727.116 689.938 731.368 673.653 740.243 639.574 775.064 619.141 809.145 628.016 817.995 630.321 826.246 634.502 833.337 640.277 841.25 646.632 849.628 652.945 858.582 658.834 905.097 689.421 943.103 666.806 966.653 630.031 988.295 596.233 950.532 523.275 888.675 508.23 843.63 497.271 823.317 518.828 797.682 525.511 790.808 527.371 783.729 523.306 781.87 516.434 781.219 514.026 781.279 511.482 782.045 509.11 788.955 487.955 795.698 466.989 801.977 446.179 804.84 437.142 814.485 432.136 823.521 434.999 825.685 435.684 827.693 436.792 829.426 438.258 853.653 457.58 886.214 462.84 915.292 452.129 988.138 429.535 989.781 329.466 952.03 311.307 925.178 298.394 893.286 312.233 853.4 335.822 846.549 339.841 837.738 337.544 833.719 330.695 832.036 327.824 831.4 324.459 831.92 321.171 834.841 302.603 836.754 283.89 837.651 265.115 838.045 253.681 846.846 244.304 858.234 243.188 905.562 238.827 922.967 234.171 942.437 214.423 966.204 190.318 999.346 147.689 969.894 114.479 940.439 81.2623 858.432 83.3317 820.936 157.41 820.936 157.41 820.621 158.341 820.192 159.63 809.46 131.706 754.086-1.30112 686.85 38.1279 643.269 63.6821 692.675 177.693 764.854 215.014 771.641 218.584 775.981 225.529 776.217 233.193 776.792 255.333 775.563 277.481 772.541 299.42 771.636 306.02 765.553 310.638 758.953 309.735 755.982 309.327 753.269 307.83 751.344 305.532 709.043 254.608 674.2 208.063 646.462 214.883 612.357 223.264 589.321 266.791 588.961 312.318 586.369 349.968 609.349 384.679 645.023 396.997 658.508 402.379 672.403 406.676 686.572 409.846 716.331 417.011 734.646 446.945 727.478 476.704 727.154 478.048 726.781 479.382 726.356 480.699 723.109 490.695 719.82 500.74 716.493 510.835L714.804 515.98C710.783 528.176 697.636 534.802 685.44 530.78 681 529.317 677.103 526.545 674.259 522.832 658.116 497.376 636.806 475.595 611.71 458.9 564.841 426.82 516.236 447.553 503.652 465.94 484.774 493.525 501.048 545.164 536.198 569.226 559.055 584.868 606.786 585.424 643.822 588.311 664.814 590.034 680.436 608.448 678.713 629.441 678.514 631.867 678.083 634.268 677.427 636.612 669.211 666.193 661.853 696.325 655.956 727.18 654.337 735.848 645.997 741.561 637.331 739.941 632.948 739.123 629.108 736.509 626.738 732.733 614.806 713.819 600.136 696.779 583.208 682.167 533.916 636.764 476.438 649.7 460.022 667.519 435.397 694.253 447.741 755.04 484.711 789.093 510.719 813.052 569.156 826.206 610.114 839.807 628.498 845.754 641.219 862.54 641.975 881.85 642.182 888.484 642.491 895.125 642.905 901.772 643.172 907.282 638.92 911.965 633.409 912.232 630.493 912.373 627.659 911.23 625.657 909.106 591.794 873.807 582.989 871.976 545.3 864.642 496.325 855.115 438.502 891.055 432.606 921.365 423.759 966.832 469.787 991.514 502.436 997.871 525.761 1002.41 577.057 996.373 621.24 1001.55 642.196 1003.99 659.452 1019.15 664.561 1039.62 669.282 1058.97 674.567 1078.08 680.416 1096.94 682.206 1103.04 678.711 1109.44 672.613 1111.23 669.38 1112.18 665.893 1111.66 663.072 1109.82 639.337 1092.48 611.817 1081.03 582.785 1076.42 531.734 1067.69 482.267 1098.69 467.869 1148.44 459.023 1193.9 498.789 1248.83 547.401 1258.29 573.38 1263.34 612.812 1248.57 648.846 1234.68 688.574 1219.48 733.339 1237.09 752.053 1275.29 777.908 1328.48 807.962 1379.52 841.928 1427.92 851.861 1441.71 871.089 1444.84 884.879 1434.91 885.558 1434.42 886.217 1433.9 886.855 1433.36L886.938 1433.29C899.216 1422.78 901.339 1404.59 891.811 1391.55 873.619 1365.84 856.78 1339.2 841.365 1311.74 837.409 1304.7 839.915 1295.78 846.96 1291.82 850.062 1290.08 853.692 1289.53 857.17 1290.27 883.392 1294.53 910.217 1287.94 931.483 1272.02 1003.9 1223.19 979.073 1108.25 933.607 1099.41 896.602 1092.21 861.792 1127.14 817.654 1176.48 807.622 1187.78 790.33 1188.81 779.031 1178.78 775.946 1176.04 773.522 1172.64 771.936 1168.83 766.453 1155.4 761.159 1141.69 756.053 1127.7 749.723 1110.11 758.852 1090.72 776.443 1084.38 778.217 1083.75 780.04 1083.26 781.896 1082.92 825.113 1075.37 866.782 1060.71 905.218 1039.56 941.427 1015.15 965.427 972.63 943.964 921.263 930.65 889.407 874.082 876.209 819.769 912.831 789.933 932.946 778.382 956.616 763.494 974.422 752.991 986.986 734.292 988.655 721.73 978.153 716.238 973.561 712.591 967.138 711.466 960.068 703.931 923.823 701.265 886.733 703.539 849.784 703.616 848.655 703.693 847.42 703.774 846.098Z" fill="#467F5F" fill-rule="nonzero" fill-opacity="1" transform="matrix(0.891425 0.453168 -0.75298 1.48119 5881.65 -116.092)"/><path d="M249.979 291.619C249.979 330.778 218.234 362.523 179.075 362.523 139.916 362.523 108.171 330.778 108.171 291.619 108.171 252.46 139.916 220.716 179.075 220.716 218.234 220.716 249.979 252.46 249.979 291.619Z" fill="#467F5F" fill-rule="nonzero" fill-opacity="1" transform="matrix(0.891425 0.453168 -0.75298 1.48119 5881.65 -116.092)"/><path d="M410.232 426.37C410.232 452.476 389.069 473.639 362.963 473.639 336.857 473.639 315.694 452.476 315.694 426.37 315.694 400.264 336.857 379.1 362.963 379.1 389.069 379.1 410.232 400.264 410.232 426.37Z" fill="#467F5F" fill-rule="nonzero" fill-opacity="1" transform="matrix(0.891425 0.453168 -0.75298 1.48119 5881.65 -116.092)"/><path d="M284.842 605.296C284.842 628.219 266.26 646.801 243.337 646.801 220.415 646.801 201.833 628.219 201.833 605.296 201.833 582.374 220.415 563.792 243.337 563.792 266.26 563.792 284.842 582.374 284.842 605.296Z" fill="#467F5F" fill-rule="nonzero" fill-opacity="1" transform="matrix(0.891425 0.453168 -0.75298 1.48119 5881.65 -116.092)"/><path d="M1219.55 801.053C1219.55 835.08 1191.96 862.665 1157.94 862.665 1123.91 862.665 1096.32 835.08 1096.32 801.053 1096.32 767.025 1123.91 739.44 1157.94 739.44 1191.96 739.44 1219.55 767.025 1219.55 801.053Z" fill="#467F5F" fill-rule="nonzero" fill-opacity="1" transform="matrix(0.891425 0.453168 -0.75298 1.48119 5881.65 -116.092)"/><path d="M1358.8 918.143C1358.8 940.828 1340.41 959.217 1317.73 959.217 1295.04 959.217 1276.65 940.828 1276.65 918.143 1276.65 895.457 1295.04 877.068 1317.73 877.068 1340.41 877.068 1358.8 895.458 1358.8 918.143Z" fill="#467F5F" fill-rule="nonzero" fill-opacity="1" transform="matrix(0.891425 0.453168 -0.75298 1.48119 5881.65 -116.092)"/><path d="M1249.84 1073.62C1249.84 1093.54 1233.7 1109.69 1213.78 1109.69 1193.86 1109.69 1177.71 1093.54 1177.71 1073.62 1177.71 1053.71 1193.86 1037.56 1213.78 1037.56 1233.7 1037.56 1249.84 1053.71 1249.84 1073.62Z" fill="#467F5F" fill-rule="nonzero" fill-opacity="1" transform="matrix(0.891425 0.453168 -0.75298 1.48119 5881.65 -116.092)"/></g></g></g></g></g></svg>