<svg width="5219" height="2942" xmlns="http://www.w3.org/2000/svg" xmlns:xlink="http://www.w3.org/1999/xlink" xml:space="preserve" overflow="hidden"><defs><clipPath id="clip0"><path d="M922.244 671.3-515.448 1031.92-69.4399 2810.04 1368.25 2449.43Z" fill-rule="nonzero" clip-rule="nonzero"/></clipPath><clipPath id="clip1"><path d="M922.244 671.3-515.448 1031.92-69.4399 2810.04 1368.25 2449.43Z" fill-rule="evenodd" clip-rule="evenodd"/></clipPath><clipPath id="clip2"><path d="M922.244 671.3-515.448 1031.92-69.4399 2810.04 1368.25 2449.43Z" fill-rule="evenodd" clip-rule="evenodd"/></clipPath></defs><g transform="translate(517 128)"><g><g><g><g><path d="M937.045 1313.28C955.695 1280.6 986.17 1296.67 990.875 1212.57 994.539 1146.1 881.635 1117.88 882.347 1047.61 882.954 987.646 983.721 991.066 994.956 934.51 1002.37 897.246 926.314 842.339 940.57 808.825 954.826 775.311 1021.75 771.491 1062.82 739.367 1104.49 706.86 1034.93 669.196 1034.79 635.179 1034.65 601.162 1158.76 585.412 1172.73 525.452 1186.71 465.492 1147.4 464.555 1137.31 415.257 1127.22 365.959 1224.57 305.235 1239.55 241.038 1249.68 197.626 1183.85 187.885 1171.15 152.756 1156.52 112.279 1242.35 37.1602 1242.35 37.1602 1141.18 25.1786 1065.66 58.6402 1043.32 85.7811 1007.94 128.863 1042.27 192.99 1013.64 216.345 975.126 247.741 912.926 250.623 889.796 306.172 870.226 353.057 962.033 440.991 915.6 492.078 871.702 540.455 758.832 517.326 731.049 585.864 701.686 658.118 814.972 712.261 775.728 783.143 741.19 845.499 678.608 848.92 667.356 915.947 658.1 971.149 744.663 1028.5 724.971 1081.22 705.749 1132.69 629.588 1148.51 662.546 1198.43 702.12 1258.36 764.736 1250.84 744.472 1308.3 727.42 1356.59 749.959 1387.38 779.462 1416.79 836.383 1473.52 813.67 1536.42 832.632 1614.61 837.386 1628.35 852.379 1635.63 866.118 1630.88 871.032 1629.18 875.33 1626.06 878.474 1621.92 895.87 1595.4 917.194 1571.67 941.716 1551.54 981.655 1521.88 1018.12 1492.5 995.981 1440.41 970.298 1379.91 901.743 1375.14 937.045 1313.28Z" fill="#3F7F59" fill-rule="nonzero" fill-opacity="1" transform="matrix(1 0 0 1.63827 791 -70.0001)"/><path d="M619.655 1308.04C612.935 1258.86 633.981 1201.28 626.323 1177.6 605.104 1111.96 563.29 1146.98 540.803 1108.82 513.141 1061.93 562.057 1023.28 544.814 964.811 530.662 916.833 502.913 922.615 436.355 891.376 391.415 870.278 380.944 815.84 352.675 771.717 330.535 737.161 252.585 733.515 252.585 733.515 167.221 741.259 212.195 845.117 238.364 876.339 268.179 911.953 317.025 900.979 324.457 965.436 333.035 1040.1 311.729 1064.73 338.662 1126.93 368.355 1195.55 429.287 1123.05 446.009 1175.84 461.776 1225.66 411.836 1308.99 442.797 1369.18 481.937 1445.22 567.562 1458.54 612.623 1578.96 619.362 1592.09 635.469 1597.27 648.6 1590.54 652.627 1588.47 656.064 1585.41 658.587 1581.65 688.844 1543.28 710.356 1498.76 721.62 1451.21 735.199 1370.24 626.202 1355.97 619.655 1308.04Z" fill="#3F7F59" fill-rule="nonzero" fill-opacity="1" transform="matrix(1 0 0 1.63827 791 -70.0001)"/><path d="M1407.3 851.143C1451.54 808.823 1471.6 747.139 1460.73 686.891 1447.62 618.092 1338.65 616.217 1326.55 684.929 1317.28 737.613 1333.13 797.139 1232.12 838.189 1162.07 866.667 1243.74 931.523 1224.6 962.345 1205.47 993.167 1153.95 979.345 1132.76 1006.21 1095.31 1053.67 1150.94 1090.44 1134.86 1126.82 1115.05 1171.61 1072.87 1163.62 1039.69 1207.97 1012.46 1244.43 1012.3 1257.42 1038.33 1349.33 1050.05 1400.39 1054.8 1452.81 1052.47 1505.14 1052.31 1515.29 1060.4 1523.64 1070.55 1523.8 1077.34 1523.91 1083.64 1520.26 1086.92 1514.31 1114.91 1463.21 1154.99 1403.18 1198.68 1379.69 1257.65 1348 1224.2 1302.34 1226.3 1246.78 1228.8 1183.08 1304.45 1211.09 1340.11 1172.11 1380.68 1127.92 1312.61 1094.19 1327.02 1044.53 1344.18 985.406 1416.83 1019.8 1437.61 982.019 1473.02 917.527 1346.17 911.172 1407.3 851.143Z" fill="#3F7F59" fill-rule="nonzero" fill-opacity="1" transform="matrix(1 0 0 1.63827 791 -70.0001)"/><path d="M385.72 304.679C429.758 304.679 465.458 268.979 465.458 224.941 465.458 180.903 429.758 145.203 385.72 145.203 341.681 145.203 305.981 180.903 305.981 224.941 305.981 268.979 341.681 304.679 385.72 304.679Z" fill="#3F7F59" fill-rule="nonzero" fill-opacity="1" transform="matrix(1 0 0 1.63827 791 -70.0001)"/><path d="M592.532 429.652C621.897 429.662 645.709 405.864 645.719 376.499 645.73 347.134 621.932 323.322 592.566 323.311 563.201 323.301 539.389 347.099 539.379 376.464 539.379 376.469 539.379 376.476 539.379 376.482 539.379 405.84 563.173 429.642 592.532 429.652Z" fill="#3F7F59" fill-rule="nonzero" fill-opacity="1" transform="matrix(1 0 0 1.63827 791 -70.0001)"/><path d="M411.315 577.72C411.305 603.508 432.203 624.42 457.991 624.43 483.779 624.441 504.691 603.543 504.702 577.755 504.712 551.966 483.814 531.054 458.026 531.044 458.02 531.044 458.014 531.044 458.008 531.044 432.227 531.044 411.325 551.939 411.315 577.72Z" fill="#3F7F59" fill-rule="nonzero" fill-opacity="1" transform="matrix(1 0 0 1.63827 791 -70.0001)"/></g></g></g><g clip-path="url(#clip0)"><g clip-path="url(#clip1)"><g clip-path="url(#clip2)"><path d="M703.773 846.098C704.528 833.844 715.075 824.521 727.332 825.278 730.839 825.494 734.247 826.539 737.273 828.327 751.869 836.695 766.998 844.099 782.562 850.489 842.817 875.73 864.581 847.594 873.719 800.626 883.202 751.883 865.633 717.049 814.846 712.767 779.345 709.773 764.406 720.663 738.042 736.043 732.132 739.475 724.557 737.465 721.125 731.554 719.615 728.954 719.104 725.893 719.686 722.942 723.183 706.361 727.115 689.938 731.367 673.653 740.242 639.574 775.064 619.141 809.144 628.016 817.995 630.321 826.246 634.502 833.337 640.277 841.25 646.632 849.628 652.945 858.581 658.834 905.097 689.42 943.102 666.806 966.653 630.031 988.295 596.233 950.532 523.275 888.675 508.23 843.629 497.271 823.317 518.828 797.682 525.511 790.808 527.371 783.729 523.306 781.87 516.433 781.218 514.026 781.279 511.482 782.044 509.11 788.955 487.955 795.698 466.989 801.977 446.179 804.84 437.142 814.485 432.136 823.521 434.999 825.685 435.684 827.692 436.791 829.426 438.258 853.653 457.58 886.214 462.84 915.292 452.129 988.138 429.535 989.78 329.466 952.03 311.307 925.178 298.394 893.286 312.233 853.4 335.822 846.549 339.841 837.738 337.544 833.719 330.695 832.036 327.824 831.399 324.458 831.92 321.171 834.841 302.603 836.754 283.89 837.651 265.115 838.045 253.68 846.846 244.304 858.234 243.188 905.562 238.827 922.967 234.171 942.437 214.423 966.204 190.318 999.345 147.689 969.894 114.479 940.439 81.2623 858.432 83.3317 820.936 157.41 820.936 157.41 820.621 158.341 820.192 159.63 809.459 131.706 754.086-1.30112 686.85 38.1279 643.269 63.6821 692.675 177.693 764.854 215.014 771.641 218.584 775.981 225.529 776.217 233.193 776.792 255.333 775.563 277.481 772.541 299.42 771.636 306.02 765.553 310.638 758.952 309.735 755.982 309.327 753.269 307.83 751.344 305.532 709.043 254.608 674.2 208.063 646.462 214.883 612.357 223.264 589.321 266.79 588.961 312.318 586.368 349.968 609.349 384.679 645.023 396.997 658.508 402.379 672.403 406.676 686.572 409.846 716.331 417.011 734.645 446.945 727.478 476.704 727.154 478.048 726.78 479.382 726.356 480.699 723.109 490.695 719.82 500.74 716.493 510.835L714.804 515.979C710.783 528.175 697.636 534.802 685.44 530.78 681 529.316 677.102 526.545 674.258 522.832 658.116 497.376 636.806 475.595 611.71 458.9 564.841 426.82 516.236 447.553 503.652 465.94 484.774 493.525 501.048 545.164 536.198 569.225 559.055 584.868 606.786 585.424 643.822 588.311 664.814 590.034 680.436 608.448 678.713 629.441 678.514 631.867 678.083 634.268 677.427 636.611 669.211 666.193 661.853 696.325 655.956 727.18 654.336 735.848 645.997 741.561 637.331 739.941 632.948 739.123 629.108 736.509 626.738 732.732 614.806 713.819 600.136 696.779 583.208 682.167 533.916 636.764 476.438 649.7 460.022 667.519 435.397 694.253 447.741 755.04 484.711 789.093 510.719 813.052 569.156 826.206 610.113 839.806 628.498 845.754 641.219 862.54 641.975 881.849 642.182 888.484 642.491 895.125 642.905 901.771 643.172 907.282 638.92 911.965 633.409 912.232 630.493 912.372 627.659 911.23 625.657 909.105 591.794 873.807 582.989 871.975 545.3 864.642 496.325 855.115 438.502 891.055 432.606 921.365 423.759 966.832 469.786 991.514 502.436 997.871 525.761 1002.41 577.057 996.373 621.239 1001.55 642.196 1003.99 659.452 1019.15 664.561 1039.62 669.282 1058.97 674.567 1078.08 680.416 1096.94 682.205 1103.04 678.711 1109.44 672.613 1111.23 669.379 1112.18 665.893 1111.66 663.072 1109.82 639.336 1092.48 611.816 1081.03 582.785 1076.42 531.734 1067.69 482.267 1098.69 467.869 1148.44 459.023 1193.9 498.789 1248.83 547.401 1258.29 573.38 1263.34 612.812 1248.57 648.846 1234.68 688.574 1219.48 733.339 1237.09 752.052 1275.29 777.908 1328.48 807.962 1379.52 841.928 1427.92 851.86 1441.71 871.089 1444.84 884.879 1434.91 885.558 1434.42 886.217 1433.9 886.855 1433.36L886.938 1433.29C899.216 1422.78 901.339 1404.59 891.811 1391.54 873.618 1365.84 856.78 1339.2 841.364 1311.74 837.409 1304.7 839.915 1295.78 846.96 1291.82 850.062 1290.08 853.692 1289.53 857.17 1290.27 883.392 1294.53 910.217 1287.94 931.482 1272.02 1003.9 1223.19 979.073 1108.25 933.607 1099.41 896.602 1092.21 861.791 1127.14 817.653 1176.48 807.622 1187.78 790.329 1188.81 779.03 1178.78 775.946 1176.04 773.521 1172.64 771.936 1168.83 766.453 1155.4 761.159 1141.69 756.053 1127.7 749.722 1110.11 758.852 1090.72 776.443 1084.38 778.217 1083.75 780.04 1083.26 781.896 1082.92 825.112 1075.37 866.781 1060.71 905.218 1039.56 941.427 1015.15 965.427 972.63 943.964 921.263 930.65 889.407 874.081 876.209 819.769 912.831 789.933 932.946 778.382 956.615 763.493 974.422 752.991 986.986 734.292 988.655 721.73 978.153 716.238 973.561 712.591 967.138 711.466 960.068 703.931 923.823 701.264 886.733 703.539 849.784 703.616 848.655 703.693 847.42 703.773 846.098Z" fill="#3F7F59" fill-rule="nonzero" fill-opacity="1" transform="matrix(-0.969953 0.243294 0.300904 1.19963 922.244 671.3)"/><path d="M249.979 291.619C249.979 330.778 218.234 362.523 179.075 362.523 139.916 362.523 108.171 330.778 108.171 291.619 108.171 252.46 139.916 220.716 179.075 220.716 218.234 220.716 249.979 252.46 249.979 291.619Z" fill="#3F7F59" fill-rule="nonzero" fill-opacity="1" transform="matrix(-0.969953 0.243294 0.300904 1.19963 922.244 671.3)"/><path d="M410.232 426.369C410.232 452.475 389.068 473.639 362.962 473.639 336.856 473.639 315.693 452.475 315.693 426.369 315.693 400.263 336.857 379.1 362.962 379.1 389.068 379.1 410.232 400.263 410.232 426.369Z" fill="#3F7F59" fill-rule="nonzero" fill-opacity="1" transform="matrix(-0.969953 0.243294 0.300904 1.19963 922.244 671.3)"/><path d="M284.842 605.296C284.842 628.219 266.26 646.801 243.337 646.801 220.415 646.801 201.833 628.219 201.833 605.296 201.833 582.374 220.415 563.792 243.337 563.792 266.26 563.792 284.842 582.374 284.842 605.296Z" fill="#3F7F59" fill-rule="nonzero" fill-opacity="1" transform="matrix(-0.969953 0.243294 0.300904 1.19963 922.244 671.3)"/><path d="M1219.55 801.052C1219.55 835.08 1191.96 862.665 1157.94 862.665 1123.91 862.665 1096.32 835.08 1096.32 801.052 1096.32 767.025 1123.91 739.44 1157.94 739.44 1191.96 739.44 1219.55 767.025 1219.55 801.052Z" fill="#3F7F59" fill-rule="nonzero" fill-opacity="1" transform="matrix(-0.969953 0.243294 0.300904 1.19963 922.244 671.3)"/><path d="M1358.8 918.142C1358.8 940.827 1340.41 959.217 1317.73 959.217 1295.04 959.217 1276.65 940.827 1276.65 918.142 1276.65 895.457 1295.04 877.067 1317.73 877.067 1340.41 877.067 1358.8 895.457 1358.8 918.142Z" fill="#3F7F59" fill-rule="nonzero" fill-opacity="1" transform="matrix(-0.969953 0.243294 0.300904 1.19963 922.244 671.3)"/><path d="M1249.84 1073.62C1249.84 1093.54 1233.7 1109.69 1213.78 1109.69 1193.86 1109.69 1177.71 1093.54 1177.71 1073.62 1177.71 1053.7 1193.86 1037.56 1213.78 1037.56 1233.7 1037.56 1249.84 1053.7 1249.84 1073.62Z" fill="#3F7F59" fill-rule="nonzero" fill-opacity="1" transform="matrix(-0.969953 0.243294 0.300904 1.19963 922.244 671.3)"/></g></g></g><g><g><g><path d="M812.588 573.463C871.926 546.621 965.311 583.761 1024.11 576.712 1082.92 569.661 1097.19 555.355 1110.66 537.937 1124.12 520.513 1104.3 478.011 1086.12 484.518 1067.95 491.025 1032.13 494.416 1017.37 471.842 1002.6 449.27 1073.29 429.204 1096.81 414.018 1120.34 398.835 1103.51 375.448 1095.33 360.193 1087.15 344.944 1039.62 300.676 1032.67 340.266 1025.72 379.853 1003.05 406.253 981.348 405.343 959.647 404.429 979.754 349.203 996.316 330.504 1012.88 311.806 977.605 290.914 951.478 279.95 925.35 268.981 854.657 263.801 886.194 299.049 917.734 334.301 931.299 384.53 920.675 398.835 910.05 413.137 878.176 371.177 871.227 353.28 864.277 335.383 837.014 338.097 823.116 347.856 809.218 357.618 791.576 371.718 814.563 387.988 841.47 410.738 857.411 443.872 858.397 479.094 857.863 512.719 846.045 511.006 797.089 528.191 767.319 540.102 738.792 554.911 711.922 572.408 706.161 576.133 698.472 574.483 694.747 568.723 692.645 565.473 692.179 561.429 693.486 557.786 694.577 554.696 695.49 552.111 696.098 550.393 714.362 502.697 728.884 453.651 739.529 403.7 775.439 315.45 826.804 141.129 759.485 118.239 710.951 101.736 733.5 179.75 721.977 195.206 710.455 210.661 704.035 177.005 691.727 145.856 679.42 114.708 667.918 109.452 648.121 108.354 628.324 107.256 614.711 105.687 601.099 137.07 587.488 168.451 710.608 262.599 689.227 279.958 667.845 297.315 621.516 258.836 589.963 219.919 558.41 181.006 502.727 143.345 474.887 219.919 447.044 296.493 520.049 275.154 554.078 279.489 578.979 281.168 597.805 302.714 596.128 327.615 595.951 330.243 595.544 332.852 594.912 335.41 589.343 358.004 564.076 340.43 534.204 327.876 504.33 315.324 479.835 341.685 497.159 374.323 513.069 404.3 652.201 391.708 665.158 470.168 666.714 481.176 665.552 492.398 661.773 502.854 655.824 520.483 649.676 537.872 643.692 554.784 622.511 614.65 615.717 627.254 605.095 676.899 605.047 677.124 604.819 678.493 604.473 680.626 602.423 693.012 590.72 701.391 578.333 699.34 574.481 698.702 570.859 697.083 567.813 694.638 550.741 681.427 532.662 669.567 513.744 659.169 474.343 631.007 463.438 594.602 451.215 551.14 438.876 507.279 454.704 430.48 454.068 404.326 453.429 378.168 420.131 374.738 394.592 378.251 369.054 381.76 347.49 391.851 345.847 420.633 344.203 449.413 461.581 612.164 409.462 619.432 357.345 626.701 299.26 503.01 288.914 452.416 281.592 416.615 251.027 413.061 222.031 427.078 183.478 445.722 239.066 471.458 229.832 485.742 210.236 516.053 163.839 449.252 146.019 463.674 116.32 487.712 81.4427 524.884 130.417 533.179 208.777 546.454 267.454 626.582 259.721 641.346 251.987 656.113 193.224 645.74 158.728 613.711 124.232 581.682 96.0332 595.144 81.0755 623.302 66.1177 651.461 99.3423 665.349 125.181 661.35 151.018 657.352 196.916 687.041 185.346 712.314 173.777 737.587 103.565 698.176 74.3153 690.87 45.0652 683.563 35.4866 733.419 32.9372 758.242 30.3862 783.058 64.6674 844.715 90.0575 820.777 115.447 796.842 187.619 766.894 204.874 811.717 222.132 856.538 151.536 854.942 123.005 874.813 107.96 885.294 106.723 900.778 122.716 927.495 138.71 954.208 166.981 931.016 173.142 971.565 177.706 1001.63 231.709 993.677 227.941 962.831 225.759 928.233 231.016 893.57 243.361 861.177 249.189 845.689 266.47 837.858 281.958 843.687 285.598 845.056 288.937 847.122 291.788 849.768 308.687 864.262 288.409 923.115 345.504 922.612 402.601 922.103 363.693 816.86 380.588 777.388 397.483 737.914 425.719 730.012 459.068 724.661 478.864 720.43 499.371 720.852 518.975 725.895 531.425 729.224 542.88 735.529 552.354 744.265 578.64 766.62 596.465 797.312 602.855 831.221 608.323 868.086 616.278 904.54 626.668 940.331 626.891 941.405 627.188 942.461 627.556 943.495 638.232 981.388 652.13 1018.3 669.1 1053.82 675.03 1065.67 689.445 1070.47 701.297 1064.54 702.661 1063.86 703.958 1063.05 705.167 1062.12 714.336 1054.76 717.025 1041.95 711.585 1031.53 708.065 1024.45 704.417 1016.42 700.724 1007.62 676.878 952.591 685.09 888.923 722.118 841.747L722.98 840.684C748.711 807.961 792.96 796.163 831.567 811.732 885.501 834.643 930.941 894.068 946.449 916.287 970.359 950.546 1002.84 975.36 1028.91 957.416 1045.13 946.249 1058.53 930.124 1042.13 915.046 1029.69 903.609 1019.92 901.136 1015.5 873.298 1013.69 861.863 1049.04 868.422 1059.16 866.552 1083.23 862.102 1074.73 823.54 1069.18 809.25 1065.92 798.274 1054.38 792.014 1043.41 795.27 1041.68 795.782 1040.03 796.516 1038.5 797.453 1024.17 806.894 1021.44 830.033 992.277 832.316 963.12 834.6 958.989 806.937 965.049 790.362 974.612 764.196 1041.43 767.731 1052.3 760.967 1063.18 754.202 1073.7 741.616 1065.82 711.922 1056.12 681.065 1026.03 661.302 993.86 664.654 964.284 669.681 961.045 718.066 938.209 702.959 917.215 689.07 926.075 673.854 931.075 655.364 935.82 637.824 898.837 630.371 875.398 627.059 851.959 623.745 841.603 628.99 837.213 646.593 833.684 660.749 867.065 699.21 847.98 719.799L841.905 725.604C784.046 735.176 726.335 757.69 681.76 815.275 675.398 823.551 663.532 825.104 655.256 818.743 651.253 815.666 648.646 811.114 648.019 806.103 644.814 780.126 643.998 753.91 645.58 727.784 645.773 724.798 646.231 721.834 646.952 718.929 663.065 655.738 741.216 602.485 812.588 573.463Z" fill="#3F7F59" fill-rule="nonzero" fill-opacity="1" transform="matrix(1 0 0 1 2613 1422)"/></g></g></g><g><g><g><path d="M936.483 1312.5C955.121 1279.84 985.578 1295.89 990.281 1211.84 993.943 1145.41 881.106 1117.21 881.817 1046.98 882.425 987.053 983.131 990.472 994.359 933.949 1001.77 896.707 925.758 841.833 940.006 808.34 954.254 774.846 1021.14 771.028 1062.18 738.923 1103.83 706.436 1034.31 668.795 1034.17 634.798 1034.03 600.801 1158.06 585.061 1172.03 525.137 1186 465.213 1146.71 464.276 1136.63 415.008 1126.55 365.739 1223.83 305.052 1238.81 240.893 1248.93 197.508 1183.14 187.772 1170.45 152.665 1155.82 112.212 1241.6 37.1379 1241.6 37.1379 1140.5 25.1635 1065.03 58.605 1042.69 85.7296 1007.34 128.785 1041.65 192.874 1013.03 216.216 974.541 247.592 912.378 250.473 889.262 305.989 869.704 352.845 961.456 440.726 915.051 491.782 871.179 540.131 758.377 517.015 730.61 585.512 701.265 657.723 814.483 711.833 775.263 782.673 740.745 844.992 678.201 848.411 666.955 915.398 657.706 970.567 744.216 1027.89 724.536 1080.57 705.326 1132.01 629.21 1147.82 662.148 1197.72 701.698 1257.6 764.278 1250.09 744.025 1307.52 726.983 1355.78 749.509 1386.55 778.994 1415.94 835.881 1472.64 813.182 1535.5 832.132 1613.64 836.884 1627.37 851.867 1634.65 865.598 1629.9 870.509 1628.2 874.805 1625.09 877.947 1620.95 895.333 1594.44 916.644 1570.72 941.151 1550.61 981.066 1520.97 1017.51 1491.61 995.383 1439.55 969.716 1379.08 901.202 1374.31 936.483 1312.5Z" fill="#3F7F59" fill-rule="nonzero" fill-opacity="1" transform="matrix(1 0 0 1.63926 3032 -128)"/><path d="M619.284 1307.25C612.567 1258.11 633.601 1200.56 625.948 1176.89 604.741 1111.29 562.952 1146.29 540.478 1108.15 512.833 1061.29 561.72 1022.66 544.487 964.232 530.343 916.283 502.611 922.062 436.093 890.841 391.18 869.756 380.716 815.351 352.463 771.254 330.337 736.719 252.434 733.075 252.434 733.075 167.121 740.815 212.068 844.61 238.221 875.813 268.018 911.406 316.835 900.438 324.263 964.857 332.836 1039.48 311.542 1064.09 338.458 1126.25 368.134 1194.83 429.03 1122.38 445.742 1175.14 461.499 1224.93 411.589 1308.21 442.531 1368.36 481.648 1444.35 567.221 1457.66 612.255 1578.01 618.99 1591.14 635.088 1596.32 648.211 1589.58 652.236 1587.51 655.67 1584.46 658.191 1580.7 688.431 1542.35 709.93 1497.86 721.187 1450.34 734.758 1369.42 625.826 1355.15 619.284 1307.25Z" fill="#3F7F59" fill-rule="nonzero" fill-opacity="1" transform="matrix(1 0 0 1.63926 3032 -128)"/><path d="M1406.45 850.632C1450.66 808.338 1470.72 746.691 1459.85 686.479 1446.75 617.722 1337.85 615.847 1325.75 684.518 1316.49 737.17 1332.33 796.66 1231.38 837.686 1161.38 866.147 1242.99 930.964 1223.87 961.768 1204.74 992.572 1153.25 978.758 1132.08 1005.6 1094.65 1053.03 1150.25 1089.79 1134.18 1126.15 1114.38 1170.9 1072.23 1162.92 1039.06 1207.24 1011.85 1243.69 1011.7 1256.67 1037.71 1348.52 1049.42 1399.55 1054.17 1451.94 1051.84 1504.24 1051.68 1514.38 1059.77 1522.73 1069.91 1522.89 1076.69 1522.99 1082.99 1519.35 1086.27 1513.4 1114.24 1462.33 1154.3 1402.34 1197.96 1378.86 1256.89 1347.19 1223.47 1301.56 1225.57 1246.03 1228.07 1182.37 1303.66 1210.37 1339.31 1171.41 1379.85 1127.24 1311.82 1093.54 1326.22 1043.91 1343.37 984.814 1415.98 1019.19 1436.75 981.43 1472.14 916.977 1345.36 910.625 1406.45 850.632Z" fill="#3F7F59" fill-rule="nonzero" fill-opacity="1" transform="matrix(1 0 0 1.63926 3032 -128)"/><path d="M385.488 304.496C429.5 304.496 465.178 268.818 465.178 224.806 465.178 180.794 429.5 145.116 385.488 145.116 341.476 145.116 305.798 180.794 305.798 224.806 305.798 268.818 341.476 304.496 385.488 304.496Z" fill="#3F7F59" fill-rule="nonzero" fill-opacity="1" transform="matrix(1 0 0 1.63926 3032 -128)"/><path d="M592.176 429.394C621.524 429.405 645.322 405.621 645.332 376.273 645.342 346.925 621.559 323.128 592.211 323.117 562.863 323.107 539.066 346.891 539.055 376.238 539.055 376.244 539.055 376.251 539.055 376.256 539.055 405.596 562.836 429.384 592.176 429.394Z" fill="#3F7F59" fill-rule="nonzero" fill-opacity="1" transform="matrix(1 0 0 1.63926 3032 -128)"/><path d="M411.068 577.373C411.058 603.146 431.944 624.045 457.716 624.056 483.489 624.066 504.388 603.181 504.399 577.408 504.409 551.635 483.524 530.736 457.751 530.725 457.746 530.725 457.739 530.725 457.734 530.725 431.968 530.725 411.079 551.607 411.068 577.373Z" fill="#3F7F59" fill-rule="nonzero" fill-opacity="1" transform="matrix(1 0 0 1.63926 3032 -128)"/></g></g></g><g><g><g><path d="M703.664 845.967C704.419 833.714 714.965 824.393 727.219 825.15 730.726 825.366 734.133 826.411 737.159 828.199 751.752 836.566 766.879 843.968 782.44 850.358 842.687 875.595 864.447 847.463 873.583 800.502 883.065 751.766 865.499 716.938 814.72 712.657 779.225 709.663 764.287 720.551 737.928 735.929 732.018 739.36 724.445 737.351 721.013 731.441 719.503 728.841 718.992 725.78 719.574 722.83 723.071 706.252 727.003 689.831 731.254 673.549 740.128 639.475 774.944 619.045 809.019 627.919 817.868 630.224 826.118 634.404 833.208 640.178 841.12 646.532 849.496 652.844 858.448 658.732 904.957 689.314 942.956 666.702 966.503 629.933 988.142 596.141 950.385 523.194 888.538 508.151 843.499 497.194 823.189 518.748 797.558 525.429 790.686 527.289 783.607 523.225 781.749 516.354 781.097 513.947 781.158 511.403 781.923 509.031 788.833 487.879 795.575 466.916 801.853 446.11 804.715 437.074 814.359 432.069 823.393 434.931 825.557 435.617 827.564 436.724 829.298 438.19 853.521 457.509 886.077 462.768 915.15 452.059 987.984 429.468 989.627 329.415 951.882 311.259 925.035 298.348 893.147 312.185 853.268 335.77 846.418 339.789 837.608 337.492 833.589 330.643 831.907 327.774 831.271 324.408 831.791 321.122 834.712 302.556 836.624 283.846 837.521 265.074 837.915 253.641 846.714 244.266 858.101 243.15 905.422 238.79 922.824 234.134 942.291 214.39 966.054 190.289 999.191 147.666 969.744 114.461 940.293 81.2497 858.299 83.3188 820.809 157.385 820.809 157.385 820.494 158.316 820.065 159.605 809.334 131.685 753.969-1.30092 686.743 38.122 643.169 63.6723 692.568 177.666 764.735 214.981 771.521 218.55 775.861 225.494 776.097 233.157 776.671 255.293 775.443 277.438 772.421 299.373 771.517 305.973 765.434 310.59 758.835 309.687 755.865 309.279 753.152 307.782 751.227 305.485 708.933 254.569 674.095 208.031 646.362 214.85 612.262 223.229 589.229 266.749 588.87 312.27 586.278 349.914 609.255 384.619 644.923 396.935 658.406 402.317 672.298 406.613 686.465 409.782 716.22 416.947 734.532 446.875 727.366 476.63 727.041 477.974 726.668 479.308 726.243 480.625 722.997 490.619 719.709 500.663 716.382 510.756L714.693 515.9C710.673 528.094 697.528 534.719 685.334 530.698 680.894 529.234 676.998 526.464 674.154 522.751 658.014 497.299 636.707 475.521 611.615 458.829 564.753 426.754 516.156 447.484 503.574 465.868 484.699 493.449 500.97 545.08 536.115 569.137 558.969 584.777 606.692 585.333 643.722 588.22 664.711 589.943 680.331 608.353 678.608 629.344 678.409 631.769 677.978 634.169 677.322 636.513 669.107 666.089 661.75 696.217 655.854 727.068 654.235 735.734 645.897 741.446 637.232 739.827 632.849 739.008 629.01 736.395 626.641 732.619 614.71 713.708 600.043 696.671 583.118 682.061 533.833 636.666 476.364 649.599 459.951 667.416 435.33 694.146 447.672 754.923 484.636 788.97 510.64 812.926 569.068 826.078 610.019 839.676 628.4 845.623 641.119 862.407 641.876 881.713 642.083 888.346 642.391 894.986 642.805 901.632 643.072 907.141 638.821 911.824 633.311 912.091 630.395 912.231 627.562 911.089 625.56 908.965 591.702 873.671 582.898 871.84 545.215 864.508 496.248 854.983 438.434 890.917 432.539 921.222 423.693 966.682 469.714 991.361 502.358 997.716 525.679 1002.25 576.967 996.219 621.143 1001.4 642.096 1003.83 659.349 1018.99 664.458 1039.46 669.179 1058.81 674.463 1077.91 680.31 1096.77 682.1 1102.87 678.606 1109.27 672.508 1111.06 669.276 1112 665.79 1111.49 662.97 1109.65 639.237 1092.31 611.722 1080.86 582.695 1076.25 531.652 1067.52 482.192 1098.52 467.796 1148.26 458.952 1193.72 498.711 1248.64 547.316 1258.09 573.292 1263.15 612.717 1248.38 648.745 1234.49 688.468 1219.29 733.226 1236.9 751.936 1275.1 777.787 1328.27 807.837 1379.3 841.798 1427.7 851.729 1441.49 870.954 1444.61 884.742 1434.69 885.421 1434.19 886.08 1433.68 886.718 1433.13L886.801 1433.06C899.077 1422.56 901.2 1404.38 891.673 1391.33 873.483 1365.63 856.647 1338.99 841.234 1311.54 837.279 1304.49 839.784 1295.58 846.829 1291.62 849.93 1289.88 853.559 1289.33 857.037 1290.07 883.255 1294.33 910.076 1287.74 931.338 1271.82 1003.74 1223 978.921 1108.08 933.462 1099.24 896.463 1092.04 861.658 1126.97 817.527 1176.3 807.497 1187.6 790.207 1188.62 778.91 1178.59 775.825 1175.86 773.402 1172.46 771.816 1168.65 766.334 1155.22 761.041 1141.51 755.936 1127.53 749.606 1109.94 758.735 1090.55 776.323 1084.22 778.096 1083.58 779.919 1083.09 781.775 1082.76 824.985 1075.2 866.647 1060.55 905.077 1039.4 941.281 1014.99 965.277 972.479 943.818 921.12 930.506 889.269 873.946 876.073 819.642 912.69 789.81 932.802 778.261 956.467 763.375 974.271 752.874 986.833 734.178 988.502 721.618 978.001 716.127 973.41 712.481 966.988 711.355 959.919 703.822 923.68 701.156 886.596 703.43 849.652 703.507 848.524 703.584 847.289 703.664 845.967Z" fill="#3F7F59" fill-rule="nonzero" fill-opacity="1" transform="matrix(1 0 0 1.23684 1808 710)"/><path d="M249.94 291.574C249.94 330.727 218.2 362.467 179.047 362.467 139.894 362.467 108.154 330.727 108.154 291.574 108.154 252.421 139.894 220.682 179.047 220.682 218.2 220.682 249.94 252.421 249.94 291.574Z" fill="#3F7F59" fill-rule="nonzero" fill-opacity="1" transform="matrix(1 0 0 1.23684 1808 710)"/><path d="M410.168 426.303C410.168 452.405 389.008 473.565 362.906 473.565 336.804 473.565 315.645 452.405 315.645 426.303 315.645 400.201 336.804 379.042 362.906 379.042 389.008 379.042 410.168 400.202 410.168 426.303Z" fill="#3F7F59" fill-rule="nonzero" fill-opacity="1" transform="matrix(1 0 0 1.23684 1808 710)"/><path d="M284.798 605.202C284.798 628.121 266.218 646.701 243.3 646.701 220.381 646.701 201.801 628.121 201.801 605.202 201.801 582.284 220.381 563.704 243.3 563.704 266.218 563.704 284.798 582.284 284.798 605.202Z" fill="#3F7F59" fill-rule="nonzero" fill-opacity="1" transform="matrix(1 0 0 1.23684 1808 710)"/><path d="M1219.36 800.928C1219.36 834.951 1191.78 862.531 1157.76 862.531 1123.73 862.531 1096.15 834.951 1096.15 800.928 1096.15 766.906 1123.73 739.326 1157.76 739.326 1191.78 739.326 1219.36 766.906 1219.36 800.928Z" fill="#3F7F59" fill-rule="nonzero" fill-opacity="1" transform="matrix(1 0 0 1.23684 1808 710)"/><path d="M1358.59 918C1358.59 940.682 1340.2 959.069 1317.52 959.069 1294.84 959.069 1276.45 940.682 1276.45 918 1276.45 895.319 1294.84 876.932 1317.52 876.932 1340.2 876.932 1358.59 895.319 1358.59 918Z" fill="#3F7F59" fill-rule="nonzero" fill-opacity="1" transform="matrix(1 0 0 1.23684 1808 710)"/><path d="M1249.65 1073.46C1249.65 1093.37 1233.51 1109.52 1213.59 1109.52 1193.67 1109.52 1177.53 1093.37 1177.53 1073.46 1177.53 1053.54 1193.67 1037.4 1213.59 1037.4 1233.51 1037.4 1249.65 1053.54 1249.65 1073.46Z" fill="#3F7F59" fill-rule="nonzero" fill-opacity="1" transform="matrix(1 0 0 1.23684 1808 710)"/></g></g></g></g></g></svg>