<svg width="9597" height="6865" xmlns="http://www.w3.org/2000/svg" xmlns:xlink="http://www.w3.org/1999/xlink" xml:space="preserve" overflow="hidden"><defs><clipPath id="clip0"><path d="M-4.3074 1098.61-1362.48 1692.22 409.12 5745.62 1767.29 5152.01Z" fill-rule="nonzero" clip-rule="nonzero"/></clipPath><clipPath id="clip1"><path d="M-4.3074 1098.61-1362.48 1692.22 409.12 5745.62 1767.29 5152.01Z" fill-rule="evenodd" clip-rule="evenodd"/></clipPath><clipPath id="clip2"><path d="M-4.3074 1098.61-1362.48 1692.22 409.12 5745.62 1767.29 5152.01Z" fill-rule="evenodd" clip-rule="evenodd"/></clipPath><clipPath id="clip3"><path d="M5102.13 812.313 6423.43 1484.01 4418.77 5427.36 3097.48 4755.66Z" fill-rule="nonzero" clip-rule="nonzero"/></clipPath><clipPath id="clip4"><path d="M5102.13 812.313 6423.43 1484.01 4418.77 5427.36 3097.48 4755.66Z" fill-rule="evenodd" clip-rule="evenodd"/></clipPath><clipPath id="clip5"><path d="M5102.13 812.313 6423.43 1484.01 4418.77 5427.36 3097.48 4755.66Z" fill-rule="evenodd" clip-rule="evenodd"/></clipPath></defs><g transform="translate(2461 1118)"><g><g><g><g><path d="M862.846 1209.29C880.019 1179.2 908.08 1193.99 912.414 1116.55 915.787 1055.34 811.823 1029.36 812.479 964.651 813.038 909.439 905.826 912.589 916.171 860.511 922.999 826.198 852.964 775.639 866.092 744.779 879.219 713.919 940.843 710.401 978.658 680.82 1017.03 650.888 952.979 616.206 952.851 584.883 952.723 553.559 1067 539.057 1079.87 483.845 1092.74 428.633 1056.54 427.769 1047.25 382.375 1037.96 336.98 1127.6 281.065 1141.4 221.951 1150.72 181.977 1090.11 173.007 1078.42 140.66 1064.94 103.389 1143.97 34.2177 1143.97 34.2177 1050.82 23.1849 981.281 53.9968 960.702 78.9885 928.131 118.659 959.743 177.708 933.376 199.214 897.911 228.123 840.636 230.778 819.338 281.928 801.318 325.1 885.855 406.071 843.099 453.113 802.677 497.66 698.745 476.362 673.161 539.472 646.123 606.005 750.439 655.861 714.303 721.13 682.499 778.549 624.873 781.699 614.512 843.419 605.989 894.249 685.697 947.063 667.565 995.607 649.865 1043 579.734 1057.57 610.082 1103.54 646.523 1158.72 704.181 1151.79 685.521 1204.7 669.82 1249.17 690.574 1277.52 717.74 1304.61 770.154 1356.84 749.24 1414.76 766.701 1486.76 771.078 1499.41 784.884 1506.12 797.535 1501.74 802.06 1500.17 806.017 1497.3 808.913 1493.49 824.931 1469.07 844.567 1447.21 867.147 1428.69 903.923 1401.37 937.501 1374.32 917.114 1326.35 893.466 1270.64 830.339 1266.25 862.846 1209.29Z" fill="#5CAF87" fill-rule="nonzero" fill-opacity="1" transform="matrix(-1 0 0 3.95309 2262 -591)"/><path d="M570.588 1204.46C564.4 1159.18 583.78 1106.16 576.728 1084.35 557.189 1023.91 518.686 1056.16 497.98 1021.01 472.508 977.843 517.551 942.25 501.673 888.413 488.642 844.234 463.09 849.558 401.802 820.793 360.421 801.366 350.779 751.239 324.748 710.609 304.362 678.79 232.584 675.432 232.584 675.432 153.98 682.563 195.393 778.197 219.489 806.946 246.943 839.741 291.922 829.635 298.765 888.989 306.664 957.744 287.045 980.417 311.845 1037.69 339.187 1100.88 395.294 1034.13 410.692 1082.73 425.211 1128.61 379.225 1205.34 407.734 1260.76 443.775 1330.78 522.62 1343.05 564.112 1453.93 570.318 1466.02 585.15 1470.8 597.241 1464.59 600.949 1462.69 604.114 1459.87 606.437 1456.41 634.299 1421.08 654.107 1380.08 664.479 1336.3 676.983 1261.74 576.616 1248.59 570.588 1204.46Z" fill="#5CAF87" fill-rule="nonzero" fill-opacity="1" transform="matrix(-1 0 0 3.95309 2262 -591)"/><path d="M1295.86 783.745C1336.6 744.777 1355.07 687.977 1345.06 632.5 1332.99 569.149 1232.65 567.422 1221.51 630.693 1212.97 679.206 1227.57 734.018 1134.56 771.817 1070.05 798.04 1145.25 857.761 1127.63 886.143 1110.01 914.524 1062.57 901.796 1043.06 926.532 1008.57 970.232 1059.81 1004.1 1045 1037.6 1026.76 1078.83 987.916 1071.48 957.36 1112.32 932.289 1145.89 932.145 1157.85 956.113 1242.49 966.901 1289.51 971.279 1337.77 969.129 1385.96 968.983 1395.3 976.437 1402.99 985.78 1403.14 992.032 1403.24 997.828 1399.88 1000.85 1394.4 1026.63 1347.35 1063.53 1292.07 1103.76 1270.44 1158.06 1241.26 1127.27 1199.22 1129.2 1148.05 1131.5 1089.4 1201.15 1115.19 1234 1079.3 1271.35 1038.6 1208.67 1007.55 1221.94 961.821 1237.74 907.377 1304.64 939.052 1323.78 904.259 1356.38 844.874 1239.58 839.021 1295.86 783.745Z" fill="#5CAF87" fill-rule="nonzero" fill-opacity="1" transform="matrix(-1 0 0 3.95309 2262 -591)"/><path d="M355.177 280.553C395.728 280.553 428.601 247.68 428.601 207.129 428.601 166.578 395.728 133.705 355.177 133.705 314.625 133.705 281.752 166.578 281.752 207.129 281.752 247.68 314.625 280.553 355.177 280.553Z" fill="#5CAF87" fill-rule="nonzero" fill-opacity="1" transform="matrix(-1 0 0 3.95309 2262 -591)"/><path d="M545.613 395.63C572.652 395.64 594.579 373.726 594.589 346.686 594.598 319.646 572.685 297.72 545.644 297.71 518.604 297.7 496.678 319.614 496.668 346.654 496.668 346.659 496.668 346.665 496.668 346.67 496.668 373.704 518.579 395.621 545.613 395.63Z" fill="#5CAF87" fill-rule="nonzero" fill-opacity="1" transform="matrix(-1 0 0 3.95309 2262 -591)"/><path d="M378.745 531.973C378.736 555.72 397.979 574.976 421.725 574.985 445.471 574.995 464.728 555.751 464.737 532.005 464.747 508.259 445.503 489.003 421.757 488.993 421.752 488.993 421.746 488.993 421.741 488.993 398.001 488.993 378.755 508.234 378.745 531.973Z" fill="#5CAF87" fill-rule="nonzero" fill-opacity="1" transform="matrix(-1 0 0 3.95309 2262 -591)"/></g></g></g><g clip-path="url(#clip0)"><g clip-path="url(#clip1)"><g clip-path="url(#clip2)"><path d="M703.773 846.098C704.528 833.844 715.075 824.521 727.332 825.278 730.839 825.494 734.247 826.539 737.273 828.327 751.869 836.695 766.998 844.099 782.562 850.489 842.817 875.73 864.581 847.594 873.719 800.626 883.202 751.883 865.633 717.049 814.846 712.767 779.345 709.773 764.406 720.663 738.042 736.043 732.132 739.475 724.557 737.465 721.125 731.554 719.615 728.954 719.104 725.893 719.686 722.942 723.183 706.361 727.115 689.938 731.367 673.653 740.242 639.574 775.064 619.141 809.144 628.016 817.995 630.321 826.246 634.502 833.337 640.277 841.25 646.632 849.628 652.945 858.581 658.834 905.097 689.42 943.102 666.806 966.653 630.031 988.295 596.233 950.532 523.275 888.675 508.23 843.629 497.271 823.317 518.828 797.682 525.511 790.808 527.371 783.729 523.306 781.87 516.433 781.218 514.026 781.279 511.482 782.044 509.11 788.955 487.955 795.698 466.989 801.977 446.179 804.84 437.142 814.485 432.136 823.521 434.999 825.685 435.684 827.692 436.791 829.426 438.258 853.653 457.58 886.214 462.84 915.292 452.129 988.138 429.535 989.78 329.466 952.03 311.307 925.178 298.394 893.286 312.233 853.4 335.822 846.549 339.841 837.738 337.544 833.719 330.695 832.036 327.824 831.399 324.458 831.92 321.171 834.841 302.603 836.754 283.89 837.651 265.115 838.045 253.68 846.846 244.304 858.234 243.188 905.562 238.827 922.967 234.171 942.437 214.423 966.204 190.318 999.345 147.689 969.894 114.479 940.439 81.2623 858.432 83.3317 820.936 157.41 820.936 157.41 820.621 158.341 820.192 159.63 809.459 131.706 754.086-1.30112 686.85 38.1279 643.269 63.6821 692.675 177.693 764.854 215.014 771.641 218.584 775.981 225.529 776.217 233.193 776.792 255.333 775.563 277.481 772.541 299.42 771.636 306.02 765.553 310.638 758.952 309.735 755.982 309.327 753.269 307.83 751.344 305.532 709.043 254.608 674.2 208.063 646.462 214.883 612.357 223.264 589.321 266.79 588.961 312.318 586.368 349.968 609.349 384.679 645.023 396.997 658.508 402.379 672.403 406.676 686.572 409.846 716.331 417.011 734.645 446.945 727.478 476.704 727.154 478.048 726.78 479.382 726.356 480.699 723.109 490.695 719.82 500.74 716.493 510.835L714.804 515.979C710.783 528.175 697.636 534.802 685.44 530.78 681 529.316 677.102 526.545 674.258 522.832 658.116 497.376 636.806 475.595 611.71 458.9 564.841 426.82 516.236 447.553 503.652 465.94 484.774 493.525 501.048 545.164 536.198 569.225 559.055 584.868 606.786 585.424 643.822 588.311 664.814 590.034 680.436 608.448 678.713 629.441 678.514 631.867 678.083 634.268 677.427 636.611 669.211 666.193 661.853 696.325 655.956 727.18 654.336 735.848 645.997 741.561 637.331 739.941 632.948 739.123 629.108 736.509 626.738 732.732 614.806 713.819 600.136 696.779 583.208 682.167 533.916 636.764 476.438 649.7 460.022 667.519 435.397 694.253 447.741 755.04 484.711 789.093 510.719 813.052 569.156 826.206 610.113 839.806 628.498 845.754 641.219 862.54 641.975 881.849 642.182 888.484 642.491 895.125 642.905 901.771 643.172 907.282 638.92 911.965 633.409 912.232 630.493 912.372 627.659 911.23 625.657 909.105 591.794 873.807 582.989 871.975 545.3 864.642 496.325 855.115 438.502 891.055 432.606 921.365 423.759 966.832 469.786 991.514 502.436 997.871 525.761 1002.41 577.057 996.373 621.239 1001.55 642.196 1003.99 659.452 1019.15 664.561 1039.62 669.282 1058.97 674.567 1078.08 680.416 1096.94 682.205 1103.04 678.711 1109.44 672.613 1111.23 669.379 1112.18 665.893 1111.66 663.072 1109.82 639.336 1092.48 611.816 1081.03 582.785 1076.42 531.734 1067.69 482.267 1098.69 467.869 1148.44 459.023 1193.9 498.789 1248.83 547.401 1258.29 573.38 1263.34 612.812 1248.57 648.846 1234.68 688.574 1219.48 733.339 1237.09 752.052 1275.29 777.908 1328.48 807.962 1379.52 841.928 1427.92 851.86 1441.71 871.089 1444.84 884.879 1434.91 885.558 1434.42 886.217 1433.9 886.855 1433.36L886.938 1433.29C899.216 1422.78 901.339 1404.59 891.811 1391.54 873.618 1365.84 856.78 1339.2 841.364 1311.74 837.409 1304.7 839.915 1295.78 846.96 1291.82 850.062 1290.08 853.692 1289.53 857.17 1290.27 883.392 1294.53 910.217 1287.94 931.482 1272.02 1003.9 1223.19 979.073 1108.25 933.607 1099.41 896.602 1092.21 861.791 1127.14 817.653 1176.48 807.622 1187.78 790.329 1188.81 779.03 1178.78 775.946 1176.04 773.521 1172.64 771.936 1168.83 766.453 1155.4 761.159 1141.69 756.053 1127.7 749.722 1110.11 758.852 1090.72 776.443 1084.38 778.217 1083.75 780.04 1083.26 781.896 1082.92 825.112 1075.37 866.781 1060.71 905.218 1039.56 941.427 1015.15 965.427 972.63 943.964 921.263 930.65 889.407 874.081 876.209 819.769 912.831 789.933 932.946 778.382 956.615 763.493 974.422 752.991 986.986 734.292 988.655 721.73 978.153 716.238 973.561 712.591 967.138 711.466 960.068 703.931 923.823 701.264 886.733 703.539 849.784 703.616 848.655 703.693 847.42 703.773 846.098Z" fill="#5CAF87" fill-rule="nonzero" fill-opacity="1" transform="matrix(-0.916304 0.400484 1.19523 2.73466 -4.3074 1098.61)"/><path d="M249.979 291.619C249.979 330.778 218.234 362.523 179.075 362.523 139.916 362.523 108.171 330.778 108.171 291.619 108.171 252.46 139.916 220.716 179.075 220.716 218.234 220.716 249.979 252.46 249.979 291.619Z" fill="#5CAF87" fill-rule="nonzero" fill-opacity="1" transform="matrix(-0.916304 0.400484 1.19523 2.73466 -4.3074 1098.61)"/><path d="M410.232 426.369C410.232 452.475 389.068 473.639 362.962 473.639 336.856 473.639 315.693 452.475 315.693 426.369 315.693 400.263 336.857 379.1 362.962 379.1 389.068 379.1 410.232 400.263 410.232 426.369Z" fill="#5CAF87" fill-rule="nonzero" fill-opacity="1" transform="matrix(-0.916304 0.400484 1.19523 2.73466 -4.3074 1098.61)"/><path d="M284.842 605.296C284.842 628.219 266.26 646.801 243.337 646.801 220.415 646.801 201.833 628.219 201.833 605.296 201.833 582.374 220.415 563.792 243.337 563.792 266.26 563.792 284.842 582.374 284.842 605.296Z" fill="#5CAF87" fill-rule="nonzero" fill-opacity="1" transform="matrix(-0.916304 0.400484 1.19523 2.73466 -4.3074 1098.61)"/><path d="M1219.55 801.052C1219.55 835.08 1191.96 862.665 1157.94 862.665 1123.91 862.665 1096.32 835.08 1096.32 801.052 1096.32 767.025 1123.91 739.44 1157.94 739.44 1191.96 739.44 1219.55 767.025 1219.55 801.052Z" fill="#5CAF87" fill-rule="nonzero" fill-opacity="1" transform="matrix(-0.916304 0.400484 1.19523 2.73466 -4.3074 1098.61)"/><path d="M1358.8 918.142C1358.8 940.827 1340.41 959.217 1317.73 959.217 1295.04 959.217 1276.65 940.827 1276.65 918.142 1276.65 895.457 1295.04 877.067 1317.73 877.067 1340.41 877.067 1358.8 895.457 1358.8 918.142Z" fill="#5CAF87" fill-rule="nonzero" fill-opacity="1" transform="matrix(-0.916304 0.400484 1.19523 2.73466 -4.3074 1098.61)"/><path d="M1249.84 1073.62C1249.84 1093.54 1233.7 1109.69 1213.78 1109.69 1193.86 1109.69 1177.71 1093.54 1177.71 1073.62 1177.71 1053.7 1193.86 1037.56 1213.78 1037.56 1233.7 1037.56 1249.84 1053.7 1249.84 1073.62Z" fill="#5CAF87" fill-rule="nonzero" fill-opacity="1" transform="matrix(-0.916304 0.400484 1.19523 2.73466 -4.3074 1098.61)"/></g></g></g><g><g><g><path d="M937.045 1313.28C955.695 1280.6 986.17 1296.67 990.875 1212.57 994.539 1146.1 881.635 1117.88 882.347 1047.61 882.954 987.646 983.721 991.066 994.956 934.51 1002.37 897.246 926.314 842.339 940.57 808.825 954.826 775.311 1021.75 771.491 1062.82 739.367 1104.49 706.86 1034.93 669.196 1034.79 635.179 1034.65 601.162 1158.76 585.412 1172.73 525.452 1186.71 465.492 1147.4 464.555 1137.31 415.257 1127.22 365.959 1224.57 305.235 1239.55 241.038 1249.68 197.626 1183.85 187.885 1171.15 152.756 1156.52 112.279 1242.35 37.1602 1242.35 37.1602 1141.18 25.1786 1065.66 58.6402 1043.32 85.7811 1007.94 128.863 1042.27 192.99 1013.64 216.345 975.126 247.741 912.926 250.623 889.796 306.172 870.226 353.057 962.033 440.991 915.6 492.078 871.702 540.455 758.832 517.326 731.049 585.864 701.686 658.118 814.972 712.261 775.728 783.143 741.19 845.499 678.608 848.92 667.356 915.947 658.1 971.149 744.663 1028.5 724.971 1081.22 705.749 1132.69 629.588 1148.51 662.546 1198.43 702.12 1258.36 764.736 1250.84 744.472 1308.3 727.42 1356.59 749.959 1387.38 779.462 1416.79 836.383 1473.52 813.67 1536.42 832.632 1614.61 837.386 1628.35 852.379 1635.63 866.118 1630.88 871.032 1629.18 875.33 1626.06 878.474 1621.92 895.87 1595.4 917.194 1571.67 941.716 1551.54 981.655 1521.88 1018.12 1492.5 995.981 1440.41 970.298 1379.91 901.743 1375.14 937.045 1313.28Z" fill="#5CAF87" fill-rule="nonzero" fill-opacity="1" transform="matrix(1 0 0 3.95381 2835 -1114)"/><path d="M619.655 1308.04C612.935 1258.86 633.981 1201.28 626.323 1177.6 605.104 1111.96 563.29 1146.98 540.803 1108.82 513.141 1061.93 562.057 1023.28 544.814 964.811 530.662 916.833 502.913 922.615 436.355 891.376 391.415 870.278 380.944 815.84 352.675 771.717 330.535 737.161 252.585 733.515 252.585 733.515 167.221 741.259 212.195 845.117 238.364 876.339 268.179 911.953 317.025 900.979 324.457 965.436 333.035 1040.1 311.729 1064.73 338.662 1126.93 368.355 1195.55 429.287 1123.05 446.009 1175.84 461.776 1225.66 411.836 1308.99 442.797 1369.18 481.937 1445.22 567.562 1458.54 612.623 1578.96 619.362 1592.09 635.469 1597.27 648.6 1590.54 652.627 1588.47 656.064 1585.41 658.587 1581.65 688.844 1543.28 710.356 1498.76 721.62 1451.21 735.199 1370.24 626.202 1355.97 619.655 1308.04Z" fill="#5CAF87" fill-rule="nonzero" fill-opacity="1" transform="matrix(1 0 0 3.95381 2835 -1114)"/><path d="M1407.3 851.143C1451.54 808.823 1471.6 747.139 1460.73 686.891 1447.62 618.092 1338.65 616.217 1326.55 684.929 1317.28 737.613 1333.13 797.139 1232.12 838.189 1162.07 866.667 1243.74 931.523 1224.6 962.345 1205.47 993.167 1153.95 979.345 1132.76 1006.21 1095.31 1053.67 1150.94 1090.44 1134.86 1126.82 1115.05 1171.61 1072.87 1163.62 1039.69 1207.97 1012.46 1244.43 1012.3 1257.42 1038.33 1349.33 1050.05 1400.39 1054.8 1452.81 1052.47 1505.14 1052.31 1515.29 1060.4 1523.64 1070.55 1523.8 1077.34 1523.91 1083.64 1520.26 1086.92 1514.31 1114.91 1463.21 1154.99 1403.18 1198.68 1379.69 1257.65 1348 1224.2 1302.34 1226.3 1246.78 1228.8 1183.08 1304.45 1211.09 1340.11 1172.11 1380.68 1127.92 1312.61 1094.19 1327.02 1044.53 1344.18 985.406 1416.83 1019.8 1437.61 982.019 1473.02 917.527 1346.17 911.172 1407.3 851.143Z" fill="#5CAF87" fill-rule="nonzero" fill-opacity="1" transform="matrix(1 0 0 3.95381 2835 -1114)"/><path d="M385.72 304.679C429.758 304.679 465.458 268.979 465.458 224.941 465.458 180.903 429.758 145.203 385.72 145.203 341.681 145.203 305.981 180.903 305.981 224.941 305.981 268.979 341.681 304.679 385.72 304.679Z" fill="#5CAF87" fill-rule="nonzero" fill-opacity="1" transform="matrix(1 0 0 3.95381 2835 -1114)"/><path d="M592.532 429.652C621.897 429.662 645.709 405.864 645.719 376.499 645.73 347.134 621.932 323.322 592.566 323.311 563.201 323.301 539.389 347.099 539.379 376.464 539.379 376.469 539.379 376.476 539.379 376.482 539.379 405.84 563.173 429.642 592.532 429.652Z" fill="#5CAF87" fill-rule="nonzero" fill-opacity="1" transform="matrix(1 0 0 3.95381 2835 -1114)"/><path d="M411.315 577.72C411.305 603.508 432.203 624.42 457.991 624.43 483.779 624.441 504.691 603.543 504.702 577.755 504.712 551.966 483.814 531.054 458.026 531.044 458.02 531.044 458.014 531.044 458.008 531.044 432.227 531.044 411.325 551.939 411.315 577.72Z" fill="#5CAF87" fill-rule="nonzero" fill-opacity="1" transform="matrix(1 0 0 3.95381 2835 -1114)"/></g></g></g><g><g><g><path d="M703.664 845.967C704.419 833.714 714.965 824.393 727.219 825.15 730.726 825.366 734.133 826.411 737.159 828.199 751.752 836.566 766.879 843.968 782.44 850.358 842.687 875.595 864.447 847.463 873.583 800.502 883.065 751.766 865.499 716.938 814.72 712.657 779.225 709.663 764.287 720.551 737.928 735.929 732.018 739.36 724.445 737.351 721.013 731.441 719.503 728.841 718.992 725.78 719.574 722.83 723.071 706.252 727.003 689.831 731.254 673.549 740.128 639.475 774.944 619.045 809.019 627.919 817.868 630.224 826.118 634.404 833.208 640.178 841.12 646.532 849.496 652.844 858.448 658.732 904.957 689.314 942.956 666.702 966.503 629.933 988.142 596.141 950.385 523.194 888.538 508.151 843.499 497.194 823.189 518.748 797.558 525.429 790.686 527.289 783.607 523.225 781.749 516.354 781.097 513.947 781.158 511.403 781.923 509.031 788.833 487.879 795.575 466.916 801.853 446.11 804.715 437.074 814.359 432.069 823.393 434.931 825.557 435.617 827.564 436.724 829.298 438.19 853.521 457.509 886.077 462.768 915.15 452.059 987.984 429.468 989.627 329.415 951.882 311.259 925.035 298.348 893.147 312.185 853.268 335.77 846.418 339.789 837.608 337.492 833.589 330.643 831.907 327.774 831.271 324.408 831.791 321.122 834.712 302.556 836.624 283.846 837.521 265.074 837.915 253.641 846.714 244.266 858.101 243.15 905.422 238.79 922.824 234.134 942.291 214.39 966.054 190.289 999.191 147.666 969.744 114.461 940.293 81.2497 858.299 83.3188 820.809 157.385 820.809 157.385 820.494 158.316 820.065 159.605 809.334 131.685 753.969-1.30092 686.743 38.122 643.169 63.6723 692.568 177.666 764.735 214.981 771.521 218.55 775.861 225.494 776.097 233.157 776.671 255.293 775.443 277.438 772.421 299.373 771.517 305.973 765.434 310.59 758.835 309.687 755.865 309.279 753.152 307.782 751.227 305.485 708.933 254.569 674.095 208.031 646.362 214.85 612.262 223.229 589.229 266.749 588.87 312.27 586.278 349.914 609.255 384.619 644.923 396.935 658.406 402.317 672.298 406.613 686.465 409.782 716.22 416.947 734.532 446.875 727.366 476.63 727.041 477.974 726.668 479.308 726.243 480.625 722.997 490.619 719.709 500.663 716.382 510.756L714.693 515.9C710.673 528.094 697.528 534.719 685.334 530.698 680.894 529.234 676.998 526.464 674.154 522.751 658.014 497.299 636.707 475.521 611.615 458.829 564.753 426.754 516.156 447.484 503.574 465.868 484.699 493.449 500.97 545.08 536.115 569.137 558.969 584.777 606.692 585.333 643.722 588.22 664.711 589.943 680.331 608.353 678.608 629.344 678.409 631.769 677.978 634.169 677.322 636.513 669.107 666.089 661.75 696.217 655.854 727.068 654.235 735.734 645.897 741.446 637.232 739.827 632.849 739.008 629.01 736.395 626.641 732.619 614.71 713.708 600.043 696.671 583.118 682.061 533.833 636.666 476.364 649.599 459.951 667.416 435.33 694.146 447.672 754.923 484.636 788.97 510.64 812.926 569.068 826.078 610.019 839.676 628.4 845.623 641.119 862.407 641.876 881.713 642.083 888.346 642.391 894.986 642.805 901.632 643.072 907.141 638.821 911.824 633.311 912.091 630.395 912.231 627.562 911.089 625.56 908.965 591.702 873.671 582.898 871.84 545.215 864.508 496.248 854.983 438.434 890.917 432.539 921.222 423.693 966.682 469.714 991.361 502.358 997.716 525.679 1002.25 576.967 996.219 621.143 1001.4 642.096 1003.83 659.349 1018.99 664.458 1039.46 669.179 1058.81 674.463 1077.91 680.31 1096.77 682.1 1102.87 678.606 1109.27 672.508 1111.06 669.276 1112 665.79 1111.49 662.97 1109.65 639.237 1092.31 611.722 1080.86 582.695 1076.25 531.652 1067.52 482.192 1098.52 467.796 1148.26 458.952 1193.72 498.711 1248.64 547.316 1258.09 573.292 1263.15 612.717 1248.38 648.745 1234.49 688.468 1219.29 733.226 1236.9 751.936 1275.1 777.787 1328.27 807.837 1379.3 841.798 1427.7 851.729 1441.49 870.954 1444.61 884.742 1434.69 885.421 1434.19 886.08 1433.68 886.718 1433.13L886.801 1433.06C899.077 1422.56 901.2 1404.38 891.673 1391.33 873.483 1365.63 856.647 1338.99 841.234 1311.54 837.279 1304.49 839.784 1295.58 846.829 1291.62 849.93 1289.88 853.559 1289.33 857.037 1290.07 883.255 1294.33 910.076 1287.74 931.338 1271.82 1003.74 1223 978.921 1108.08 933.462 1099.24 896.463 1092.04 861.658 1126.97 817.527 1176.3 807.497 1187.6 790.207 1188.62 778.91 1178.59 775.825 1175.86 773.402 1172.46 771.816 1168.65 766.334 1155.22 761.041 1141.51 755.936 1127.53 749.606 1109.94 758.735 1090.55 776.323 1084.22 778.096 1083.58 779.919 1083.09 781.775 1082.76 824.985 1075.2 866.647 1060.55 905.077 1039.4 941.281 1014.99 965.277 972.479 943.818 921.12 930.506 889.269 873.946 876.073 819.642 912.69 789.81 932.802 778.261 956.467 763.375 974.271 752.874 986.833 734.178 988.502 721.618 978.001 716.127 973.41 712.481 966.988 711.355 959.919 703.822 923.68 701.156 886.596 703.43 849.652 703.507 848.524 703.584 847.289 703.664 845.967Z" fill="#5CAF87" fill-rule="nonzero" fill-opacity="1" transform="matrix(1 0 0 2.98516 1611 908)"/><path d="M249.94 291.574C249.94 330.727 218.2 362.467 179.047 362.467 139.894 362.467 108.154 330.727 108.154 291.574 108.154 252.421 139.894 220.682 179.047 220.682 218.2 220.682 249.94 252.421 249.94 291.574Z" fill="#5CAF87" fill-rule="nonzero" fill-opacity="1" transform="matrix(1 0 0 2.98516 1611 908)"/><path d="M410.168 426.303C410.168 452.405 389.008 473.565 362.906 473.565 336.804 473.565 315.645 452.405 315.645 426.303 315.645 400.201 336.804 379.042 362.906 379.042 389.008 379.042 410.168 400.202 410.168 426.303Z" fill="#5CAF87" fill-rule="nonzero" fill-opacity="1" transform="matrix(1 0 0 2.98516 1611 908)"/><path d="M284.798 605.202C284.798 628.121 266.218 646.701 243.3 646.701 220.381 646.701 201.801 628.121 201.801 605.202 201.801 582.284 220.381 563.704 243.3 563.704 266.218 563.704 284.798 582.284 284.798 605.202Z" fill="#5CAF87" fill-rule="nonzero" fill-opacity="1" transform="matrix(1 0 0 2.98516 1611 908)"/><path d="M1219.36 800.928C1219.36 834.951 1191.78 862.531 1157.76 862.531 1123.73 862.531 1096.15 834.951 1096.15 800.928 1096.15 766.906 1123.73 739.326 1157.76 739.326 1191.78 739.326 1219.36 766.906 1219.36 800.928Z" fill="#5CAF87" fill-rule="nonzero" fill-opacity="1" transform="matrix(1 0 0 2.98516 1611 908)"/><path d="M1358.59 918C1358.59 940.682 1340.2 959.069 1317.52 959.069 1294.84 959.069 1276.45 940.682 1276.45 918 1276.45 895.319 1294.84 876.932 1317.52 876.932 1340.2 876.932 1358.59 895.319 1358.59 918Z" fill="#5CAF87" fill-rule="nonzero" fill-opacity="1" transform="matrix(1 0 0 2.98516 1611 908)"/><path d="M1249.65 1073.46C1249.65 1093.37 1233.51 1109.52 1213.59 1109.52 1193.67 1109.52 1177.53 1093.37 1177.53 1073.46 1177.53 1053.54 1193.67 1037.4 1213.59 1037.4 1233.51 1037.4 1249.65 1053.54 1249.65 1073.46Z" fill="#5CAF87" fill-rule="nonzero" fill-opacity="1" transform="matrix(1 0 0 2.98516 1611 908)"/></g></g></g><g><g><g><path d="M679.034 951.677C692.549 927.996 714.633 939.635 718.043 878.694 720.698 830.525 638.881 810.077 639.397 759.153 639.837 715.702 712.858 718.181 721 677.197 726.373 650.193 671.258 610.405 681.589 586.119 691.92 561.833 740.416 559.065 770.175 535.786 800.375 512.23 749.967 484.936 749.866 460.286 749.765 435.635 839.698 424.222 849.828 380.772 859.958 337.321 831.469 336.642 824.158 300.918 816.847 265.194 887.389 221.19 898.249 174.669 905.585 143.211 857.881 136.152 848.683 110.696 838.075 81.3638 900.275 26.9283 900.275 26.9283 826.964 18.2458 772.239 42.4939 756.044 62.1617 730.412 93.3809 755.289 139.851 734.539 156.776 706.63 179.526 661.556 181.615 644.795 221.869 630.614 255.844 697.142 319.566 663.494 356.586 631.683 391.644 549.892 374.883 529.758 424.549 508.48 476.908 590.574 516.143 562.135 567.508 537.107 612.695 491.757 615.174 483.603 663.746 476.896 703.748 539.624 745.311 525.354 783.514 511.424 820.811 456.234 832.274 480.117 868.451 508.794 911.876 554.17 906.428 539.485 948.066 527.128 983.06 543.462 1005.37 564.841 1026.69 606.089 1067.8 589.63 1113.37 603.371 1170.04 606.816 1179.99 617.681 1185.27 627.636 1181.82 631.198 1180.59 634.312 1178.33 636.591 1175.33 649.197 1156.11 664.649 1138.92 682.419 1124.33 711.361 1102.84 737.786 1081.55 721.742 1043.8 703.131 999.96 653.453 996.499 679.034 951.677Z" fill="#5CAF87" fill-rule="nonzero" fill-opacity="1" transform="matrix(-1 0 0 3.95281 -1251 908)"/><path d="M449.036 947.877C444.167 912.241 459.417 870.515 453.868 853.351 438.491 805.786 408.191 831.167 391.895 803.509 371.85 769.534 407.297 741.523 394.802 699.155 384.547 664.387 364.438 668.578 316.207 645.94 283.641 630.651 276.053 591.203 255.567 559.229 239.524 534.188 183.037 531.545 183.037 531.545 121.177 537.157 153.768 612.418 172.731 635.043 194.337 660.852 229.734 652.899 235.12 699.608 241.336 753.716 225.896 771.56 245.413 816.633 266.93 866.362 311.085 813.827 323.203 852.08 334.629 888.182 298.439 948.569 320.875 992.183 349.238 1047.29 411.286 1056.94 443.94 1144.2 448.824 1153.72 460.496 1157.47 470.011 1152.59 472.929 1151.09 475.42 1148.88 477.248 1146.15 499.174 1118.34 514.763 1086.09 522.926 1051.63 532.766 992.951 453.78 982.607 449.036 947.877Z" fill="#5CAF87" fill-rule="nonzero" fill-opacity="1" transform="matrix(-1 0 0 3.95281 -1251 908)"/><path d="M1019.8 616.785C1051.86 586.118 1066.4 541.418 1058.52 497.759 1049.02 447.904 970.062 446.545 961.291 496.337 954.572 534.515 966.06 577.65 892.863 607.397 842.102 628.034 901.281 675.033 887.414 697.368 873.548 719.704 836.213 709.687 820.861 729.154 793.719 763.544 834.036 790.196 822.384 816.558 808.026 849.01 777.461 843.222 753.414 875.36 733.684 901.785 733.571 911.197 752.433 977.8 760.923 1014.8 764.368 1052.78 762.676 1090.71 762.561 1098.06 768.428 1104.12 775.78 1104.23 780.7 1104.31 785.262 1101.66 787.641 1097.35 807.925 1060.32 836.968 1016.82 868.627 999.796 911.361 976.832 887.125 943.75 888.648 903.483 890.46 857.328 945.273 877.625 971.119 849.375 1000.51 817.35 951.187 792.914 961.631 756.925 974.063 714.079 1026.71 739.007 1041.77 711.625 1067.43 664.891 975.51 660.285 1019.8 616.785Z" fill="#5CAF87" fill-rule="nonzero" fill-opacity="1" transform="matrix(-1 0 0 3.95281 -1251 908)"/><path d="M279.514 220.787C311.426 220.787 337.296 194.917 337.296 163.005 337.296 131.092 311.426 105.222 279.514 105.222 247.601 105.222 221.731 131.092 221.731 163.005 221.731 194.917 247.601 220.787 279.514 220.787Z" fill="#5CAF87" fill-rule="nonzero" fill-opacity="1" transform="matrix(-1 0 0 3.95281 -1251 908)"/><path d="M429.381 311.349C450.661 311.357 467.916 294.112 467.924 272.832 467.931 251.552 450.686 234.297 429.406 234.289 408.127 234.282 390.871 251.527 390.863 272.807 390.863 272.81 390.863 272.815 390.863 272.819 390.863 294.094 408.106 311.342 429.381 311.349Z" fill="#5CAF87" fill-rule="nonzero" fill-opacity="1" transform="matrix(-1 0 0 3.95281 -1251 908)"/><path d="M298.061 418.647C298.054 437.335 313.198 452.489 331.885 452.497 350.573 452.504 365.727 437.36 365.735 418.673 365.742 399.985 350.598 384.831 331.911 384.823 331.907 384.823 331.902 384.823 331.898 384.823 313.216 384.823 298.069 399.965 298.061 418.647Z" fill="#5CAF87" fill-rule="nonzero" fill-opacity="1" transform="matrix(-1 0 0 3.95281 -1251 908)"/></g></g></g><g><g><g><path d="M812.588 573.463C871.926 546.621 965.311 583.761 1024.11 576.712 1082.92 569.661 1097.19 555.355 1110.66 537.937 1124.12 520.513 1104.3 478.011 1086.12 484.518 1067.95 491.025 1032.13 494.416 1017.37 471.842 1002.6 449.27 1073.29 429.204 1096.81 414.018 1120.34 398.835 1103.51 375.448 1095.33 360.193 1087.15 344.944 1039.62 300.676 1032.67 340.266 1025.72 379.853 1003.05 406.253 981.348 405.343 959.647 404.429 979.754 349.203 996.316 330.504 1012.88 311.806 977.605 290.914 951.478 279.95 925.35 268.981 854.657 263.801 886.194 299.049 917.734 334.301 931.299 384.53 920.675 398.835 910.05 413.137 878.176 371.177 871.227 353.28 864.277 335.383 837.014 338.097 823.116 347.856 809.218 357.618 791.576 371.718 814.563 387.988 841.47 410.738 857.411 443.872 858.397 479.094 857.863 512.719 846.045 511.006 797.089 528.191 767.319 540.102 738.792 554.911 711.922 572.408 706.161 576.133 698.472 574.483 694.747 568.723 692.645 565.473 692.179 561.429 693.486 557.786 694.577 554.696 695.49 552.111 696.098 550.393 714.362 502.697 728.884 453.651 739.529 403.7 775.439 315.45 826.804 141.129 759.485 118.239 710.951 101.736 733.5 179.75 721.977 195.206 710.455 210.661 704.035 177.005 691.727 145.856 679.42 114.708 667.918 109.452 648.121 108.354 628.324 107.256 614.711 105.687 601.099 137.07 587.488 168.451 710.608 262.599 689.227 279.958 667.845 297.315 621.516 258.836 589.963 219.919 558.41 181.006 502.727 143.345 474.887 219.919 447.044 296.493 520.049 275.154 554.078 279.489 578.979 281.168 597.805 302.714 596.128 327.615 595.951 330.243 595.544 332.852 594.912 335.41 589.343 358.004 564.076 340.43 534.204 327.876 504.33 315.324 479.835 341.685 497.159 374.323 513.069 404.3 652.201 391.708 665.158 470.168 666.714 481.176 665.552 492.398 661.773 502.854 655.824 520.483 649.676 537.872 643.692 554.784 622.511 614.65 615.717 627.254 605.095 676.899 605.047 677.124 604.819 678.493 604.473 680.626 602.423 693.012 590.72 701.391 578.333 699.34 574.481 698.702 570.859 697.083 567.813 694.638 550.741 681.427 532.662 669.567 513.744 659.169 474.343 631.007 463.438 594.602 451.215 551.14 438.876 507.279 454.704 430.48 454.068 404.326 453.429 378.168 420.131 374.738 394.592 378.251 369.054 381.76 347.49 391.851 345.847 420.633 344.203 449.413 461.581 612.164 409.462 619.432 357.345 626.701 299.26 503.01 288.914 452.416 281.592 416.615 251.027 413.061 222.031 427.078 183.478 445.722 239.066 471.458 229.832 485.742 210.236 516.053 163.839 449.252 146.019 463.674 116.32 487.712 81.4427 524.884 130.417 533.179 208.777 546.454 267.454 626.582 259.721 641.346 251.987 656.113 193.224 645.74 158.728 613.711 124.232 581.682 96.0332 595.144 81.0755 623.302 66.1177 651.461 99.3423 665.349 125.181 661.35 151.018 657.352 196.916 687.041 185.346 712.314 173.777 737.587 103.565 698.176 74.3153 690.87 45.0652 683.563 35.4866 733.419 32.9372 758.242 30.3862 783.058 64.6674 844.715 90.0575 820.777 115.447 796.842 187.619 766.894 204.874 811.717 222.132 856.538 151.536 854.942 123.005 874.813 107.96 885.294 106.723 900.778 122.716 927.495 138.71 954.208 166.981 931.016 173.142 971.565 177.706 1001.63 231.709 993.677 227.941 962.831 225.759 928.233 231.016 893.57 243.361 861.177 249.189 845.689 266.47 837.858 281.958 843.687 285.598 845.056 288.937 847.122 291.788 849.768 308.687 864.262 288.409 923.115 345.504 922.612 402.601 922.103 363.693 816.86 380.588 777.388 397.483 737.914 425.719 730.012 459.068 724.661 478.864 720.43 499.371 720.852 518.975 725.895 531.425 729.224 542.88 735.529 552.354 744.265 578.64 766.62 596.465 797.312 602.855 831.221 608.323 868.086 616.278 904.54 626.668 940.331 626.891 941.405 627.188 942.461 627.556 943.495 638.232 981.388 652.13 1018.3 669.1 1053.82 675.03 1065.67 689.445 1070.47 701.297 1064.54 702.661 1063.86 703.958 1063.05 705.167 1062.12 714.336 1054.76 717.025 1041.95 711.585 1031.53 708.065 1024.45 704.417 1016.42 700.724 1007.62 676.878 952.591 685.09 888.923 722.118 841.747L722.98 840.684C748.711 807.961 792.96 796.163 831.567 811.732 885.501 834.643 930.941 894.068 946.449 916.287 970.359 950.546 1002.84 975.36 1028.91 957.416 1045.13 946.249 1058.53 930.124 1042.13 915.046 1029.69 903.609 1019.92 901.136 1015.5 873.298 1013.69 861.863 1049.04 868.422 1059.16 866.552 1083.23 862.102 1074.73 823.54 1069.18 809.25 1065.92 798.274 1054.38 792.014 1043.41 795.27 1041.68 795.782 1040.03 796.516 1038.5 797.453 1024.17 806.894 1021.44 830.033 992.277 832.316 963.12 834.6 958.989 806.937 965.049 790.362 974.612 764.196 1041.43 767.731 1052.3 760.967 1063.18 754.202 1073.7 741.616 1065.82 711.922 1056.12 681.065 1026.03 661.302 993.86 664.654 964.284 669.681 961.045 718.066 938.209 702.959 917.215 689.07 926.075 673.854 931.075 655.364 935.82 637.824 898.837 630.371 875.398 627.059 851.959 623.745 841.603 628.99 837.213 646.593 833.684 660.749 867.065 699.21 847.98 719.799L841.905 725.604C784.046 735.176 726.335 757.69 681.76 815.275 675.398 823.551 663.532 825.104 655.256 818.743 651.253 815.666 648.646 811.114 648.019 806.103 644.814 780.126 643.998 753.91 645.58 727.784 645.773 724.798 646.231 721.834 646.952 718.929 663.065 655.738 741.216 602.485 812.588 573.463Z" fill="#5CAF87" fill-rule="nonzero" fill-opacity="1" transform="matrix(1 0 0 2.41355 -1799 2554)"/></g></g></g><g><g><g><path d="M750.461 529.619C805.262 504.829 891.508 539.129 945.814 532.619 1000.12 526.107 1013.31 512.895 1025.74 496.809 1038.18 480.717 1019.87 441.465 1003.08 447.474 986.299 453.483 953.221 456.615 939.582 435.767 925.944 414.921 991.235 396.389 1012.96 382.364 1034.68 368.342 1019.14 346.743 1011.59 332.655 1004.03 318.571 960.131 277.688 953.714 314.25 947.294 350.811 926.36 375.192 906.319 374.352 886.277 373.508 904.847 322.504 920.143 305.235 935.438 287.967 902.862 268.672 878.732 258.546 854.602 248.416 789.314 243.632 818.44 276.185 847.568 308.742 860.096 355.131 850.285 368.342 840.472 381.551 811.035 342.799 804.617 326.27 798.199 309.742 773.02 312.247 760.184 321.261 747.349 330.276 731.056 343.298 752.285 358.324 777.135 379.335 791.857 409.936 792.768 442.465 792.275 473.519 781.36 471.936 736.147 487.808 708.653 498.808 682.307 512.485 657.492 528.644 652.171 532.085 645.07 530.561 641.63 525.242 639.689 522.24 639.258 518.505 640.465 515.141 641.473 512.286 642.317 509.899 642.878 508.312 659.745 464.263 673.157 418.967 682.988 372.835 716.153 291.332 763.59 130.339 701.418 109.199 656.595 93.9576 677.42 166.007 666.778 180.281 656.137 194.554 650.208 163.472 638.841 134.704 627.474 105.938 616.852 101.084 598.569 100.07 580.285 99.056 567.713 97.6071 555.142 126.59 542.572 155.572 656.278 242.522 636.532 258.554 616.785 274.584 573.998 239.047 544.857 203.105 515.717 167.167 464.291 132.386 438.579 203.105 412.865 273.824 480.289 254.117 511.716 258.121 534.713 259.671 552.1 279.57 550.551 302.567 550.387 304.995 550.012 307.404 549.428 309.766 544.285 330.633 520.95 314.402 493.361 302.808 465.771 291.215 443.149 315.561 459.148 345.704 473.842 373.389 602.337 361.76 614.303 434.221 615.74 444.387 614.667 454.751 611.177 464.408 605.683 480.69 600.005 496.749 594.478 512.368 574.917 567.656 568.642 579.297 558.832 625.147 558.788 625.354 558.578 626.618 558.258 628.588 556.364 640.028 545.556 647.766 534.116 645.872 530.559 645.283 527.214 643.787 524.401 641.529 508.634 629.328 491.938 618.375 474.466 608.772 438.077 582.763 428.006 549.141 416.717 509.002 405.322 468.495 419.939 397.567 419.352 373.413 418.762 349.255 388.009 346.087 364.423 349.332 340.838 352.573 320.923 361.892 319.405 388.473 317.887 415.053 426.291 565.361 378.157 572.073 330.024 578.787 276.38 464.552 266.825 417.826 260.063 384.763 231.835 381.481 205.056 394.426 169.45 411.644 220.788 435.412 212.26 448.605 194.162 476.598 151.312 414.904 134.855 428.224 107.427 450.424 75.216 484.753 120.446 492.415 192.815 504.675 247.006 578.676 239.864 592.311 232.722 605.95 178.451 596.369 146.592 566.789 114.734 537.209 88.6909 549.642 74.8768 575.648 61.0627 601.654 91.7471 614.479 115.61 610.786 139.472 607.094 181.86 634.513 171.175 657.854 160.491 681.195 95.6472 644.797 68.6335 638.049 41.6198 631.301 32.7735 677.346 30.419 700.27 28.063 723.189 59.7232 780.132 83.1721 758.024 106.621 735.919 173.275 708.261 189.211 749.657 205.149 791.051 139.951 789.577 113.6 807.929 99.7057 817.609 98.5639 831.909 113.333 856.583 128.105 881.253 154.215 859.835 159.904 897.284 164.119 925.048 213.994 917.706 210.514 889.217 208.499 857.265 213.354 825.252 224.755 795.335 230.137 781.031 246.097 773.8 260.401 779.182 263.762 780.447 266.846 782.355 269.479 784.798 285.087 798.184 266.359 852.538 319.088 852.073 371.82 851.604 335.887 754.407 351.49 717.952 367.094 681.497 393.17 674.199 423.97 669.257 442.252 665.349 461.191 665.739 479.297 670.396 490.795 673.471 501.374 679.293 510.124 687.362 534.4 708.008 550.862 736.353 556.764 767.67 561.813 801.717 569.16 835.383 578.756 868.438 578.962 869.43 579.236 870.405 579.576 871.36 589.436 906.356 602.271 940.445 617.944 973.252 623.421 984.197 636.734 988.63 647.679 983.152 648.939 982.521 650.136 981.772 651.253 980.914 659.721 974.122 662.205 962.291 657.181 952.668 653.93 946.121 650.56 938.711 647.15 930.582 625.127 879.761 632.711 820.96 666.908 777.391L667.705 776.41C691.468 746.188 732.334 735.293 767.99 749.671 817.8 770.83 859.765 825.712 874.088 846.232 896.17 877.872 926.165 900.788 950.242 884.216 965.224 873.903 977.602 859.011 962.457 845.086 950.969 834.524 941.938 832.239 937.86 806.53 936.185 795.969 968.837 802.027 978.181 800.299 1000.41 796.19 992.557 760.576 987.434 747.379 984.426 737.241 973.771 731.46 963.633 734.468 962.04 734.94 960.516 735.618 959.098 736.484 945.867 745.203 943.343 766.572 916.412 768.681 889.484 770.79 885.669 745.243 891.266 729.934 900.097 705.769 961.803 709.034 971.849 702.787 981.892 696.539 991.614 684.915 984.333 657.492 975.373 628.994 947.588 610.742 917.874 613.838 890.559 618.48 887.568 663.166 866.478 649.214 847.089 636.387 855.272 622.334 859.889 605.258 864.272 589.059 830.117 582.176 808.469 579.117 786.823 576.056 777.258 580.901 773.204 597.158 769.944 610.232 800.773 645.751 783.147 664.767L777.537 670.127C724.101 678.968 670.803 699.761 629.636 752.943 623.761 760.586 612.802 762.02 605.158 756.146 601.461 753.304 599.054 749.1 598.474 744.472 595.515 720.481 594.761 696.269 596.222 672.141 596.4 669.383 596.823 666.646 597.489 663.963 612.37 605.603 684.546 556.422 750.461 529.619Z" fill="#5CAF87" fill-rule="nonzero" fill-opacity="1" transform="matrix(1 0 0 2.41204 4613 2768)"/></g></g></g><g clip-path="url(#clip3)"><g clip-path="url(#clip4)"><g clip-path="url(#clip5)"><path d="M703.774 846.098C704.529 833.844 715.076 824.521 727.332 825.278 730.84 825.494 734.247 826.539 737.273 828.327 751.869 836.696 766.998 844.099 782.562 850.49 842.818 875.731 864.582 847.595 873.719 800.626 883.202 751.883 865.633 717.049 814.847 712.767 779.346 709.773 764.406 720.663 738.042 736.043 732.132 739.475 724.557 737.465 721.125 731.555 719.615 728.954 719.104 725.893 719.686 722.942 723.183 706.361 727.116 689.938 731.368 673.653 740.243 639.574 775.064 619.141 809.145 628.016 817.995 630.321 826.246 634.502 833.337 640.277 841.25 646.632 849.628 652.945 858.582 658.834 905.097 689.421 943.103 666.806 966.653 630.031 988.295 596.233 950.532 523.275 888.675 508.23 843.63 497.271 823.317 518.828 797.682 525.511 790.808 527.371 783.729 523.306 781.87 516.434 781.219 514.026 781.279 511.482 782.045 509.11 788.955 487.955 795.698 466.989 801.977 446.179 804.84 437.142 814.485 432.136 823.521 434.999 825.685 435.684 827.693 436.792 829.426 438.258 853.653 457.58 886.214 462.84 915.292 452.129 988.138 429.535 989.781 329.466 952.03 311.307 925.178 298.394 893.286 312.233 853.4 335.822 846.549 339.841 837.738 337.544 833.719 330.695 832.036 327.824 831.4 324.459 831.92 321.171 834.841 302.603 836.754 283.89 837.651 265.115 838.045 253.681 846.846 244.304 858.234 243.188 905.562 238.827 922.967 234.171 942.437 214.423 966.204 190.318 999.346 147.689 969.894 114.479 940.439 81.2623 858.432 83.3317 820.936 157.41 820.936 157.41 820.621 158.341 820.192 159.63 809.46 131.706 754.086-1.30112 686.85 38.1279 643.269 63.6821 692.675 177.693 764.854 215.014 771.641 218.584 775.981 225.529 776.217 233.193 776.792 255.333 775.563 277.481 772.541 299.42 771.636 306.02 765.553 310.638 758.953 309.735 755.982 309.327 753.269 307.83 751.344 305.532 709.043 254.608 674.2 208.063 646.462 214.883 612.357 223.264 589.321 266.791 588.961 312.318 586.369 349.968 609.349 384.679 645.023 396.997 658.508 402.379 672.403 406.676 686.572 409.846 716.331 417.011 734.646 446.945 727.478 476.704 727.154 478.048 726.781 479.382 726.356 480.699 723.109 490.695 719.82 500.74 716.493 510.835L714.804 515.98C710.783 528.176 697.636 534.802 685.44 530.78 681 529.317 677.103 526.545 674.259 522.832 658.116 497.376 636.806 475.595 611.71 458.9 564.841 426.82 516.236 447.553 503.652 465.94 484.774 493.525 501.048 545.164 536.198 569.226 559.055 584.868 606.786 585.424 643.822 588.311 664.814 590.034 680.436 608.448 678.713 629.441 678.514 631.867 678.083 634.268 677.427 636.612 669.211 666.193 661.853 696.325 655.956 727.18 654.337 735.848 645.997 741.561 637.331 739.941 632.948 739.123 629.108 736.509 626.738 732.733 614.806 713.819 600.136 696.779 583.208 682.167 533.916 636.764 476.438 649.7 460.022 667.519 435.397 694.253 447.741 755.04 484.711 789.093 510.719 813.052 569.156 826.206 610.114 839.807 628.498 845.754 641.219 862.54 641.975 881.85 642.182 888.484 642.491 895.125 642.905 901.772 643.172 907.282 638.92 911.965 633.409 912.232 630.493 912.373 627.659 911.23 625.657 909.106 591.794 873.807 582.989 871.976 545.3 864.642 496.325 855.115 438.502 891.055 432.606 921.365 423.759 966.832 469.787 991.514 502.436 997.871 525.761 1002.41 577.057 996.373 621.24 1001.55 642.196 1003.99 659.452 1019.15 664.561 1039.62 669.282 1058.97 674.567 1078.08 680.416 1096.94 682.206 1103.04 678.711 1109.44 672.613 1111.23 669.38 1112.18 665.893 1111.66 663.072 1109.82 639.337 1092.48 611.817 1081.03 582.785 1076.42 531.734 1067.69 482.267 1098.69 467.869 1148.44 459.023 1193.9 498.789 1248.83 547.401 1258.29 573.38 1263.34 612.812 1248.57 648.846 1234.68 688.574 1219.48 733.339 1237.09 752.053 1275.29 777.908 1328.48 807.962 1379.52 841.928 1427.92 851.861 1441.71 871.089 1444.84 884.879 1434.91 885.558 1434.42 886.217 1433.9 886.855 1433.36L886.938 1433.29C899.216 1422.78 901.339 1404.59 891.811 1391.55 873.619 1365.84 856.78 1339.2 841.365 1311.74 837.409 1304.7 839.915 1295.78 846.96 1291.82 850.062 1290.08 853.692 1289.53 857.17 1290.27 883.392 1294.53 910.217 1287.94 931.483 1272.02 1003.9 1223.19 979.073 1108.25 933.607 1099.41 896.602 1092.21 861.792 1127.14 817.654 1176.48 807.622 1187.78 790.33 1188.81 779.031 1178.78 775.946 1176.04 773.522 1172.64 771.936 1168.83 766.453 1155.4 761.159 1141.69 756.053 1127.7 749.723 1110.11 758.852 1090.72 776.443 1084.38 778.217 1083.75 780.04 1083.26 781.896 1082.92 825.113 1075.37 866.782 1060.71 905.218 1039.56 941.427 1015.15 965.427 972.63 943.964 921.263 930.65 889.407 874.082 876.209 819.769 912.831 789.933 932.946 778.382 956.616 763.494 974.422 752.991 986.986 734.292 988.655 721.73 978.153 716.238 973.561 712.591 967.138 711.466 960.068 703.931 923.823 701.265 886.733 703.539 849.784 703.616 848.655 703.693 847.42 703.774 846.098Z" fill="#5CAF87" fill-rule="nonzero" fill-opacity="1" transform="matrix(0.891425 0.453168 -1.35246 2.66042 5102.13 812.313)"/><path d="M249.979 291.619C249.979 330.778 218.234 362.523 179.075 362.523 139.916 362.523 108.171 330.778 108.171 291.619 108.171 252.46 139.916 220.716 179.075 220.716 218.234 220.716 249.979 252.46 249.979 291.619Z" fill="#5CAF87" fill-rule="nonzero" fill-opacity="1" transform="matrix(0.891425 0.453168 -1.35246 2.66042 5102.13 812.313)"/><path d="M410.232 426.37C410.232 452.476 389.069 473.639 362.963 473.639 336.857 473.639 315.694 452.476 315.694 426.37 315.694 400.264 336.857 379.1 362.963 379.1 389.069 379.1 410.232 400.264 410.232 426.37Z" fill="#5CAF87" fill-rule="nonzero" fill-opacity="1" transform="matrix(0.891425 0.453168 -1.35246 2.66042 5102.13 812.313)"/><path d="M284.842 605.296C284.842 628.219 266.26 646.801 243.337 646.801 220.415 646.801 201.833 628.219 201.833 605.296 201.833 582.374 220.415 563.792 243.337 563.792 266.26 563.792 284.842 582.374 284.842 605.296Z" fill="#5CAF87" fill-rule="nonzero" fill-opacity="1" transform="matrix(0.891425 0.453168 -1.35246 2.66042 5102.13 812.313)"/><path d="M1219.55 801.053C1219.55 835.08 1191.96 862.665 1157.94 862.665 1123.91 862.665 1096.32 835.08 1096.32 801.053 1096.32 767.025 1123.91 739.44 1157.94 739.44 1191.96 739.44 1219.55 767.025 1219.55 801.053Z" fill="#5CAF87" fill-rule="nonzero" fill-opacity="1" transform="matrix(0.891425 0.453168 -1.35246 2.66042 5102.13 812.313)"/><path d="M1358.8 918.143C1358.8 940.828 1340.41 959.217 1317.73 959.217 1295.04 959.217 1276.65 940.828 1276.65 918.143 1276.65 895.457 1295.04 877.068 1317.73 877.068 1340.41 877.068 1358.8 895.458 1358.8 918.143Z" fill="#5CAF87" fill-rule="nonzero" fill-opacity="1" transform="matrix(0.891425 0.453168 -1.35246 2.66042 5102.13 812.313)"/><path d="M1249.84 1073.62C1249.84 1093.54 1233.7 1109.69 1213.78 1109.69 1193.86 1109.69 1177.71 1093.54 1177.71 1073.62 1177.71 1053.71 1193.86 1037.56 1213.78 1037.56 1233.7 1037.56 1249.84 1053.71 1249.84 1073.62Z" fill="#5CAF87" fill-rule="nonzero" fill-opacity="1" transform="matrix(0.891425 0.453168 -1.35246 2.66042 5102.13 812.313)"/></g></g></g><g><g><g><path d="M812.588 573.463C871.926 546.621 965.311 583.761 1024.11 576.712 1082.92 569.661 1097.19 555.355 1110.66 537.937 1124.12 520.513 1104.3 478.011 1086.12 484.518 1067.95 491.025 1032.13 494.416 1017.37 471.842 1002.6 449.27 1073.29 429.204 1096.81 414.018 1120.34 398.835 1103.51 375.448 1095.33 360.193 1087.15 344.944 1039.62 300.676 1032.67 340.266 1025.72 379.853 1003.05 406.253 981.348 405.343 959.647 404.429 979.754 349.203 996.316 330.504 1012.88 311.806 977.605 290.914 951.478 279.95 925.35 268.981 854.657 263.801 886.194 299.049 917.734 334.301 931.299 384.53 920.675 398.835 910.05 413.137 878.176 371.177 871.227 353.28 864.277 335.383 837.014 338.097 823.116 347.856 809.218 357.618 791.576 371.718 814.563 387.988 841.47 410.738 857.411 443.872 858.397 479.094 857.863 512.719 846.045 511.006 797.089 528.191 767.319 540.102 738.792 554.911 711.922 572.408 706.161 576.133 698.472 574.483 694.747 568.723 692.645 565.473 692.179 561.429 693.486 557.786 694.577 554.696 695.49 552.111 696.098 550.393 714.362 502.697 728.884 453.651 739.529 403.7 775.439 315.45 826.804 141.129 759.485 118.239 710.951 101.736 733.5 179.75 721.977 195.206 710.455 210.661 704.035 177.005 691.727 145.856 679.42 114.708 667.918 109.452 648.121 108.354 628.324 107.256 614.711 105.687 601.099 137.07 587.488 168.451 710.608 262.599 689.227 279.958 667.845 297.315 621.516 258.836 589.963 219.919 558.41 181.006 502.727 143.345 474.887 219.919 447.044 296.493 520.049 275.154 554.078 279.489 578.979 281.168 597.805 302.714 596.128 327.615 595.951 330.243 595.544 332.852 594.912 335.41 589.343 358.004 564.076 340.43 534.204 327.876 504.33 315.324 479.835 341.685 497.159 374.323 513.069 404.3 652.201 391.708 665.158 470.168 666.714 481.176 665.552 492.398 661.773 502.854 655.824 520.483 649.676 537.872 643.692 554.784 622.511 614.65 615.717 627.254 605.095 676.899 605.047 677.124 604.819 678.493 604.473 680.626 602.423 693.012 590.72 701.391 578.333 699.34 574.481 698.702 570.859 697.083 567.813 694.638 550.741 681.427 532.662 669.567 513.744 659.169 474.343 631.007 463.438 594.602 451.215 551.14 438.876 507.279 454.704 430.48 454.068 404.326 453.429 378.168 420.131 374.738 394.592 378.251 369.054 381.76 347.49 391.851 345.847 420.633 344.203 449.413 461.581 612.164 409.462 619.432 357.345 626.701 299.26 503.01 288.914 452.416 281.592 416.615 251.027 413.061 222.031 427.078 183.478 445.722 239.066 471.458 229.832 485.742 210.236 516.053 163.839 449.252 146.019 463.674 116.32 487.712 81.4427 524.884 130.417 533.179 208.777 546.454 267.454 626.582 259.721 641.346 251.987 656.113 193.224 645.74 158.728 613.711 124.232 581.682 96.0332 595.144 81.0755 623.302 66.1177 651.461 99.3423 665.349 125.181 661.35 151.018 657.352 196.916 687.041 185.346 712.314 173.777 737.587 103.565 698.176 74.3153 690.87 45.0652 683.563 35.4866 733.419 32.9372 758.242 30.3862 783.058 64.6674 844.715 90.0575 820.777 115.447 796.842 187.619 766.894 204.874 811.717 222.132 856.538 151.536 854.942 123.005 874.813 107.96 885.294 106.723 900.778 122.716 927.495 138.71 954.208 166.981 931.016 173.142 971.565 177.706 1001.63 231.709 993.677 227.941 962.831 225.759 928.233 231.016 893.57 243.361 861.177 249.189 845.689 266.47 837.858 281.958 843.687 285.598 845.056 288.937 847.122 291.788 849.768 308.687 864.262 288.409 923.115 345.504 922.612 402.601 922.103 363.693 816.86 380.588 777.388 397.483 737.914 425.719 730.012 459.068 724.661 478.864 720.43 499.371 720.852 518.975 725.895 531.425 729.224 542.88 735.529 552.354 744.265 578.64 766.62 596.465 797.312 602.855 831.221 608.323 868.086 616.278 904.54 626.668 940.331 626.891 941.405 627.188 942.461 627.556 943.495 638.232 981.388 652.13 1018.3 669.1 1053.82 675.03 1065.67 689.445 1070.47 701.297 1064.54 702.661 1063.86 703.958 1063.05 705.167 1062.12 714.336 1054.76 717.025 1041.95 711.585 1031.53 708.065 1024.45 704.417 1016.42 700.724 1007.62 676.878 952.591 685.09 888.923 722.118 841.747L722.98 840.684C748.711 807.961 792.96 796.163 831.567 811.732 885.501 834.643 930.941 894.068 946.449 916.287 970.359 950.546 1002.84 975.36 1028.91 957.416 1045.13 946.249 1058.53 930.124 1042.13 915.046 1029.69 903.609 1019.92 901.136 1015.5 873.298 1013.69 861.863 1049.04 868.422 1059.16 866.552 1083.23 862.102 1074.73 823.54 1069.18 809.25 1065.92 798.274 1054.38 792.014 1043.41 795.27 1041.68 795.782 1040.03 796.516 1038.5 797.453 1024.17 806.894 1021.44 830.033 992.277 832.316 963.12 834.6 958.989 806.937 965.049 790.362 974.612 764.196 1041.43 767.731 1052.3 760.967 1063.18 754.202 1073.7 741.616 1065.82 711.922 1056.12 681.065 1026.03 661.302 993.86 664.654 964.284 669.681 961.045 718.066 938.209 702.959 917.215 689.07 926.075 673.854 931.075 655.364 935.82 637.824 898.837 630.371 875.398 627.059 851.959 623.745 841.603 628.99 837.213 646.593 833.684 660.749 867.065 699.21 847.98 719.799L841.905 725.604C784.046 735.176 726.335 757.69 681.76 815.275 675.398 823.551 663.532 825.104 655.256 818.743 651.253 815.666 648.646 811.114 648.019 806.103 644.814 780.126 643.998 753.91 645.58 727.784 645.773 724.798 646.231 721.834 646.952 718.929 663.065 655.738 741.216 602.485 812.588 573.463Z" fill="#5CAF87" fill-rule="nonzero" fill-opacity="1" transform="matrix(1 0 0 2.41355 5984 2572)"/></g></g></g><g><g><g><path d="M698.146 978.463C712.041 954.115 734.747 966.082 738.253 903.426 740.982 853.901 656.863 832.877 657.393 780.519 657.846 735.846 732.922 738.395 741.293 696.257 746.817 668.494 690.151 627.585 700.773 602.616 711.394 577.646 761.255 574.8 791.853 550.866 822.903 526.647 771.075 498.585 770.971 473.241 770.868 447.896 863.332 436.162 873.747 391.489 884.162 346.816 854.871 346.117 847.355 309.387 839.838 272.658 912.365 227.415 923.531 179.585 931.073 147.242 882.027 139.984 872.57 113.811 861.663 83.6539 925.613 27.6863 925.613 27.6863 850.24 18.7594 793.974 43.6899 777.324 63.9113 750.97 96.0092 776.548 143.787 755.214 161.188 726.518 184.579 680.176 186.727 662.943 228.114 648.363 263.045 716.763 328.561 682.169 366.623 649.463 402.667 565.369 385.434 544.669 436.498 522.791 490.331 607.196 530.67 577.957 583.481 552.224 629.94 505.598 632.489 497.214 682.427 490.318 723.556 554.812 766.288 540.141 805.566 525.819 843.913 469.075 855.699 493.63 892.894 523.115 937.542 569.768 931.94 554.669 974.75 541.965 1010.73 558.758 1033.67 580.739 1055.58 623.148 1097.85 606.225 1144.71 620.353 1202.97 623.895 1213.2 635.066 1218.63 645.302 1215.09 648.963 1213.82 652.165 1211.5 654.508 1208.41 667.469 1188.65 683.356 1170.97 701.626 1155.98 731.383 1133.88 758.552 1111.99 742.056 1073.18 722.922 1028.1 671.844 1024.55 698.146 978.463Z" fill="#5CAF87" fill-rule="nonzero" fill-opacity="1" transform="matrix(1 0 0 3.9533 5367 440)"/><path d="M461.675 974.556C456.668 937.917 472.348 895.016 466.643 877.37 450.833 828.466 419.68 854.561 402.925 826.124 382.316 791.193 418.761 762.394 405.914 718.833 395.37 683.087 374.696 687.395 325.106 664.121 291.624 648.402 283.823 607.843 262.761 574.968 246.265 549.223 188.189 546.506 188.189 546.506 124.588 552.276 158.096 629.655 177.593 652.917 199.807 679.452 236.2 671.275 241.737 719.299 248.128 774.93 232.254 793.276 252.32 839.618 274.443 890.747 319.841 836.733 332.3 876.063 344.047 913.18 306.839 975.268 329.906 1020.11 359.067 1076.76 422.862 1086.69 456.435 1176.41 461.456 1186.19 473.457 1190.05 483.24 1185.03 486.24 1183.49 488.801 1181.21 490.681 1178.41 513.224 1149.82 529.251 1116.65 537.644 1081.23 547.761 1020.9 466.552 1010.26 461.675 974.556Z" fill="#5CAF87" fill-rule="nonzero" fill-opacity="1" transform="matrix(1 0 0 3.9533 5367 440)"/><path d="M1048.51 634.144C1081.47 602.615 1096.42 556.657 1088.32 511.769 1078.55 460.51 997.365 459.113 988.347 510.307 981.439 549.559 993.251 593.909 917.993 624.493 865.803 645.711 926.648 694.032 912.391 716.996 898.134 739.96 859.749 729.662 843.965 749.676 816.059 785.035 857.51 812.436 845.53 839.54 830.769 872.906 799.343 866.955 774.62 899.997 754.334 927.166 754.217 936.843 773.611 1005.32 782.34 1043.37 785.882 1082.42 784.142 1121.41 784.024 1128.97 790.056 1135.19 797.615 1135.31 802.674 1135.39 807.363 1132.67 809.81 1128.24 830.665 1090.17 860.525 1045.44 893.076 1027.94 937.011 1004.33 912.094 970.312 913.659 928.913 915.522 881.458 971.878 902.326 998.452 873.281 1028.67 840.355 977.959 815.231 988.697 778.229 1001.48 734.177 1055.61 759.806 1071.1 731.654 1097.48 683.605 1002.97 678.869 1048.51 634.144Z" fill="#5CAF87" fill-rule="nonzero" fill-opacity="1" transform="matrix(1 0 0 3.9533 5367 440)"/><path d="M287.381 227.001C320.191 227.001 346.79 200.403 346.79 167.592 346.79 134.782 320.191 108.183 287.381 108.183 254.57 108.183 227.972 134.782 227.972 167.592 227.972 200.403 254.57 227.001 287.381 227.001Z" fill="#5CAF87" fill-rule="nonzero" fill-opacity="1" transform="matrix(1 0 0 3.9533 5367 440)"/><path d="M441.466 320.113C463.345 320.12 481.086 302.389 481.094 280.511 481.102 258.632 463.371 240.891 441.492 240.883 419.614 240.876 401.872 258.606 401.865 280.485 401.865 280.489 401.865 280.494 401.865 280.498 401.865 302.371 419.593 320.105 441.466 320.113Z" fill="#5CAF87" fill-rule="nonzero" fill-opacity="1" transform="matrix(1 0 0 3.9533 5367 440)"/><path d="M306.451 430.431C306.443 449.644 322.013 465.225 341.227 465.232 360.44 465.24 376.021 449.67 376.028 430.456 376.036 411.243 360.466 395.662 341.252 395.655 341.249 395.655 341.243 395.655 341.24 395.655 322.031 395.655 306.458 411.222 306.451 430.431Z" fill="#5CAF87" fill-rule="nonzero" fill-opacity="1" transform="matrix(1 0 0 3.9533 5367 440)"/></g></g></g></g></g></svg>