<svg width="11329" height="5005" xmlns="http://www.w3.org/2000/svg" xmlns:xlink="http://www.w3.org/1999/xlink" xml:space="preserve" overflow="hidden"><defs><clipPath id="clip0"><rect x="-3524" y="673" width="11329" height="5005"/></clipPath><clipPath id="clip1"><rect x="-3524" y="673" width="11329" height="5005"/></clipPath><clipPath id="clip2"><path d="M378.469 1022.75-1058.5 1386.25 26.3435 5674.81 1463.31 5311.31Z" fill-rule="nonzero" clip-rule="nonzero"/></clipPath><clipPath id="clip3"><path d="M378.469 1022.75-1058.5 1386.25 26.3436 5674.81 1463.31 5311.31Z" fill-rule="evenodd" clip-rule="evenodd"/></clipPath><clipPath id="clip4"><path d="M378.469 1022.75-1058.5 1386.25 26.3436 5674.81 1463.31 5311.31Z" fill-rule="evenodd" clip-rule="evenodd"/></clipPath></defs><g clip-path="url(#clip0)" transform="translate(3524 -673)"><g clip-path="url(#clip1)"><g><g><g><path d="M862.846 1209.29C880.019 1179.2 908.08 1193.99 912.414 1116.55 915.787 1055.34 811.823 1029.36 812.479 964.651 813.038 909.439 905.826 912.589 916.171 860.511 922.999 826.198 852.964 775.639 866.092 744.779 879.219 713.919 940.843 710.401 978.658 680.82 1017.03 650.888 952.979 616.206 952.851 584.883 952.723 553.559 1067 539.057 1079.87 483.845 1092.74 428.633 1056.54 427.769 1047.25 382.375 1037.96 336.98 1127.6 281.065 1141.4 221.951 1150.72 181.977 1090.11 173.007 1078.42 140.66 1064.94 103.389 1143.97 34.2177 1143.97 34.2177 1050.82 23.1849 981.281 53.9968 960.702 78.9885 928.131 118.659 959.743 177.708 933.376 199.214 897.911 228.123 840.636 230.778 819.338 281.928 801.318 325.1 885.855 406.071 843.099 453.113 802.677 497.66 698.745 476.362 673.161 539.472 646.123 606.005 750.439 655.861 714.303 721.13 682.499 778.549 624.873 781.699 614.512 843.419 605.989 894.249 685.697 947.063 667.565 995.607 649.865 1043 579.734 1057.57 610.082 1103.54 646.523 1158.72 704.181 1151.79 685.521 1204.7 669.82 1249.17 690.574 1277.52 717.74 1304.61 770.154 1356.84 749.24 1414.76 766.701 1486.76 771.078 1499.41 784.884 1506.12 797.535 1501.74 802.06 1500.17 806.017 1497.3 808.913 1493.49 824.931 1469.07 844.567 1447.21 867.147 1428.69 903.923 1401.37 937.501 1374.32 917.114 1326.35 893.466 1270.64 830.339 1266.25 862.846 1209.29Z" fill="#6BCD9E" fill-rule="nonzero" fill-opacity="1" transform="matrix(-1 0 0 1.80977 2262 2626)"/><path d="M570.588 1204.46C564.4 1159.18 583.78 1106.16 576.728 1084.35 557.189 1023.91 518.686 1056.16 497.98 1021.01 472.508 977.843 517.551 942.25 501.673 888.413 488.642 844.234 463.09 849.558 401.802 820.793 360.421 801.366 350.779 751.239 324.748 710.609 304.362 678.79 232.584 675.432 232.584 675.432 153.98 682.563 195.393 778.197 219.489 806.946 246.943 839.741 291.922 829.635 298.765 888.989 306.664 957.744 287.045 980.417 311.845 1037.69 339.187 1100.88 395.294 1034.13 410.692 1082.73 425.211 1128.61 379.225 1205.34 407.734 1260.76 443.775 1330.78 522.62 1343.05 564.112 1453.93 570.318 1466.02 585.15 1470.8 597.241 1464.59 600.949 1462.69 604.114 1459.87 606.437 1456.41 634.299 1421.08 654.107 1380.08 664.479 1336.3 676.983 1261.74 576.616 1248.59 570.588 1204.46Z" fill="#6BCD9E" fill-rule="nonzero" fill-opacity="1" transform="matrix(-1 0 0 1.80977 2262 2626)"/><path d="M1295.86 783.745C1336.6 744.777 1355.07 687.977 1345.06 632.5 1332.99 569.149 1232.65 567.422 1221.51 630.693 1212.97 679.206 1227.57 734.018 1134.56 771.817 1070.05 798.04 1145.25 857.761 1127.63 886.143 1110.01 914.524 1062.57 901.796 1043.06 926.532 1008.57 970.232 1059.81 1004.1 1045 1037.6 1026.76 1078.83 987.916 1071.48 957.36 1112.32 932.289 1145.89 932.145 1157.85 956.113 1242.49 966.901 1289.51 971.279 1337.77 969.129 1385.96 968.983 1395.3 976.437 1402.99 985.78 1403.14 992.032 1403.24 997.828 1399.88 1000.85 1394.4 1026.63 1347.35 1063.53 1292.07 1103.76 1270.44 1158.06 1241.26 1127.27 1199.22 1129.2 1148.05 1131.5 1089.4 1201.15 1115.19 1234 1079.3 1271.35 1038.6 1208.67 1007.55 1221.94 961.821 1237.74 907.377 1304.64 939.052 1323.78 904.259 1356.38 844.874 1239.58 839.021 1295.86 783.745Z" fill="#6BCD9E" fill-rule="nonzero" fill-opacity="1" transform="matrix(-1 0 0 1.80977 2262 2626)"/><path d="M355.177 280.553C395.728 280.553 428.601 247.68 428.601 207.129 428.601 166.578 395.728 133.705 355.177 133.705 314.625 133.705 281.752 166.578 281.752 207.129 281.752 247.68 314.625 280.553 355.177 280.553Z" fill="#6BCD9E" fill-rule="nonzero" fill-opacity="1" transform="matrix(-1 0 0 1.80977 2262 2626)"/><path d="M545.613 395.63C572.652 395.64 594.579 373.726 594.589 346.686 594.598 319.646 572.685 297.72 545.644 297.71 518.604 297.7 496.678 319.614 496.668 346.654 496.668 346.659 496.668 346.665 496.668 346.67 496.668 373.704 518.579 395.621 545.613 395.63Z" fill="#6BCD9E" fill-rule="nonzero" fill-opacity="1" transform="matrix(-1 0 0 1.80977 2262 2626)"/><path d="M378.745 531.973C378.736 555.72 397.979 574.976 421.725 574.985 445.471 574.995 464.728 555.751 464.737 532.005 464.747 508.259 445.503 489.003 421.757 488.993 421.752 488.993 421.746 488.993 421.741 488.993 398.001 488.993 378.755 508.234 378.745 531.973Z" fill="#6BCD9E" fill-rule="nonzero" fill-opacity="1" transform="matrix(-1 0 0 1.80977 2262 2626)"/></g></g></g><g clip-path="url(#clip2)"><g clip-path="url(#clip3)"><g clip-path="url(#clip4)"><path d="M703.773 846.098C704.528 833.844 715.075 824.521 727.332 825.278 730.839 825.494 734.247 826.539 737.273 828.327 751.869 836.695 766.998 844.099 782.562 850.489 842.817 875.73 864.581 847.594 873.719 800.626 883.202 751.883 865.633 717.049 814.846 712.767 779.345 709.773 764.406 720.663 738.042 736.043 732.132 739.475 724.557 737.465 721.125 731.554 719.615 728.954 719.104 725.893 719.686 722.942 723.183 706.361 727.115 689.938 731.367 673.653 740.242 639.574 775.064 619.141 809.144 628.016 817.995 630.321 826.246 634.502 833.337 640.277 841.25 646.632 849.628 652.945 858.581 658.834 905.097 689.42 943.102 666.806 966.653 630.031 988.295 596.233 950.532 523.275 888.675 508.23 843.629 497.271 823.317 518.828 797.682 525.511 790.808 527.371 783.729 523.306 781.87 516.433 781.218 514.026 781.279 511.482 782.044 509.11 788.955 487.955 795.698 466.989 801.977 446.179 804.84 437.142 814.485 432.136 823.521 434.999 825.685 435.684 827.692 436.791 829.426 438.258 853.653 457.58 886.214 462.84 915.292 452.129 988.138 429.535 989.78 329.466 952.03 311.307 925.178 298.394 893.286 312.233 853.4 335.822 846.549 339.841 837.738 337.544 833.719 330.695 832.036 327.824 831.399 324.458 831.92 321.171 834.841 302.603 836.754 283.89 837.651 265.115 838.045 253.68 846.846 244.304 858.234 243.188 905.562 238.827 922.967 234.171 942.437 214.423 966.204 190.318 999.345 147.689 969.894 114.479 940.439 81.2623 858.432 83.3317 820.936 157.41 820.936 157.41 820.621 158.341 820.192 159.63 809.459 131.706 754.086-1.30112 686.85 38.1279 643.269 63.6821 692.675 177.693 764.854 215.014 771.641 218.584 775.981 225.529 776.217 233.193 776.792 255.333 775.563 277.481 772.541 299.42 771.636 306.02 765.553 310.638 758.952 309.735 755.982 309.327 753.269 307.83 751.344 305.532 709.043 254.608 674.2 208.063 646.462 214.883 612.357 223.264 589.321 266.79 588.961 312.318 586.368 349.968 609.349 384.679 645.023 396.997 658.508 402.379 672.403 406.676 686.572 409.846 716.331 417.011 734.645 446.945 727.478 476.704 727.154 478.048 726.78 479.382 726.356 480.699 723.109 490.695 719.82 500.74 716.493 510.835L714.804 515.979C710.783 528.175 697.636 534.802 685.44 530.78 681 529.316 677.102 526.545 674.258 522.832 658.116 497.376 636.806 475.595 611.71 458.9 564.841 426.82 516.236 447.553 503.652 465.94 484.774 493.525 501.048 545.164 536.198 569.225 559.055 584.868 606.786 585.424 643.822 588.311 664.814 590.034 680.436 608.448 678.713 629.441 678.514 631.867 678.083 634.268 677.427 636.611 669.211 666.193 661.853 696.325 655.956 727.18 654.336 735.848 645.997 741.561 637.331 739.941 632.948 739.123 629.108 736.509 626.738 732.732 614.806 713.819 600.136 696.779 583.208 682.167 533.916 636.764 476.438 649.7 460.022 667.519 435.397 694.253 447.741 755.04 484.711 789.093 510.719 813.052 569.156 826.206 610.113 839.806 628.498 845.754 641.219 862.54 641.975 881.849 642.182 888.484 642.491 895.125 642.905 901.771 643.172 907.282 638.92 911.965 633.409 912.232 630.493 912.372 627.659 911.23 625.657 909.105 591.794 873.807 582.989 871.975 545.3 864.642 496.325 855.115 438.502 891.055 432.606 921.365 423.759 966.832 469.786 991.514 502.436 997.871 525.761 1002.41 577.057 996.373 621.239 1001.55 642.196 1003.99 659.452 1019.15 664.561 1039.62 669.282 1058.97 674.567 1078.08 680.416 1096.94 682.205 1103.04 678.711 1109.44 672.613 1111.23 669.379 1112.18 665.893 1111.66 663.072 1109.82 639.336 1092.48 611.816 1081.03 582.785 1076.42 531.734 1067.69 482.267 1098.69 467.869 1148.44 459.023 1193.9 498.789 1248.83 547.401 1258.29 573.38 1263.34 612.812 1248.57 648.846 1234.68 688.574 1219.48 733.339 1237.09 752.052 1275.29 777.908 1328.48 807.962 1379.52 841.928 1427.92 851.86 1441.71 871.089 1444.84 884.879 1434.91 885.558 1434.42 886.217 1433.9 886.855 1433.36L886.938 1433.29C899.216 1422.78 901.339 1404.59 891.811 1391.54 873.618 1365.84 856.78 1339.2 841.364 1311.74 837.409 1304.7 839.915 1295.78 846.96 1291.82 850.062 1290.08 853.692 1289.53 857.17 1290.27 883.392 1294.53 910.217 1287.94 931.482 1272.02 1003.9 1223.19 979.073 1108.25 933.607 1099.41 896.602 1092.21 861.791 1127.14 817.653 1176.48 807.622 1187.78 790.329 1188.81 779.03 1178.78 775.946 1176.04 773.521 1172.64 771.936 1168.83 766.453 1155.4 761.159 1141.69 756.053 1127.7 749.722 1110.11 758.852 1090.72 776.443 1084.38 778.217 1083.75 780.04 1083.26 781.896 1082.92 825.112 1075.37 866.781 1060.71 905.218 1039.56 941.427 1015.15 965.427 972.63 943.964 921.263 930.65 889.407 874.081 876.209 819.769 912.831 789.933 932.946 778.382 956.615 763.493 974.422 752.991 986.986 734.292 988.655 721.73 978.153 716.238 973.561 712.591 967.138 711.466 960.068 703.931 923.823 701.264 886.733 703.539 849.784 703.616 848.655 703.693 847.42 703.773 846.098Z" fill="#5CAF87" fill-rule="nonzero" fill-opacity="1" transform="matrix(-0.969463 0.245237 0.731898 2.89332 378.469 1022.75)"/><path d="M249.979 291.619C249.979 330.778 218.234 362.523 179.075 362.523 139.916 362.523 108.171 330.778 108.171 291.619 108.171 252.46 139.916 220.716 179.075 220.716 218.234 220.716 249.979 252.46 249.979 291.619Z" fill="#5CAF87" fill-rule="nonzero" fill-opacity="1" transform="matrix(-0.969463 0.245237 0.731898 2.89332 378.469 1022.75)"/><path d="M410.232 426.369C410.232 452.475 389.068 473.639 362.962 473.639 336.856 473.639 315.693 452.475 315.693 426.369 315.693 400.263 336.857 379.1 362.962 379.1 389.068 379.1 410.232 400.263 410.232 426.369Z" fill="#5CAF87" fill-rule="nonzero" fill-opacity="1" transform="matrix(-0.969463 0.245237 0.731898 2.89332 378.469 1022.75)"/><path d="M284.842 605.296C284.842 628.219 266.26 646.801 243.337 646.801 220.415 646.801 201.833 628.219 201.833 605.296 201.833 582.374 220.415 563.792 243.337 563.792 266.26 563.792 284.842 582.374 284.842 605.296Z" fill="#5CAF87" fill-rule="nonzero" fill-opacity="1" transform="matrix(-0.969463 0.245237 0.731898 2.89332 378.469 1022.75)"/><path d="M1219.55 801.052C1219.55 835.08 1191.96 862.665 1157.94 862.665 1123.91 862.665 1096.32 835.08 1096.32 801.052 1096.32 767.025 1123.91 739.44 1157.94 739.44 1191.96 739.44 1219.55 767.025 1219.55 801.052Z" fill="#5CAF87" fill-rule="nonzero" fill-opacity="1" transform="matrix(-0.969463 0.245237 0.731898 2.89332 378.469 1022.75)"/><path d="M1358.8 918.142C1358.8 940.827 1340.41 959.217 1317.73 959.217 1295.04 959.217 1276.65 940.827 1276.65 918.142 1276.65 895.457 1295.04 877.067 1317.73 877.067 1340.41 877.067 1358.8 895.457 1358.8 918.142Z" fill="#5CAF87" fill-rule="nonzero" fill-opacity="1" transform="matrix(-0.969463 0.245237 0.731898 2.89332 378.469 1022.75)"/><path d="M1249.84 1073.62C1249.84 1093.54 1233.7 1109.69 1213.78 1109.69 1193.86 1109.69 1177.71 1093.54 1177.71 1073.62 1177.71 1053.7 1193.86 1037.56 1213.78 1037.56 1233.7 1037.56 1249.84 1053.7 1249.84 1073.62Z" fill="#5CAF87" fill-rule="nonzero" fill-opacity="1" transform="matrix(-0.969463 0.245237 0.731898 2.89332 378.469 1022.75)"/></g></g></g><g><g><g><path d="M937.045 1313.28C955.695 1280.6 986.17 1296.67 990.875 1212.57 994.539 1146.1 881.635 1117.88 882.347 1047.61 882.954 987.646 983.721 991.066 994.956 934.51 1002.37 897.246 926.314 842.339 940.57 808.825 954.826 775.311 1021.75 771.491 1062.82 739.367 1104.49 706.86 1034.93 669.196 1034.79 635.179 1034.65 601.162 1158.76 585.412 1172.73 525.452 1186.71 465.492 1147.4 464.555 1137.31 415.257 1127.22 365.959 1224.57 305.235 1239.55 241.038 1249.68 197.626 1183.85 187.885 1171.15 152.756 1156.52 112.279 1242.35 37.1602 1242.35 37.1602 1141.18 25.1786 1065.66 58.6402 1043.32 85.7811 1007.94 128.863 1042.27 192.99 1013.64 216.345 975.126 247.741 912.926 250.623 889.796 306.172 870.226 353.057 962.033 440.991 915.6 492.078 871.702 540.455 758.832 517.326 731.049 585.864 701.686 658.118 814.972 712.261 775.728 783.143 741.19 845.499 678.608 848.92 667.356 915.947 658.1 971.149 744.663 1028.5 724.971 1081.22 705.749 1132.69 629.588 1148.51 662.546 1198.43 702.12 1258.36 764.736 1250.84 744.472 1308.3 727.42 1356.59 749.959 1387.38 779.462 1416.79 836.383 1473.52 813.67 1536.42 832.632 1614.61 837.386 1628.35 852.379 1635.63 866.118 1630.88 871.032 1629.18 875.33 1626.06 878.474 1621.92 895.87 1595.4 917.194 1571.67 941.716 1551.54 981.655 1521.88 1018.12 1492.5 995.981 1440.41 970.298 1379.91 901.743 1375.14 937.045 1313.28Z" fill="#74D49E" fill-rule="nonzero" fill-opacity="1" transform="matrix(1 0 0 1.66647 2835 2626)"/><path d="M619.655 1308.04C612.935 1258.86 633.981 1201.28 626.323 1177.6 605.104 1111.96 563.29 1146.98 540.803 1108.82 513.141 1061.93 562.057 1023.28 544.814 964.811 530.662 916.833 502.913 922.615 436.355 891.376 391.415 870.278 380.944 815.84 352.675 771.717 330.535 737.161 252.585 733.515 252.585 733.515 167.221 741.259 212.195 845.117 238.364 876.339 268.179 911.953 317.025 900.979 324.457 965.436 333.035 1040.1 311.729 1064.73 338.662 1126.93 368.355 1195.55 429.287 1123.05 446.009 1175.84 461.776 1225.66 411.836 1308.99 442.797 1369.18 481.937 1445.22 567.562 1458.54 612.623 1578.96 619.362 1592.09 635.469 1597.27 648.6 1590.54 652.627 1588.47 656.064 1585.41 658.587 1581.65 688.844 1543.28 710.356 1498.76 721.62 1451.21 735.199 1370.24 626.202 1355.97 619.655 1308.04Z" fill="#74D49E" fill-rule="nonzero" fill-opacity="1" transform="matrix(1 0 0 1.66647 2835 2626)"/><path d="M1407.3 851.143C1451.54 808.823 1471.6 747.139 1460.73 686.891 1447.62 618.092 1338.65 616.217 1326.55 684.929 1317.28 737.613 1333.13 797.139 1232.12 838.189 1162.07 866.667 1243.74 931.523 1224.6 962.345 1205.47 993.167 1153.95 979.345 1132.76 1006.21 1095.31 1053.67 1150.94 1090.44 1134.86 1126.82 1115.05 1171.61 1072.87 1163.62 1039.69 1207.97 1012.46 1244.43 1012.3 1257.42 1038.33 1349.33 1050.05 1400.39 1054.8 1452.81 1052.47 1505.14 1052.31 1515.29 1060.4 1523.64 1070.55 1523.8 1077.34 1523.91 1083.64 1520.26 1086.92 1514.31 1114.91 1463.21 1154.99 1403.18 1198.68 1379.69 1257.65 1348 1224.2 1302.34 1226.3 1246.78 1228.8 1183.08 1304.45 1211.09 1340.11 1172.11 1380.68 1127.92 1312.61 1094.19 1327.02 1044.53 1344.18 985.406 1416.83 1019.8 1437.61 982.019 1473.02 917.527 1346.17 911.172 1407.3 851.143Z" fill="#74D49E" fill-rule="nonzero" fill-opacity="1" transform="matrix(1 0 0 1.66647 2835 2626)"/><path d="M385.72 304.679C429.758 304.679 465.458 268.979 465.458 224.941 465.458 180.903 429.758 145.203 385.72 145.203 341.681 145.203 305.981 180.903 305.981 224.941 305.981 268.979 341.681 304.679 385.72 304.679Z" fill="#74D49E" fill-rule="nonzero" fill-opacity="1" transform="matrix(1 0 0 1.66647 2835 2626)"/><path d="M592.532 429.652C621.897 429.662 645.709 405.864 645.719 376.499 645.73 347.134 621.932 323.322 592.566 323.311 563.201 323.301 539.389 347.099 539.379 376.464 539.379 376.469 539.379 376.476 539.379 376.482 539.379 405.84 563.173 429.642 592.532 429.652Z" fill="#74D49E" fill-rule="nonzero" fill-opacity="1" transform="matrix(1 0 0 1.66647 2835 2626)"/><path d="M411.315 577.72C411.305 603.508 432.203 624.42 457.991 624.43 483.779 624.441 504.691 603.543 504.702 577.755 504.712 551.966 483.814 531.054 458.026 531.044 458.02 531.044 458.014 531.044 458.008 531.044 432.227 531.044 411.325 551.939 411.315 577.72Z" fill="#74D49E" fill-rule="nonzero" fill-opacity="1" transform="matrix(1 0 0 1.66647 2835 2626)"/></g></g></g><g><g><g><path d="M703.664 845.967C704.419 833.714 714.965 824.393 727.219 825.15 730.726 825.366 734.133 826.411 737.159 828.199 751.752 836.566 766.879 843.968 782.44 850.358 842.687 875.595 864.447 847.463 873.583 800.502 883.065 751.766 865.499 716.938 814.72 712.657 779.225 709.663 764.287 720.551 737.928 735.929 732.018 739.36 724.445 737.351 721.013 731.441 719.503 728.841 718.992 725.78 719.574 722.83 723.071 706.252 727.003 689.831 731.254 673.549 740.128 639.475 774.944 619.045 809.019 627.919 817.868 630.224 826.118 634.404 833.208 640.178 841.12 646.532 849.496 652.844 858.448 658.732 904.957 689.314 942.956 666.702 966.503 629.933 988.142 596.141 950.385 523.194 888.538 508.151 843.499 497.194 823.189 518.748 797.558 525.429 790.686 527.289 783.607 523.225 781.749 516.354 781.097 513.947 781.158 511.403 781.923 509.031 788.833 487.879 795.575 466.916 801.853 446.11 804.715 437.074 814.359 432.069 823.393 434.931 825.557 435.617 827.564 436.724 829.298 438.19 853.521 457.509 886.077 462.768 915.15 452.059 987.984 429.468 989.627 329.415 951.882 311.259 925.035 298.348 893.147 312.185 853.268 335.77 846.418 339.789 837.608 337.492 833.589 330.643 831.907 327.774 831.271 324.408 831.791 321.122 834.712 302.556 836.624 283.846 837.521 265.074 837.915 253.641 846.714 244.266 858.101 243.15 905.422 238.79 922.824 234.134 942.291 214.39 966.054 190.289 999.191 147.666 969.744 114.461 940.293 81.2497 858.299 83.3188 820.809 157.385 820.809 157.385 820.494 158.316 820.065 159.605 809.334 131.685 753.969-1.30092 686.743 38.122 643.169 63.6723 692.568 177.666 764.735 214.981 771.521 218.55 775.861 225.494 776.097 233.157 776.671 255.293 775.443 277.438 772.421 299.373 771.517 305.973 765.434 310.59 758.835 309.687 755.865 309.279 753.152 307.782 751.227 305.485 708.933 254.569 674.095 208.031 646.362 214.85 612.262 223.229 589.229 266.749 588.87 312.27 586.278 349.914 609.255 384.619 644.923 396.935 658.406 402.317 672.298 406.613 686.465 409.782 716.22 416.947 734.532 446.875 727.366 476.63 727.041 477.974 726.668 479.308 726.243 480.625 722.997 490.619 719.709 500.663 716.382 510.756L714.693 515.9C710.673 528.094 697.528 534.719 685.334 530.698 680.894 529.234 676.998 526.464 674.154 522.751 658.014 497.299 636.707 475.521 611.615 458.829 564.753 426.754 516.156 447.484 503.574 465.868 484.699 493.449 500.97 545.08 536.115 569.137 558.969 584.777 606.692 585.333 643.722 588.22 664.711 589.943 680.331 608.353 678.608 629.344 678.409 631.769 677.978 634.169 677.322 636.513 669.107 666.089 661.75 696.217 655.854 727.068 654.235 735.734 645.897 741.446 637.232 739.827 632.849 739.008 629.01 736.395 626.641 732.619 614.71 713.708 600.043 696.671 583.118 682.061 533.833 636.666 476.364 649.599 459.951 667.416 435.33 694.146 447.672 754.923 484.636 788.97 510.64 812.926 569.068 826.078 610.019 839.676 628.4 845.623 641.119 862.407 641.876 881.713 642.083 888.346 642.391 894.986 642.805 901.632 643.072 907.141 638.821 911.824 633.311 912.091 630.395 912.231 627.562 911.089 625.56 908.965 591.702 873.671 582.898 871.84 545.215 864.508 496.248 854.983 438.434 890.917 432.539 921.222 423.693 966.682 469.714 991.361 502.358 997.716 525.679 1002.25 576.967 996.219 621.143 1001.4 642.096 1003.83 659.349 1018.99 664.458 1039.46 669.179 1058.81 674.463 1077.91 680.31 1096.77 682.1 1102.87 678.606 1109.27 672.508 1111.06 669.276 1112 665.79 1111.49 662.97 1109.65 639.237 1092.31 611.722 1080.86 582.695 1076.25 531.652 1067.52 482.192 1098.52 467.796 1148.26 458.952 1193.72 498.711 1248.64 547.316 1258.09 573.292 1263.15 612.717 1248.38 648.745 1234.49 688.468 1219.29 733.226 1236.9 751.936 1275.1 777.787 1328.27 807.837 1379.3 841.798 1427.7 851.729 1441.49 870.954 1444.61 884.742 1434.69 885.421 1434.19 886.08 1433.68 886.718 1433.13L886.801 1433.06C899.077 1422.56 901.2 1404.38 891.673 1391.33 873.483 1365.63 856.647 1338.99 841.234 1311.54 837.279 1304.49 839.784 1295.58 846.829 1291.62 849.93 1289.88 853.559 1289.33 857.037 1290.07 883.255 1294.33 910.076 1287.74 931.338 1271.82 1003.74 1223 978.921 1108.08 933.462 1099.24 896.463 1092.04 861.658 1126.97 817.527 1176.3 807.497 1187.6 790.207 1188.62 778.91 1178.59 775.825 1175.86 773.402 1172.46 771.816 1168.65 766.334 1155.22 761.041 1141.51 755.936 1127.53 749.606 1109.94 758.735 1090.55 776.323 1084.22 778.096 1083.58 779.919 1083.09 781.775 1082.76 824.985 1075.2 866.647 1060.55 905.077 1039.4 941.281 1014.99 965.277 972.479 943.818 921.12 930.506 889.269 873.946 876.073 819.642 912.69 789.81 932.802 778.261 956.467 763.375 974.271 752.874 986.833 734.178 988.502 721.618 978.001 716.127 973.41 712.481 966.988 711.355 959.919 703.822 923.68 701.156 886.596 703.43 849.652 703.507 848.524 703.584 847.289 703.664 845.967Z" fill="#5CAF87" fill-rule="nonzero" fill-opacity="1" transform="matrix(1 0 0 2.98448 1611 835)"/><path d="M249.94 291.574C249.94 330.727 218.2 362.467 179.047 362.467 139.894 362.467 108.154 330.727 108.154 291.574 108.154 252.421 139.894 220.682 179.047 220.682 218.2 220.682 249.94 252.421 249.94 291.574Z" fill="#5CAF87" fill-rule="nonzero" fill-opacity="1" transform="matrix(1 0 0 2.98448 1611 835)"/><path d="M410.168 426.303C410.168 452.405 389.008 473.565 362.906 473.565 336.804 473.565 315.645 452.405 315.645 426.303 315.645 400.201 336.804 379.042 362.906 379.042 389.008 379.042 410.168 400.202 410.168 426.303Z" fill="#5CAF87" fill-rule="nonzero" fill-opacity="1" transform="matrix(1 0 0 2.98448 1611 835)"/><path d="M284.798 605.202C284.798 628.121 266.218 646.701 243.3 646.701 220.381 646.701 201.801 628.121 201.801 605.202 201.801 582.284 220.381 563.704 243.3 563.704 266.218 563.704 284.798 582.284 284.798 605.202Z" fill="#5CAF87" fill-rule="nonzero" fill-opacity="1" transform="matrix(1 0 0 2.98448 1611 835)"/><path d="M1219.36 800.928C1219.36 834.951 1191.78 862.531 1157.76 862.531 1123.73 862.531 1096.15 834.951 1096.15 800.928 1096.15 766.906 1123.73 739.326 1157.76 739.326 1191.78 739.326 1219.36 766.906 1219.36 800.928Z" fill="#5CAF87" fill-rule="nonzero" fill-opacity="1" transform="matrix(1 0 0 2.98448 1611 835)"/><path d="M1358.59 918C1358.59 940.682 1340.2 959.069 1317.52 959.069 1294.84 959.069 1276.45 940.682 1276.45 918 1276.45 895.319 1294.84 876.932 1317.52 876.932 1340.2 876.932 1358.59 895.319 1358.59 918Z" fill="#5CAF87" fill-rule="nonzero" fill-opacity="1" transform="matrix(1 0 0 2.98448 1611 835)"/><path d="M1249.65 1073.46C1249.65 1093.37 1233.51 1109.52 1213.59 1109.52 1193.67 1109.52 1177.53 1093.37 1177.53 1073.46 1177.53 1053.54 1193.67 1037.4 1213.59 1037.4 1233.51 1037.4 1249.65 1053.54 1249.65 1073.46Z" fill="#5CAF87" fill-rule="nonzero" fill-opacity="1" transform="matrix(1 0 0 2.98448 1611 835)"/></g></g></g><path d="M-1780.2 4596.99C-1766.69 4503.37-1744.61 4549.38-1741.2 4308.47-1738.54 4118.04-1820.35 4037.2-1819.83 3835.88-1819.39 3664.11-1746.38 3673.91-1738.24 3511.89-1732.87 3405.13-1787.98 3247.83-1777.65 3151.83-1767.32 3055.82-1718.83 3044.87-1689.08 2952.84-1658.88 2859.72-1709.28 2751.82-1709.38 2654.37-1709.48 2556.92-1619.56 2511.8-1609.44 2340.02-1599.31 2168.25-1627.79 2165.57-1635.1 2024.34-1642.41 1883.11-1571.88 1709.15-1561.02 1525.24-1553.69 1400.87-1601.39 1372.97-1610.58 1272.33-1621.19 1156.37-1559 941.173-1559 941.173-1632.3 906.848-1687.01 1002.71-1703.2 1080.46-1728.83 1203.88-1703.96 1387.59-1724.71 1454.5-1752.61 1544.44-1797.68 1552.7-1814.43 1711.83-1828.61 1846.15-1762.1 2098.06-1795.74 2244.41-1827.54 2383-1909.32 2316.74-1929.45 2513.09-1950.72 2720.08-1868.65 2875.19-1897.08 3078.25-1922.1 3256.89-1967.44 3266.69-1975.6 3458.71-1982.3 3616.85-1919.59 3781.16-1933.85 3932.19-1947.78 4079.63-2002.96 4124.95-1979.08 4267.97-1950.41 4439.65-1905.04 4418.1-1919.72 4582.71-1932.08 4721.06-1915.75 4809.26-1894.37 4893.53-1853.13 5056.05-1869.59 5236.22-1855.85 5460.23-1852.41 5499.59-1841.54 5520.46-1831.59 5506.83-1828.03 5501.96-1824.91 5493.03-1822.64 5481.17-1810.03 5405.18-1794.58 5337.2-1776.82 5279.55-1747.88 5194.59-1721.46 5110.42-1737.5 4961.18-1756.11 4787.87-1805.78 4774.19-1780.2 4596.99Z" fill="#6BCD9E" fill-rule="evenodd" fill-opacity="1"/><path d="M-2009.79 4581.46C-2014.66 4440.62-1999.4 4275.7-2004.95 4207.87-2020.34 4019.88-2050.66 4120.19-2066.97 4010.88-2087.03 3876.6-2051.56 3765.89-2064.06 3598.44-2074.32 3461.03-2094.44 3477.59-2142.71 3388.12-2175.3 3327.7-2182.89 3171.78-2203.39 3045.41-2219.44 2946.44-2275.97 2936-2275.97 2936-2337.87 2958.18-2305.26 3255.63-2286.28 3345.05-2264.66 3447.06-2229.24 3415.62-2223.85 3600.23-2217.63 3814.08-2233.08 3884.6-2213.55 4062.75-2192.02 4259.29-2147.83 4051.66-2135.71 4202.84-2124.27 4345.53-2160.49 4584.2-2138.04 4756.57-2109.65 4974.35-2047.56 5012.5-2014.89 5357.39-2010 5395-1998.32 5409.84-1988.8 5390.54-1985.88 5384.62-1983.39 5375.86-1981.56 5365.1-1959.62 5255.2-1944.02 5127.7-1935.85 4991.51-1926 4759.6-2005.04 4718.72-2009.79 4581.46Z" fill="#6BCD9E" fill-rule="evenodd" fill-opacity="1"/><path d="M-1439.8 3273.08C-1407.76 3151.85-1393.23 2975.15-1401.1 2802.56-1410.6 2605.48-1489.52 2600.1-1498.28 2796.94-1505 2947.86-1493.51 3118.38-1566.67 3235.97-1617.4 3317.55-1558.26 3503.34-1572.12 3591.63-1585.98 3679.93-1623.29 3640.33-1638.63 3717.28-1665.76 3853.23-1625.47 3958.59-1637.11 4062.8-1651.46 4191.08-1682.01 4168.2-1706.04 4295.25-1725.76 4399.71-1725.88 4436.92-1707.02 4700.21-1698.54 4846.48-1695.09 4996.62-1696.79 5146.55-1696.9 5175.61-1691.04 5199.54-1683.69 5199.99-1678.77 5200.3-1674.21 5189.84-1671.83 5172.81-1651.56 5026.42-1622.54 4854.46-1590.89 4787.16-1548.18 4696.38-1572.41 4565.6-1570.88 4406.42-1569.07 4223.97-1514.29 4304.2-1488.46 4192.53-1459.08 4065.93-1508.38 3969.33-1497.94 3827.07-1485.52 3657.69-1432.9 3756.23-1417.84 3647.99-1392.2 3463.25-1484.07 3445.04-1439.8 3273.08Z" fill="#6BCD9E" fill-rule="evenodd" fill-opacity="1"/><g><g><g><path d="M812.588 573.463C871.926 546.621 965.311 583.761 1024.11 576.712 1082.92 569.661 1097.19 555.355 1110.66 537.937 1124.12 520.513 1104.3 478.011 1086.12 484.518 1067.95 491.025 1032.13 494.416 1017.37 471.842 1002.6 449.27 1073.29 429.204 1096.81 414.018 1120.34 398.835 1103.51 375.448 1095.33 360.193 1087.15 344.944 1039.62 300.676 1032.67 340.266 1025.72 379.853 1003.05 406.253 981.348 405.343 959.647 404.429 979.754 349.203 996.316 330.504 1012.88 311.806 977.605 290.914 951.478 279.95 925.35 268.981 854.657 263.801 886.194 299.049 917.734 334.301 931.299 384.53 920.675 398.835 910.05 413.137 878.176 371.177 871.227 353.28 864.277 335.383 837.014 338.097 823.116 347.856 809.218 357.618 791.576 371.718 814.563 387.988 841.47 410.738 857.411 443.872 858.397 479.094 857.863 512.719 846.045 511.006 797.089 528.191 767.319 540.102 738.792 554.911 711.922 572.408 706.161 576.133 698.472 574.483 694.747 568.723 692.645 565.473 692.179 561.429 693.486 557.786 694.577 554.696 695.49 552.111 696.098 550.393 714.362 502.697 728.884 453.651 739.529 403.7 775.439 315.45 826.804 141.129 759.485 118.239 710.951 101.736 733.5 179.75 721.977 195.206 710.455 210.661 704.035 177.005 691.727 145.856 679.42 114.708 667.918 109.452 648.121 108.354 628.324 107.256 614.711 105.687 601.099 137.07 587.488 168.451 710.608 262.599 689.227 279.958 667.845 297.315 621.516 258.836 589.963 219.919 558.41 181.006 502.727 143.345 474.887 219.919 447.044 296.493 520.049 275.154 554.078 279.489 578.979 281.168 597.805 302.714 596.128 327.615 595.951 330.243 595.544 332.852 594.912 335.41 589.343 358.004 564.076 340.43 534.204 327.876 504.33 315.324 479.835 341.685 497.159 374.323 513.069 404.3 652.201 391.708 665.158 470.168 666.714 481.176 665.552 492.398 661.773 502.854 655.824 520.483 649.676 537.872 643.692 554.784 622.511 614.65 615.717 627.254 605.095 676.899 605.047 677.124 604.819 678.493 604.473 680.626 602.423 693.012 590.72 701.391 578.333 699.34 574.481 698.702 570.859 697.083 567.813 694.638 550.741 681.427 532.662 669.567 513.744 659.169 474.343 631.007 463.438 594.602 451.215 551.14 438.876 507.279 454.704 430.48 454.068 404.326 453.429 378.168 420.131 374.738 394.592 378.251 369.054 381.76 347.49 391.851 345.847 420.633 344.203 449.413 461.581 612.164 409.462 619.432 357.345 626.701 299.26 503.01 288.914 452.416 281.592 416.615 251.027 413.061 222.031 427.078 183.478 445.722 239.066 471.458 229.832 485.742 210.236 516.053 163.839 449.252 146.019 463.674 116.32 487.712 81.4427 524.884 130.417 533.179 208.777 546.454 267.454 626.582 259.721 641.346 251.987 656.113 193.224 645.74 158.728 613.711 124.232 581.682 96.0332 595.144 81.0755 623.302 66.1177 651.461 99.3423 665.349 125.181 661.35 151.018 657.352 196.916 687.041 185.346 712.314 173.777 737.587 103.565 698.176 74.3153 690.87 45.0652 683.563 35.4866 733.419 32.9372 758.242 30.3862 783.058 64.6674 844.715 90.0575 820.777 115.447 796.842 187.619 766.894 204.874 811.717 222.132 856.538 151.536 854.942 123.005 874.813 107.96 885.294 106.723 900.778 122.716 927.495 138.71 954.208 166.981 931.016 173.142 971.565 177.706 1001.63 231.709 993.677 227.941 962.831 225.759 928.233 231.016 893.57 243.361 861.177 249.189 845.689 266.47 837.858 281.958 843.687 285.598 845.056 288.937 847.122 291.788 849.768 308.687 864.262 288.409 923.115 345.504 922.612 402.601 922.103 363.693 816.86 380.588 777.388 397.483 737.914 425.719 730.012 459.068 724.661 478.864 720.43 499.371 720.852 518.975 725.895 531.425 729.224 542.88 735.529 552.354 744.265 578.64 766.62 596.465 797.312 602.855 831.221 608.323 868.086 616.278 904.54 626.668 940.331 626.891 941.405 627.188 942.461 627.556 943.495 638.232 981.388 652.13 1018.3 669.1 1053.82 675.03 1065.67 689.445 1070.47 701.297 1064.54 702.661 1063.86 703.958 1063.05 705.167 1062.12 714.336 1054.76 717.025 1041.95 711.585 1031.53 708.065 1024.45 704.417 1016.42 700.724 1007.62 676.878 952.591 685.09 888.923 722.118 841.747L722.98 840.684C748.711 807.961 792.96 796.163 831.567 811.732 885.501 834.643 930.941 894.068 946.449 916.287 970.359 950.546 1002.84 975.36 1028.91 957.416 1045.13 946.249 1058.53 930.124 1042.13 915.046 1029.69 903.609 1019.92 901.136 1015.5 873.298 1013.69 861.863 1049.04 868.422 1059.16 866.552 1083.23 862.102 1074.73 823.54 1069.18 809.25 1065.92 798.274 1054.38 792.014 1043.41 795.27 1041.68 795.782 1040.03 796.516 1038.5 797.453 1024.17 806.894 1021.44 830.033 992.277 832.316 963.12 834.6 958.989 806.937 965.049 790.362 974.612 764.196 1041.43 767.731 1052.3 760.967 1063.18 754.202 1073.7 741.616 1065.82 711.922 1056.12 681.065 1026.03 661.302 993.86 664.654 964.284 669.681 961.045 718.066 938.209 702.959 917.215 689.07 926.075 673.854 931.075 655.364 935.82 637.824 898.837 630.371 875.398 627.059 851.959 623.745 841.603 628.99 837.213 646.593 833.684 660.749 867.065 699.21 847.98 719.799L841.905 725.604C784.046 735.176 726.335 757.69 681.76 815.275 675.398 823.551 663.532 825.104 655.256 818.743 651.253 815.666 648.646 811.114 648.019 806.103 644.814 780.126 643.998 753.91 645.58 727.784 645.773 724.798 646.231 721.834 646.952 718.929 663.065 655.738 741.216 602.485 812.588 573.463Z" fill="#5CAF87" fill-rule="nonzero" fill-opacity="1" transform="matrix(1 0 0 2.41269 -1799 2481)"/></g></g></g><g><g><g><path d="M1150.05 811.617C1234.03 773.627 1366.2 826.191 1449.42 816.216 1532.64 806.236 1552.85 785.989 1571.91 761.337 1590.96 736.678 1562.9 676.525 1537.18 685.734 1511.46 694.943 1460.77 699.742 1439.87 667.793 1418.97 635.848 1519.02 607.449 1552.31 585.956 1585.6 564.467 1561.79 531.368 1550.21 509.779 1538.63 488.196 1471.36 425.544 1461.52 481.575 1451.69 537.602 1419.61 574.966 1388.89 573.678 1358.18 572.385 1386.64 494.223 1410.08 467.759 1433.52 441.296 1383.6 411.728 1346.62 396.21 1309.64 380.687 1209.59 373.355 1254.22 423.241 1298.86 473.133 1318.06 544.222 1303.02 564.467 1287.99 584.709 1242.87 525.324 1233.04 499.994 1223.2 474.665 1184.62 478.505 1164.95 492.318 1145.28 506.134 1120.31 526.089 1152.84 549.116 1190.92 581.314 1213.49 628.209 1214.88 678.058 1214.13 725.646 1197.4 723.222 1128.11 747.545 1085.98 764.401 1045.61 785.361 1007.58 810.124 999.424 815.396 988.542 813.061 983.269 804.909 980.295 800.309 979.635 794.586 981.484 789.43 983.029 785.056 984.322 781.397 985.182 778.966 1011.03 711.462 1031.58 642.048 1046.65 571.353 1097.47 446.453 1170.17 199.739 1074.89 167.343 1006.2 143.986 1038.12 254.399 1021.81 276.273 1005.5 298.146 996.415 250.513 978.995 206.428 961.577 162.345 945.299 154.906 917.28 153.353 889.261 151.799 869.995 149.579 850.73 193.994 831.467 238.408 1005.72 371.655 975.457 396.222 945.195 420.788 879.626 366.328 834.969 311.249 790.313 256.176 711.505 202.875 672.103 311.249 632.697 419.624 736.021 389.423 784.182 395.559 819.424 397.934 846.069 428.429 843.695 463.671 843.444 467.391 842.868 471.083 841.974 474.702 834.092 506.68 798.332 481.807 756.055 464.039 713.773 446.275 679.106 483.584 703.625 529.776 726.142 572.202 923.054 554.381 941.392 665.424 943.595 681.003 941.951 696.886 936.602 711.685 928.182 736.635 919.481 761.245 911.011 785.181 881.034 869.908 871.418 887.747 856.386 958.01 856.318 958.327 855.995 960.265 855.505 963.284 852.603 980.814 836.04 992.672 818.51 989.77 813.058 988.867 807.931 986.575 803.621 983.115 779.46 964.417 753.872 947.632 727.097 932.916 671.333 893.059 655.9 841.535 638.6 780.023 621.138 717.948 643.538 609.254 642.639 572.239 641.734 535.218 594.607 530.363 558.462 535.335 522.318 540.302 491.8 554.583 489.474 595.318 487.147 636.05 653.271 866.39 579.508 876.677 505.747 886.965 423.54 711.905 408.898 640.301 398.535 589.632 355.276 584.602 314.239 604.44 259.674 630.827 338.348 667.25 325.279 687.467 297.545 730.366 231.88 635.822 206.659 656.234 164.626 690.255 115.265 742.863 184.578 754.604 295.48 773.391 378.525 886.795 367.58 907.691 356.636 928.591 273.468 913.91 224.646 868.579 175.825 823.249 135.915 842.302 114.745 882.154 93.5759 922.007 140.598 941.662 177.167 936.003 213.735 930.344 278.693 972.364 262.318 1008.13 245.945 1043.9 146.575 988.123 105.178 977.782 63.7804 967.441 50.2239 1038 46.6157 1073.13 43.0053 1108.25 91.5232 1195.52 127.458 1161.64 163.392 1127.76 265.535 1085.38 289.957 1148.82 314.382 1212.25 214.468 1209.99 174.087 1238.11 152.795 1252.95 151.045 1274.86 173.679 1312.68 196.315 1350.48 236.327 1317.66 245.046 1375.05 251.506 1417.59 327.936 1406.34 322.603 1362.69 319.515 1313.72 326.956 1264.66 344.427 1218.82 352.675 1196.9 377.132 1185.81 399.052 1194.06 404.204 1196 408.93 1198.92 412.965 1202.67 436.883 1223.18 408.183 1306.48 488.988 1305.76 569.797 1305.04 514.732 1156.09 538.642 1100.23 562.555 1044.36 602.516 1033.18 649.715 1025.61 677.732 1019.62 706.755 1020.22 734.501 1027.35 752.121 1032.06 768.333 1040.99 781.742 1053.35 818.944 1084.99 844.172 1128.43 853.216 1176.42 860.954 1228.6 872.212 1280.19 886.918 1330.84 887.233 1332.36 887.654 1333.86 888.175 1335.32 903.284 1388.95 922.954 1441.19 946.972 1491.46 955.364 1508.24 975.766 1515.03 992.539 1506.64 994.471 1505.67 996.305 1504.52 998.017 1503.21 1010.99 1492.8 1014.8 1474.67 1007.1 1459.92 1002.12 1449.89 996.955 1438.53 991.728 1426.08 957.979 1348.19 969.601 1258.09 1022.01 1191.32L1023.23 1189.81C1059.64 1143.5 1122.27 1126.8 1176.91 1148.84 1253.24 1181.26 1317.55 1265.37 1339.5 1296.81 1373.34 1345.3 1419.31 1380.42 1456.2 1355.02 1479.16 1339.22 1498.13 1316.4 1474.92 1295.06 1457.32 1278.87 1443.48 1275.37 1437.23 1235.97 1434.66 1219.79 1484.7 1229.07 1499.02 1226.42 1533.08 1220.13 1521.05 1165.55 1513.2 1145.32 1508.59 1129.79 1492.26 1120.93 1476.72 1125.54 1474.28 1126.26 1471.95 1127.3 1469.78 1128.63 1449.5 1141.99 1445.63 1174.74 1404.36 1177.97 1363.09 1181.2 1357.25 1142.05 1365.82 1118.59 1379.36 1081.56 1473.92 1086.56 1489.31 1076.99 1504.71 1067.42 1519.6 1049.6 1508.45 1007.58 1494.72 963.905 1452.14 935.935 1406.6 940.68 1364.74 947.793 1360.16 1016.27 1327.84 994.891 1298.13 975.235 1310.67 953.7 1317.74 927.531 1324.46 902.707 1272.12 892.159 1238.94 887.471 1205.77 882.781 1191.11 890.204 1184.9 915.118 1179.91 935.153 1227.15 989.585 1200.14 1018.73L1191.54 1026.94C1109.65 1040.49 1027.98 1072.35 964.889 1153.85 955.885 1165.56 939.091 1167.76 927.378 1158.76 921.712 1154.4 918.023 1147.96 917.135 1140.87 912.6 1104.11 911.444 1067 913.684 1030.03 913.957 1025.8 914.605 1021.61 915.625 1017.49 938.43 928.06 1049.04 852.692 1150.05 811.617Z" fill="#5CAF87" fill-rule="nonzero" fill-opacity="1" transform="matrix(1 0 0 2.00859 4047 1986)"/></g></g></g><g><g><g><path d="M812.588 573.463C871.926 546.621 965.311 583.761 1024.11 576.712 1082.92 569.661 1097.19 555.355 1110.66 537.937 1124.12 520.513 1104.3 478.011 1086.12 484.518 1067.95 491.025 1032.13 494.416 1017.37 471.842 1002.6 449.27 1073.29 429.204 1096.81 414.018 1120.34 398.835 1103.51 375.448 1095.33 360.193 1087.15 344.944 1039.62 300.676 1032.67 340.266 1025.72 379.853 1003.05 406.253 981.348 405.343 959.647 404.429 979.754 349.203 996.316 330.504 1012.88 311.806 977.605 290.914 951.478 279.95 925.35 268.981 854.657 263.801 886.194 299.049 917.734 334.301 931.299 384.53 920.675 398.835 910.05 413.137 878.176 371.177 871.227 353.28 864.277 335.383 837.014 338.097 823.116 347.856 809.218 357.618 791.576 371.718 814.563 387.988 841.47 410.738 857.411 443.872 858.397 479.094 857.863 512.719 846.045 511.006 797.089 528.191 767.319 540.102 738.792 554.911 711.922 572.408 706.161 576.133 698.472 574.483 694.747 568.723 692.645 565.473 692.179 561.429 693.486 557.786 694.577 554.696 695.49 552.111 696.098 550.393 714.362 502.697 728.884 453.651 739.529 403.7 775.439 315.45 826.804 141.129 759.485 118.239 710.951 101.736 733.5 179.75 721.977 195.206 710.455 210.661 704.035 177.005 691.727 145.856 679.42 114.708 667.918 109.452 648.121 108.354 628.324 107.256 614.711 105.687 601.099 137.07 587.488 168.451 710.608 262.599 689.227 279.958 667.845 297.315 621.516 258.836 589.963 219.919 558.41 181.006 502.727 143.345 474.887 219.919 447.044 296.493 520.049 275.154 554.078 279.489 578.979 281.168 597.805 302.714 596.128 327.615 595.951 330.243 595.544 332.852 594.912 335.41 589.343 358.004 564.076 340.43 534.204 327.876 504.33 315.324 479.835 341.685 497.159 374.323 513.069 404.3 652.201 391.708 665.158 470.168 666.714 481.176 665.552 492.398 661.773 502.854 655.824 520.483 649.676 537.872 643.692 554.784 622.511 614.65 615.717 627.254 605.095 676.899 605.047 677.124 604.819 678.493 604.473 680.626 602.423 693.012 590.72 701.391 578.333 699.34 574.481 698.702 570.859 697.083 567.813 694.638 550.741 681.427 532.662 669.567 513.744 659.169 474.343 631.007 463.438 594.602 451.215 551.14 438.876 507.279 454.704 430.48 454.068 404.326 453.429 378.168 420.131 374.738 394.592 378.251 369.054 381.76 347.49 391.851 345.847 420.633 344.203 449.413 461.581 612.164 409.462 619.432 357.345 626.701 299.26 503.01 288.914 452.416 281.592 416.615 251.027 413.061 222.031 427.078 183.478 445.722 239.066 471.458 229.832 485.742 210.236 516.053 163.839 449.252 146.019 463.674 116.32 487.712 81.4427 524.884 130.417 533.179 208.777 546.454 267.454 626.582 259.721 641.346 251.987 656.113 193.224 645.74 158.728 613.711 124.232 581.682 96.0332 595.144 81.0755 623.302 66.1177 651.461 99.3423 665.349 125.181 661.35 151.018 657.352 196.916 687.041 185.346 712.314 173.777 737.587 103.565 698.176 74.3153 690.87 45.0652 683.563 35.4866 733.419 32.9372 758.242 30.3862 783.058 64.6674 844.715 90.0575 820.777 115.447 796.842 187.619 766.894 204.874 811.717 222.132 856.538 151.536 854.942 123.005 874.813 107.96 885.294 106.723 900.778 122.716 927.495 138.71 954.208 166.981 931.016 173.142 971.565 177.706 1001.63 231.709 993.677 227.941 962.831 225.759 928.233 231.016 893.57 243.361 861.177 249.189 845.689 266.47 837.858 281.958 843.687 285.598 845.056 288.937 847.122 291.788 849.768 308.687 864.262 288.409 923.115 345.504 922.612 402.601 922.103 363.693 816.86 380.588 777.388 397.483 737.914 425.719 730.012 459.068 724.661 478.864 720.43 499.371 720.852 518.975 725.895 531.425 729.224 542.88 735.529 552.354 744.265 578.64 766.62 596.465 797.312 602.855 831.221 608.323 868.086 616.278 904.54 626.668 940.331 626.891 941.405 627.188 942.461 627.556 943.495 638.232 981.388 652.13 1018.3 669.1 1053.82 675.03 1065.67 689.445 1070.47 701.297 1064.54 702.661 1063.86 703.958 1063.05 705.167 1062.12 714.336 1054.76 717.025 1041.95 711.585 1031.53 708.065 1024.45 704.417 1016.42 700.724 1007.62 676.878 952.591 685.09 888.923 722.118 841.747L722.98 840.684C748.711 807.961 792.96 796.163 831.567 811.732 885.501 834.643 930.941 894.068 946.449 916.287 970.359 950.546 1002.84 975.36 1028.91 957.416 1045.13 946.249 1058.53 930.124 1042.13 915.046 1029.69 903.609 1019.92 901.136 1015.5 873.298 1013.69 861.863 1049.04 868.422 1059.16 866.552 1083.23 862.102 1074.73 823.54 1069.18 809.25 1065.92 798.274 1054.38 792.014 1043.41 795.27 1041.68 795.782 1040.03 796.516 1038.5 797.453 1024.17 806.894 1021.44 830.033 992.277 832.316 963.12 834.6 958.989 806.937 965.049 790.362 974.612 764.196 1041.43 767.731 1052.3 760.967 1063.18 754.202 1073.7 741.616 1065.82 711.922 1056.12 681.065 1026.03 661.302 993.86 664.654 964.284 669.681 961.045 718.066 938.209 702.959 917.215 689.07 926.075 673.854 931.075 655.364 935.82 637.824 898.837 630.371 875.398 627.059 851.959 623.745 841.603 628.99 837.213 646.593 833.684 660.749 867.065 699.21 847.98 719.799L841.905 725.604C784.046 735.176 726.335 757.69 681.76 815.275 675.398 823.551 663.532 825.104 655.256 818.743 651.253 815.666 648.646 811.114 648.019 806.103 644.814 780.126 643.998 753.91 645.58 727.784 645.773 724.798 646.231 721.834 646.952 718.929 663.065 655.738 741.216 602.485 812.588 573.463Z" fill="#5CAF87" fill-rule="nonzero" fill-opacity="1" transform="matrix(1 0 0 2.41355 5984 2572)"/></g></g></g><g><g><g><path d="M812.588 573.463C871.926 546.621 965.312 583.761 1024.11 576.712 1082.92 569.661 1097.19 555.355 1110.66 537.937 1124.12 520.513 1104.3 478.012 1086.12 484.518 1067.95 491.025 1032.13 494.416 1017.37 471.842 1002.6 449.27 1073.29 429.204 1096.81 414.018 1120.34 398.835 1103.51 375.448 1095.33 360.194 1087.15 344.944 1039.62 300.676 1032.67 340.266 1025.72 379.853 1003.05 406.253 981.349 405.343 959.648 404.429 979.754 349.203 996.317 330.504 1012.88 311.806 977.606 290.914 951.478 279.95 925.35 268.982 854.657 263.801 886.195 299.049 917.734 334.301 931.299 384.53 920.675 398.835 910.05 413.137 878.176 371.177 871.227 353.28 864.278 335.383 837.015 338.097 823.116 347.856 809.218 357.618 791.576 371.718 814.563 387.988 841.47 410.738 857.411 443.872 858.397 479.094 857.863 512.719 846.045 511.006 797.089 528.192 767.319 540.102 738.792 554.912 711.922 572.408 706.161 576.133 698.472 574.483 694.747 568.724 692.646 565.473 692.179 561.429 693.486 557.787 694.577 554.696 695.491 552.111 696.099 550.393 714.362 502.697 728.884 453.651 739.53 403.7 775.44 315.45 826.804 141.129 759.485 118.239 710.951 101.736 733.5 179.75 721.977 195.206 710.455 210.661 704.036 177.005 691.727 145.856 679.42 114.708 667.918 109.452 648.121 108.354 628.324 107.256 614.711 105.687 601.099 137.07 587.489 168.451 710.608 262.6 689.227 279.958 667.845 297.315 621.516 258.836 589.963 219.919 558.41 181.006 502.727 143.345 474.887 219.919 447.044 296.493 520.049 275.154 554.078 279.489 578.979 281.168 597.806 302.714 596.128 327.615 595.951 330.244 595.544 332.853 594.912 335.41 589.343 358.004 564.076 340.43 534.204 327.876 504.33 315.324 479.835 341.685 497.159 374.323 513.069 404.3 652.201 391.708 665.158 470.168 666.714 481.176 665.553 492.398 661.774 502.854 655.824 520.484 649.676 537.872 643.692 554.785 622.511 614.65 615.717 627.254 605.095 676.9 605.047 677.124 604.819 678.493 604.473 680.626 602.423 693.012 590.72 701.391 578.333 699.341 574.481 698.703 570.859 697.083 567.814 694.638 550.742 681.427 532.663 669.567 513.744 659.169 474.343 631.007 463.438 594.602 451.215 551.14 438.876 507.279 454.704 430.48 454.068 404.326 453.429 378.168 420.131 374.738 394.592 378.251 369.054 381.76 347.491 391.851 345.847 420.633 344.203 449.413 461.581 612.164 409.462 619.432 357.345 626.702 299.26 503.01 288.914 452.416 281.592 416.615 251.027 413.062 222.032 427.079 183.478 445.722 239.066 471.458 229.832 485.742 210.236 516.053 163.839 449.252 146.019 463.674 116.32 487.712 81.4427 524.884 130.417 533.179 208.777 546.454 267.454 626.582 259.721 641.346 251.988 656.113 193.224 645.74 158.728 613.711 124.232 581.682 96.0332 595.144 81.0755 623.303 66.1178 651.461 99.3423 665.349 125.181 661.35 151.018 657.352 196.916 687.042 185.346 712.314 173.777 737.587 103.565 698.176 74.3153 690.87 45.0653 683.563 35.4867 733.42 32.9372 758.242 30.3862 783.058 64.6674 844.716 90.0575 820.777 115.447 796.842 187.619 766.895 204.874 811.718 222.132 856.538 151.536 854.943 123.005 874.813 107.96 885.294 106.724 900.779 122.716 927.495 138.71 954.208 166.981 931.017 173.142 971.565 177.706 1001.63 231.71 993.678 227.941 962.831 225.759 928.234 231.017 893.571 243.361 861.177 249.189 845.689 266.47 837.859 281.958 843.687 285.598 845.056 288.937 847.122 291.788 849.768 308.687 864.262 288.409 923.115 345.504 922.612 402.601 922.103 363.693 816.86 380.588 777.388 397.484 737.915 425.719 730.012 459.068 724.661 478.864 720.43 499.371 720.852 518.975 725.895 531.425 729.225 542.88 735.529 552.354 744.266 578.64 766.62 596.465 797.312 602.856 831.221 608.323 868.087 616.278 904.54 626.668 940.331 626.891 941.406 627.188 942.462 627.557 943.495 638.232 981.388 652.13 1018.3 669.1 1053.82 675.03 1065.67 689.446 1070.47 701.297 1064.54 702.662 1063.86 703.958 1063.05 705.167 1062.12 714.336 1054.76 717.025 1041.95 711.586 1031.53 708.065 1024.45 704.417 1016.42 700.724 1007.62 676.878 952.592 685.09 888.923 722.118 841.747L722.98 840.685C748.711 807.961 792.96 796.164 831.568 811.732 885.502 834.643 930.941 894.068 946.45 916.287 970.359 950.546 1002.84 975.36 1028.91 957.416 1045.13 946.249 1058.53 930.124 1042.13 915.046 1029.69 903.61 1019.92 901.136 1015.5 873.299 1013.69 861.863 1049.04 868.422 1059.16 866.552 1083.23 862.103 1074.73 823.541 1069.18 809.25 1065.92 798.274 1054.38 792.014 1043.41 795.27 1041.68 795.782 1040.03 796.516 1038.5 797.454 1024.17 806.894 1021.44 830.033 992.277 832.316 963.12 834.6 958.989 806.938 965.049 790.362 974.612 764.196 1041.43 767.732 1052.3 760.967 1063.18 754.203 1073.7 741.616 1065.82 711.922 1056.12 681.065 1026.03 661.302 993.86 664.655 964.284 669.681 961.046 718.066 938.209 702.959 917.215 689.07 926.076 673.854 931.075 655.364 935.821 637.824 898.838 630.372 875.398 627.059 851.96 623.745 841.603 628.99 837.214 646.594 833.684 660.75 867.065 699.21 847.98 719.8L841.905 725.604C784.046 735.176 726.335 757.69 681.76 815.275 675.399 823.552 663.532 825.104 655.256 818.744 651.253 815.666 648.646 811.115 648.019 806.103 644.814 780.126 643.998 753.91 645.58 727.785 645.773 724.798 646.231 721.834 646.952 718.929 663.065 655.738 741.217 602.485 812.588 573.463Z" fill="#6BCD9E" fill-rule="nonzero" fill-opacity="1" transform="matrix(1 0 0 1.8914 -3524 3173)"/></g></g></g><g><g><g><path d="M812.588 573.463C871.926 546.621 965.312 583.761 1024.11 576.712 1082.92 569.661 1097.19 555.355 1110.66 537.937 1124.12 520.513 1104.3 478.012 1086.12 484.518 1067.95 491.025 1032.13 494.416 1017.37 471.842 1002.6 449.27 1073.29 429.204 1096.81 414.018 1120.34 398.835 1103.51 375.448 1095.33 360.194 1087.15 344.944 1039.62 300.676 1032.67 340.266 1025.72 379.853 1003.05 406.253 981.349 405.343 959.648 404.429 979.754 349.203 996.317 330.504 1012.88 311.806 977.606 290.914 951.478 279.95 925.35 268.982 854.657 263.801 886.195 299.049 917.734 334.301 931.299 384.53 920.675 398.835 910.05 413.137 878.176 371.177 871.227 353.28 864.278 335.383 837.015 338.097 823.116 347.856 809.218 357.618 791.576 371.718 814.563 387.988 841.47 410.738 857.411 443.872 858.397 479.094 857.863 512.719 846.045 511.006 797.089 528.192 767.319 540.102 738.792 554.912 711.922 572.408 706.161 576.133 698.472 574.483 694.747 568.724 692.646 565.473 692.179 561.429 693.486 557.787 694.577 554.696 695.491 552.111 696.099 550.393 714.362 502.697 728.884 453.651 739.53 403.7 775.44 315.45 826.804 141.129 759.485 118.239 710.951 101.736 733.5 179.75 721.977 195.206 710.455 210.661 704.036 177.005 691.727 145.856 679.42 114.708 667.918 109.452 648.121 108.354 628.324 107.256 614.711 105.687 601.099 137.07 587.489 168.451 710.608 262.6 689.227 279.958 667.845 297.315 621.516 258.836 589.963 219.919 558.41 181.006 502.727 143.345 474.887 219.919 447.044 296.493 520.049 275.154 554.078 279.489 578.979 281.168 597.806 302.714 596.128 327.615 595.951 330.244 595.544 332.853 594.912 335.41 589.343 358.004 564.076 340.43 534.204 327.876 504.33 315.324 479.835 341.685 497.159 374.323 513.069 404.3 652.201 391.708 665.158 470.168 666.714 481.176 665.553 492.398 661.774 502.854 655.824 520.484 649.676 537.872 643.692 554.785 622.511 614.65 615.717 627.254 605.095 676.9 605.047 677.124 604.819 678.493 604.473 680.626 602.423 693.012 590.72 701.391 578.333 699.341 574.481 698.703 570.859 697.083 567.814 694.638 550.742 681.427 532.663 669.567 513.744 659.169 474.343 631.007 463.438 594.602 451.215 551.14 438.876 507.279 454.704 430.48 454.068 404.326 453.429 378.168 420.131 374.738 394.592 378.251 369.054 381.76 347.491 391.851 345.847 420.633 344.203 449.413 461.581 612.164 409.462 619.432 357.345 626.702 299.26 503.01 288.914 452.416 281.592 416.615 251.027 413.062 222.032 427.079 183.478 445.722 239.066 471.458 229.832 485.742 210.236 516.053 163.839 449.252 146.019 463.674 116.32 487.712 81.4427 524.884 130.417 533.179 208.777 546.454 267.454 626.582 259.721 641.346 251.988 656.113 193.224 645.74 158.728 613.711 124.232 581.682 96.0332 595.144 81.0755 623.303 66.1178 651.461 99.3423 665.349 125.181 661.35 151.018 657.352 196.916 687.042 185.346 712.314 173.777 737.587 103.565 698.176 74.3153 690.87 45.0653 683.563 35.4867 733.42 32.9372 758.242 30.3862 783.058 64.6674 844.716 90.0575 820.777 115.447 796.842 187.619 766.895 204.874 811.718 222.132 856.538 151.536 854.943 123.005 874.813 107.96 885.294 106.724 900.779 122.716 927.495 138.71 954.208 166.981 931.017 173.142 971.565 177.706 1001.63 231.71 993.678 227.941 962.831 225.759 928.234 231.017 893.571 243.361 861.177 249.189 845.689 266.47 837.859 281.958 843.687 285.598 845.056 288.937 847.122 291.788 849.768 308.687 864.262 288.409 923.115 345.504 922.612 402.601 922.103 363.693 816.86 380.588 777.388 397.484 737.915 425.719 730.012 459.068 724.661 478.864 720.43 499.371 720.852 518.975 725.895 531.425 729.225 542.88 735.529 552.354 744.266 578.64 766.62 596.465 797.312 602.856 831.221 608.323 868.087 616.278 904.54 626.668 940.331 626.891 941.406 627.188 942.462 627.557 943.495 638.232 981.388 652.13 1018.3 669.1 1053.82 675.03 1065.67 689.446 1070.47 701.297 1064.54 702.662 1063.86 703.958 1063.05 705.167 1062.12 714.336 1054.76 717.025 1041.95 711.586 1031.53 708.065 1024.45 704.417 1016.42 700.724 1007.62 676.878 952.592 685.09 888.923 722.118 841.747L722.98 840.685C748.711 807.961 792.96 796.164 831.568 811.732 885.502 834.643 930.941 894.068 946.45 916.287 970.359 950.546 1002.84 975.36 1028.91 957.416 1045.13 946.249 1058.53 930.124 1042.13 915.046 1029.69 903.61 1019.92 901.136 1015.5 873.299 1013.69 861.863 1049.04 868.422 1059.16 866.552 1083.23 862.103 1074.73 823.541 1069.18 809.25 1065.92 798.274 1054.38 792.014 1043.41 795.27 1041.68 795.782 1040.03 796.516 1038.5 797.454 1024.17 806.894 1021.44 830.033 992.277 832.316 963.12 834.6 958.989 806.938 965.049 790.362 974.612 764.196 1041.43 767.732 1052.3 760.967 1063.18 754.203 1073.7 741.616 1065.82 711.922 1056.12 681.065 1026.03 661.302 993.86 664.655 964.284 669.681 961.046 718.066 938.209 702.959 917.215 689.07 926.076 673.854 931.075 655.364 935.821 637.824 898.838 630.372 875.398 627.059 851.96 623.745 841.603 628.99 837.214 646.594 833.684 660.75 867.065 699.21 847.98 719.8L841.905 725.604C784.046 735.176 726.335 757.69 681.76 815.275 675.399 823.552 663.532 825.104 655.256 818.744 651.253 815.666 648.646 811.115 648.019 806.103 644.814 780.126 643.998 753.91 645.58 727.785 645.773 724.798 646.231 721.834 646.952 718.929 663.065 655.738 741.217 602.485 812.588 573.463Z" fill="#6BCD9E" fill-rule="nonzero" fill-opacity="1" transform="matrix(1 0 0 1.8914 6650 3173)"/></g></g></g><path d="M389.039 2770.5C390.117 2728.85 405.188 2697.17 422.7 2699.74 427.712 2700.48 432.581 2704.03 436.905 2710.11 457.759 2738.55 479.377 2763.71 501.614 2785.42 587.71 2871.21 618.807 2775.59 631.863 2615.97 645.413 2450.31 620.31 2331.93 547.744 2317.38 497.019 2307.2 475.673 2344.21 438.003 2396.48 429.558 2408.14 418.735 2401.31 413.831 2381.23 411.673 2372.39 410.943 2361.98 411.775 2351.96 416.772 2295.61 422.391 2239.79 428.466 2184.45 441.147 2068.63 490.901 1999.19 539.597 2029.35 552.243 2037.19 564.032 2051.4 574.165 2071.02 585.471 2092.62 597.441 2114.07 610.234 2134.09 676.698 2238.04 731.001 2161.18 764.651 2036.2 795.574 1921.34 741.617 1673.39 653.234 1622.26 588.87 1585.02 559.847 1658.28 523.219 1680.99 513.397 1687.31 503.282 1673.5 500.626 1650.14 499.695 1641.96 499.781 1633.31 500.875 1625.25 510.75 1553.36 520.384 1482.11 529.356 1411.38 533.446 1380.67 547.228 1363.66 560.138 1373.39 563.231 1375.72 566.099 1379.48 568.577 1384.47 603.193 1450.13 649.717 1468.01 691.265 1431.61 795.349 1354.82 797.696 1014.74 743.757 953.023 705.391 909.141 659.821 956.171 602.831 1036.34 593.042 1050 580.452 1042.19 574.71 1018.91 572.305 1009.16 571.396 997.719 572.139 986.548 576.313 923.445 579.047 859.849 580.328 796.042 580.891 757.181 593.466 725.315 609.738 721.521 677.362 706.703 702.231 690.877 730.051 623.765 764.009 541.846 811.363 396.97 769.282 284.109 727.196 171.221 610.02 178.254 556.445 430.007 556.445 430.007 555.995 433.171 555.382 437.552 540.047 342.653 460.927-109.369 364.858 24.6298 302.588 111.475 373.181 498.94 476.312 625.775 486.011 637.907 492.212 661.509 492.55 687.556 493.37 762.796 491.614 838.067 487.297 912.625 486.004 935.057 477.312 950.751 467.881 947.681 463.636 946.296 459.76 941.206 457.009 933.398 396.568 760.335 346.783 602.152 307.15 625.329 258.42 653.811 225.504 801.735 224.99 956.46 221.286 1084.41 254.122 1202.38 305.094 1244.24 324.362 1262.53 344.215 1277.13 364.461 1287.91 406.981 1312.26 433.15 1413.99 422.909 1515.12 422.446 1519.69 421.912 1524.22 421.305 1528.7 416.666 1562.67 411.967 1596.81 407.213 1631.12L404.799 1648.6C399.055 1690.05 380.269 1712.57 362.843 1698.9 356.499 1693.92 350.93 1684.51 346.867 1671.89 323.802 1585.38 293.353 1511.35 257.495 1454.61 190.526 1345.59 121.078 1416.05 103.098 1478.54 76.1238 1572.29 99.3764 1747.78 149.601 1829.55 182.26 1882.71 250.46 1884.6 303.378 1894.42 333.372 1900.27 355.693 1962.85 353.231 2034.2 352.947 2042.44 352.331 2050.6 351.394 2058.56 339.655 2159.1 329.141 2261.5 320.715 2366.36 318.401 2395.82 306.486 2415.23 294.103 2409.73 287.84 2406.95 282.354 2398.06 278.967 2385.23 261.918 2320.95 240.958 2263.04 216.77 2213.38 146.34 2059.08 64.2132 2103.05 40.7577 2163.6 5.57254 2254.46 23.2104 2461.04 76.0335 2576.77 113.195 2658.2 196.692 2702.9 255.214 2749.12 281.482 2769.33 299.658 2826.38 300.739 2892 301.035 2914.55 301.476 2937.12 302.067 2959.71 302.449 2978.43 296.373 2994.35 288.5 2995.26 284.332 2995.73 280.284 2991.85 277.423 2984.63 229.038 2864.67 216.457 2858.44 162.606 2833.52 92.6277 2801.15 10.009 2923.28 1.58396 3026.29-11.057 3180.81 54.7091 3264.69 101.36 3286.3 134.688 3301.71 207.981 3281.21 271.111 3298.81 301.055 3307.09 325.71 3358.62 333.01 3428.18 339.756 3493.94 347.308 3558.88 355.664 3623 358.221 3643.72 353.229 3665.46 344.515 3671.54 339.895 3674.76 334.914 3673.01 330.883 3666.75 296.969 3607.82 257.647 3568.91 216.166 3553.24 143.223 3523.56 72.5412 3628.92 51.9692 3798 39.3304 3952.51 96.1489 4139.18 165.608 4171.31 202.728 4188.49 259.07 4138.29 310.556 4091.08 367.322 4039.42 431.283 4099.29 458.022 4229.11 494.965 4409.86 537.907 4583.31 586.439 4747.83 600.631 4794.68 628.106 4805.31 647.809 4771.56 648.779 4769.89 649.721 4768.13 650.633 4766.29L650.752 4766.05C668.295 4730.35 671.328 4668.54 657.714 4624.19 631.72 4536.83 607.66 4446.3 585.634 4352.98 579.982 4329.04 583.563 4298.73 593.629 4285.29 598.061 4279.37 603.248 4277.5 608.218 4280.02 645.685 4294.48 684.013 4272.08 714.398 4217.97 817.871 4052.04 782.397 3661.42 717.434 3631.36 664.56 3606.9 614.821 3725.63 551.755 3893.31 537.422 3931.71 512.713 3935.19 496.569 3901.1 492.161 3891.79 488.698 3880.24 486.432 3867.3 478.598 3821.65 471.033 3775.06 463.738 3727.52 454.693 3667.74 467.737 3601.83 492.871 3580.31 495.406 3578.14 498.012 3576.48 500.663 3575.35 562.413 3549.66 621.951 3499.87 676.87 3427.98 728.608 3345.01 762.899 3200.52 732.232 3025.95 713.209 2917.69 632.382 2872.83 554.777 2997.29 512.146 3065.65 495.642 3146.09 474.369 3206.61 459.363 3249.3 432.645 3254.98 414.696 3219.29 406.849 3203.68 401.638 3181.85 400.03 3157.82 389.264 3034.65 385.454 2908.6 388.703 2783.03 388.814 2779.19 388.924 2774.99 389.039 2770.5Z" fill="#6BCD9E" fill-rule="evenodd" fill-opacity="1" transform="matrix(-0.983852 -0.178981 -0.178981 0.983852 6546.39 748.7)"/><path d="M176.068 209.388C176.068 325.03 136.654 418.776 88.0339 418.776 39.4141 418.776 0 325.03 0 209.388 0 93.7465 39.4141 0 88.0339 0 136.654 0 176.068 93.7465 176.068 209.388Z" fill="#6BCD9E" fill-rule="evenodd" fill-opacity="1" transform="matrix(-0.983852 -0.178981 -0.178981 0.983852 5180.81 2947.82)"/><path d="M117.379 139.592C117.379 216.687 91.1026 279.184 58.6894 279.184 26.2762 279.184 0 216.687 0 139.592 0 62.4975 26.2762 0 58.6894 0 91.1026 0 117.379 62.4975 117.379 139.592Z" fill="#6BCD9E" fill-rule="evenodd" fill-opacity="1" transform="matrix(-0.983852 -0.178981 -0.178981 0.983852 4843.59 3361.88)"/><path d="M103.064 122.568C103.064 190.261 79.9925 245.137 51.5322 245.137 23.0718 245.137 0.000360892 190.261 0.000360892 122.568 0.000360892 54.8759 23.0718 0 51.5322 0 79.9925 0 103.064 54.8759 103.064 122.568Z" fill="#6BCD9E" fill-rule="evenodd" fill-opacity="1" transform="matrix(-0.983852 -0.178981 -0.178981 0.983852 4885.06 3923.8)"/></g></g></svg>