<svg width="98" height="97" xmlns="http://www.w3.org/2000/svg" xmlns:xlink="http://www.w3.org/1999/xlink" xml:space="preserve" overflow="hidden"><g transform="translate(-678 -540)"><g><g><g><g><path d="M756 587C754.9 587 754 586.1 754 585 754 583.9 754.9 583 756 583 757.1 583 758 583.9 758 585 758 586.1 757.1 587 756 587ZM739 575C736.6 575 734 575.2 731.4 575.6L717 568C717 568 717.1 573.8 719.2 578.2 710.6 580.4 702.5 583 697 583L683 575C683 580.5 686 589 686 589 686 589 683 597.5 683 603L697 595C702.5 595 710.6 597.6 719.2 599.8 717.1 604.2 717 610 717 610L731.4 602.4C734 602.8 736.6 603 739 603 751.7 603 771 593.5 771 589 771 584.5 751.7 575 739 575Z" fill="#FFFFFF" fill-rule="nonzero" fill-opacity="1"/></g></g></g></g></g></svg>