<svg width="96" height="96" xmlns="http://www.w3.org/2000/svg" xmlns:xlink="http://www.w3.org/1999/xlink" xml:space="preserve" overflow="hidden"><g transform="translate(-592 -312)"><g><path d="M608.225 373.925C605.156 372.801 602.653 370.513 601.26 367.556 599.383 363.376 599.867 358.514 602.53 354.786 605.242 351.107 609.773 349.239 614.29 349.936L617.84 350.526 617.84 346.656C617.871 339.573 622.686 333.405 629.55 331.656 636.435 329.996 643.554 333.315 646.71 339.656L647.92 342.066 650.43 341.176C654.186 339.851 658.351 340.433 661.6 342.736 664.831 345.101 666.743 348.862 666.75 352.866L666.75 355.986 670.83 355.986C676.012 356.181 680.056 360.539 679.861 365.722 679.675 370.669 675.68 374.623 670.73 374.756L665.48 374.756 652.52 374.734 652.52 380.966 660.17 380.986 670.73 380.986C679.365 380.782 686.2 373.616 685.996 364.98 685.815 357.362 680.17 350.982 672.63 349.876 671.834 344.986 669.147 340.604 665.15 337.676 661.012 334.747 655.847 333.661 650.88 334.676 645.994 327.132 636.881 323.489 628.14 325.586 619.602 327.763 613.213 334.865 611.95 343.586 606.294 343.758 601.025 346.501 597.64 351.036 593.62 356.622 592.888 363.928 595.72 370.2 598.604 376.383 604.649 380.484 611.46 380.88L618.8 380.88 626.52 380.901 626.52 374.689 613.52 374.666 611.72 374.666C610.582 374.594 609.46 374.365 608.385 373.986Z" fill="#FFFFFF" fill-rule="nonzero" fill-opacity="1"/><path d="M647.52 392.986 647.52 368.986 660.02 368.986 639.52 344.986 619.02 368.986 631.52 368.986 631.52 392.986 647.52 392.986Z" fill="#FFFFFF" fill-rule="nonzero" fill-opacity="1"/></g></g></svg>